G04 EAGLE Gerber RS-274X export*
G75*
%MOMM*%
%FSLAX34Y34*%
%LPD*%
%INBottom Copper*%
%IPPOS*%
%AMOC8*
5,1,8,0,0,1.08239X$1,22.5*%
G01*
%ADD10C,1.008000*%
%ADD11C,1.676400*%
%ADD12C,0.858000*%
%ADD13C,0.808000*%
%ADD14C,0.756400*%
%ADD15C,0.152400*%

G36*
X126474Y1536D02*
X126474Y1536D01*
X126546Y1538D01*
X126595Y1556D01*
X126646Y1564D01*
X126710Y1598D01*
X126777Y1623D01*
X126818Y1655D01*
X126864Y1680D01*
X126913Y1732D01*
X126969Y1776D01*
X126997Y1820D01*
X127033Y1858D01*
X127063Y1923D01*
X127102Y1983D01*
X127115Y2034D01*
X127137Y2081D01*
X127145Y2152D01*
X127162Y2222D01*
X127158Y2274D01*
X127164Y2325D01*
X127149Y2396D01*
X127143Y2467D01*
X127123Y2515D01*
X127112Y2566D01*
X127075Y2627D01*
X127047Y2693D01*
X127002Y2749D01*
X126985Y2777D01*
X126968Y2792D01*
X126942Y2824D01*
X104296Y25470D01*
X104222Y25523D01*
X104152Y25583D01*
X104122Y25595D01*
X104096Y25614D01*
X104009Y25641D01*
X103924Y25675D01*
X103883Y25679D01*
X103861Y25686D01*
X103829Y25685D01*
X103757Y25693D01*
X99802Y25693D01*
X96693Y28802D01*
X96693Y33198D01*
X99802Y36307D01*
X104198Y36307D01*
X107307Y33198D01*
X107307Y29243D01*
X107321Y29152D01*
X107329Y29062D01*
X107341Y29032D01*
X107346Y29000D01*
X107389Y28919D01*
X107425Y28835D01*
X107451Y28803D01*
X107462Y28782D01*
X107485Y28760D01*
X107530Y28704D01*
X131438Y4796D01*
X131512Y4743D01*
X131582Y4683D01*
X131612Y4671D01*
X131638Y4652D01*
X131725Y4625D01*
X131810Y4591D01*
X131851Y4587D01*
X131873Y4580D01*
X131905Y4581D01*
X131977Y4573D01*
X147666Y4573D01*
X147736Y4584D01*
X147808Y4586D01*
X147857Y4604D01*
X147908Y4612D01*
X147972Y4646D01*
X148039Y4671D01*
X148080Y4703D01*
X148126Y4728D01*
X148175Y4780D01*
X148231Y4824D01*
X148259Y4868D01*
X148295Y4906D01*
X148325Y4971D01*
X148364Y5031D01*
X148377Y5082D01*
X148399Y5129D01*
X148407Y5200D01*
X148424Y5270D01*
X148420Y5322D01*
X148426Y5373D01*
X148411Y5444D01*
X148405Y5515D01*
X148385Y5563D01*
X148374Y5614D01*
X148337Y5675D01*
X148309Y5741D01*
X148264Y5797D01*
X148247Y5825D01*
X148230Y5840D01*
X148204Y5872D01*
X147435Y6641D01*
X146435Y9054D01*
X146435Y21746D01*
X147435Y24159D01*
X149281Y26005D01*
X151694Y27005D01*
X154306Y27005D01*
X156719Y26005D01*
X158565Y24159D01*
X159565Y21746D01*
X159565Y9054D01*
X158565Y6641D01*
X157796Y5872D01*
X157754Y5814D01*
X157705Y5762D01*
X157683Y5715D01*
X157653Y5673D01*
X157632Y5604D01*
X157601Y5539D01*
X157596Y5487D01*
X157580Y5437D01*
X157582Y5366D01*
X157574Y5295D01*
X157585Y5244D01*
X157587Y5192D01*
X157611Y5124D01*
X157626Y5054D01*
X157653Y5009D01*
X157671Y4961D01*
X157716Y4905D01*
X157753Y4843D01*
X157792Y4809D01*
X157825Y4769D01*
X157885Y4730D01*
X157940Y4683D01*
X157988Y4664D01*
X158032Y4636D01*
X158101Y4618D01*
X158168Y4591D01*
X158239Y4583D01*
X158270Y4575D01*
X158294Y4577D01*
X158334Y4573D01*
X217642Y4573D01*
X217713Y4584D01*
X217785Y4586D01*
X217834Y4604D01*
X217885Y4612D01*
X217948Y4646D01*
X218016Y4671D01*
X218057Y4703D01*
X218103Y4728D01*
X218152Y4780D01*
X218208Y4824D01*
X218236Y4868D01*
X218272Y4906D01*
X218302Y4971D01*
X218341Y5031D01*
X218354Y5082D01*
X218376Y5129D01*
X218383Y5200D01*
X218401Y5270D01*
X218397Y5322D01*
X218403Y5373D01*
X218387Y5444D01*
X218382Y5515D01*
X218361Y5563D01*
X218350Y5614D01*
X218314Y5675D01*
X218285Y5741D01*
X218241Y5797D01*
X218224Y5825D01*
X218206Y5840D01*
X218181Y5872D01*
X217669Y6384D01*
X216658Y7775D01*
X215878Y9307D01*
X215346Y10942D01*
X215182Y11977D01*
X225238Y11977D01*
X225258Y11980D01*
X225277Y11978D01*
X225379Y12000D01*
X225481Y12017D01*
X225498Y12026D01*
X225518Y12030D01*
X225607Y12083D01*
X225698Y12132D01*
X225712Y12146D01*
X225729Y12156D01*
X225796Y12235D01*
X225867Y12310D01*
X225876Y12328D01*
X225889Y12343D01*
X225927Y12439D01*
X225971Y12533D01*
X225973Y12553D01*
X225981Y12571D01*
X225999Y12738D01*
X225999Y13501D01*
X226762Y13501D01*
X226782Y13504D01*
X226801Y13502D01*
X226903Y13524D01*
X227005Y13541D01*
X227022Y13550D01*
X227042Y13554D01*
X227131Y13607D01*
X227222Y13656D01*
X227236Y13670D01*
X227253Y13680D01*
X227320Y13759D01*
X227391Y13834D01*
X227400Y13852D01*
X227413Y13867D01*
X227452Y13963D01*
X227495Y14057D01*
X227497Y14077D01*
X227505Y14095D01*
X227523Y14262D01*
X227523Y24318D01*
X228558Y24154D01*
X230193Y23622D01*
X231725Y22842D01*
X233116Y21831D01*
X234128Y20819D01*
X234186Y20777D01*
X234238Y20728D01*
X234285Y20706D01*
X234327Y20676D01*
X234396Y20655D01*
X234461Y20624D01*
X234513Y20619D01*
X234563Y20603D01*
X234634Y20605D01*
X234705Y20597D01*
X234756Y20608D01*
X234808Y20610D01*
X234876Y20634D01*
X234946Y20650D01*
X234991Y20676D01*
X235039Y20694D01*
X235095Y20739D01*
X235157Y20776D01*
X235191Y20815D01*
X235231Y20848D01*
X235270Y20908D01*
X235317Y20963D01*
X235336Y21011D01*
X235364Y21055D01*
X235382Y21124D01*
X235409Y21191D01*
X235417Y21262D01*
X235425Y21293D01*
X235423Y21317D01*
X235427Y21358D01*
X235427Y32479D01*
X235416Y32550D01*
X235414Y32622D01*
X235396Y32671D01*
X235388Y32722D01*
X235354Y32785D01*
X235329Y32853D01*
X235297Y32893D01*
X235272Y32939D01*
X235220Y32989D01*
X235176Y33045D01*
X235132Y33073D01*
X235094Y33109D01*
X235029Y33139D01*
X234969Y33178D01*
X234918Y33190D01*
X234871Y33212D01*
X234800Y33220D01*
X234730Y33238D01*
X234678Y33234D01*
X234627Y33239D01*
X234556Y33224D01*
X234485Y33219D01*
X234437Y33198D01*
X234386Y33187D01*
X234325Y33150D01*
X234259Y33122D01*
X234203Y33078D01*
X234175Y33061D01*
X234160Y33043D01*
X234128Y33018D01*
X231612Y30501D01*
X227971Y28993D01*
X224029Y28993D01*
X220388Y30501D01*
X217601Y33288D01*
X216093Y36929D01*
X216093Y40871D01*
X217601Y44512D01*
X220388Y47299D01*
X224029Y48807D01*
X227971Y48807D01*
X231612Y47299D01*
X234128Y44782D01*
X234186Y44741D01*
X234238Y44691D01*
X234285Y44669D01*
X234327Y44639D01*
X234396Y44618D01*
X234461Y44588D01*
X234513Y44582D01*
X234563Y44567D01*
X234634Y44568D01*
X234705Y44561D01*
X234756Y44572D01*
X234808Y44573D01*
X234876Y44598D01*
X234946Y44613D01*
X234991Y44640D01*
X235039Y44657D01*
X235095Y44702D01*
X235157Y44739D01*
X235191Y44779D01*
X235231Y44811D01*
X235270Y44871D01*
X235317Y44926D01*
X235336Y44974D01*
X235364Y45018D01*
X235382Y45087D01*
X235409Y45154D01*
X235417Y45225D01*
X235425Y45257D01*
X235423Y45280D01*
X235427Y45321D01*
X235427Y51323D01*
X235413Y51414D01*
X235405Y51504D01*
X235393Y51534D01*
X235388Y51566D01*
X235345Y51647D01*
X235309Y51731D01*
X235283Y51763D01*
X235272Y51784D01*
X235249Y51806D01*
X235204Y51862D01*
X231655Y55411D01*
X231561Y55479D01*
X231467Y55549D01*
X231461Y55551D01*
X231456Y55554D01*
X231344Y55589D01*
X231233Y55625D01*
X231226Y55625D01*
X231220Y55627D01*
X231104Y55624D01*
X230987Y55623D01*
X230980Y55621D01*
X230975Y55620D01*
X230957Y55614D01*
X230826Y55576D01*
X227971Y54393D01*
X224029Y54393D01*
X220388Y55901D01*
X217601Y58688D01*
X216093Y62329D01*
X216093Y66271D01*
X217601Y69912D01*
X220388Y72699D01*
X224029Y74207D01*
X227971Y74207D01*
X231612Y72699D01*
X234128Y70182D01*
X234186Y70141D01*
X234238Y70091D01*
X234285Y70069D01*
X234327Y70039D01*
X234396Y70018D01*
X234461Y69988D01*
X234513Y69982D01*
X234563Y69967D01*
X234634Y69968D01*
X234705Y69961D01*
X234756Y69972D01*
X234808Y69973D01*
X234876Y69998D01*
X234946Y70013D01*
X234991Y70040D01*
X235039Y70057D01*
X235095Y70102D01*
X235157Y70139D01*
X235191Y70179D01*
X235231Y70211D01*
X235270Y70271D01*
X235317Y70326D01*
X235336Y70374D01*
X235364Y70418D01*
X235382Y70487D01*
X235409Y70554D01*
X235417Y70625D01*
X235425Y70657D01*
X235423Y70680D01*
X235427Y70721D01*
X235427Y83279D01*
X235416Y83350D01*
X235414Y83422D01*
X235396Y83471D01*
X235388Y83522D01*
X235354Y83585D01*
X235329Y83653D01*
X235297Y83693D01*
X235272Y83739D01*
X235220Y83789D01*
X235176Y83845D01*
X235132Y83873D01*
X235094Y83909D01*
X235029Y83939D01*
X234969Y83978D01*
X234918Y83990D01*
X234871Y84012D01*
X234800Y84020D01*
X234730Y84038D01*
X234678Y84034D01*
X234627Y84039D01*
X234556Y84024D01*
X234485Y84019D01*
X234437Y83998D01*
X234386Y83987D01*
X234325Y83950D01*
X234259Y83922D01*
X234203Y83878D01*
X234175Y83861D01*
X234160Y83843D01*
X234128Y83818D01*
X231612Y81301D01*
X227971Y79793D01*
X224029Y79793D01*
X220388Y81301D01*
X217601Y84088D01*
X216093Y87729D01*
X216093Y91671D01*
X217601Y95312D01*
X219704Y97414D01*
X219745Y97472D01*
X219795Y97524D01*
X219817Y97571D01*
X219847Y97613D01*
X219868Y97682D01*
X219898Y97747D01*
X219904Y97799D01*
X219919Y97849D01*
X219918Y97920D01*
X219925Y97991D01*
X219914Y98042D01*
X219913Y98094D01*
X219888Y98162D01*
X219873Y98232D01*
X219846Y98277D01*
X219829Y98325D01*
X219784Y98381D01*
X219747Y98443D01*
X219707Y98477D01*
X219675Y98517D01*
X219615Y98556D01*
X219560Y98603D01*
X219512Y98622D01*
X219468Y98650D01*
X219399Y98668D01*
X219332Y98695D01*
X219261Y98703D01*
X219229Y98711D01*
X219206Y98709D01*
X219165Y98713D01*
X217533Y98713D01*
X217443Y98699D01*
X217352Y98691D01*
X217323Y98679D01*
X217291Y98674D01*
X217210Y98631D01*
X217126Y98595D01*
X217094Y98569D01*
X217073Y98558D01*
X217051Y98535D01*
X216995Y98490D01*
X214198Y95693D01*
X209802Y95693D01*
X207586Y97909D01*
X207528Y97951D01*
X207476Y98000D01*
X207429Y98022D01*
X207387Y98052D01*
X207318Y98074D01*
X207253Y98104D01*
X207201Y98109D01*
X207151Y98125D01*
X207080Y98123D01*
X207009Y98131D01*
X206958Y98120D01*
X206906Y98118D01*
X206838Y98094D01*
X206768Y98079D01*
X206723Y98052D01*
X206675Y98034D01*
X206619Y97989D01*
X206557Y97952D01*
X206523Y97913D01*
X206483Y97880D01*
X206444Y97820D01*
X206397Y97765D01*
X206378Y97717D01*
X206350Y97673D01*
X206332Y97604D01*
X206305Y97537D01*
X206297Y97466D01*
X206289Y97435D01*
X206291Y97412D01*
X206287Y97371D01*
X206287Y89533D01*
X206301Y89443D01*
X206309Y89352D01*
X206321Y89323D01*
X206326Y89291D01*
X206369Y89210D01*
X206405Y89126D01*
X206431Y89094D01*
X206442Y89073D01*
X206465Y89051D01*
X206510Y88995D01*
X209307Y86198D01*
X209307Y81802D01*
X206198Y78693D01*
X201802Y78693D01*
X198693Y81802D01*
X198693Y86198D01*
X201490Y88995D01*
X201543Y89069D01*
X201603Y89139D01*
X201615Y89169D01*
X201634Y89195D01*
X201661Y89282D01*
X201695Y89367D01*
X201699Y89408D01*
X201706Y89430D01*
X201705Y89462D01*
X201713Y89533D01*
X201713Y144334D01*
X201710Y144354D01*
X201712Y144373D01*
X201690Y144475D01*
X201674Y144577D01*
X201664Y144594D01*
X201660Y144614D01*
X201607Y144703D01*
X201558Y144794D01*
X201544Y144808D01*
X201534Y144825D01*
X201455Y144892D01*
X201380Y144964D01*
X201362Y144972D01*
X201347Y144985D01*
X201251Y145024D01*
X201157Y145067D01*
X201137Y145069D01*
X201119Y145077D01*
X200952Y145095D01*
X198802Y145095D01*
X195693Y148204D01*
X195693Y152600D01*
X198802Y155709D01*
X203198Y155709D01*
X206307Y152600D01*
X206307Y148039D01*
X206305Y148035D01*
X206301Y147994D01*
X206294Y147972D01*
X206295Y147940D01*
X206287Y147869D01*
X206287Y104629D01*
X206298Y104559D01*
X206300Y104487D01*
X206318Y104438D01*
X206326Y104387D01*
X206360Y104323D01*
X206385Y104256D01*
X206417Y104215D01*
X206442Y104169D01*
X206494Y104120D01*
X206538Y104064D01*
X206582Y104036D01*
X206620Y104000D01*
X206685Y103970D01*
X206745Y103931D01*
X206796Y103918D01*
X206843Y103896D01*
X206914Y103888D01*
X206984Y103871D01*
X207036Y103875D01*
X207087Y103869D01*
X207158Y103884D01*
X207229Y103890D01*
X207277Y103910D01*
X207328Y103921D01*
X207389Y103958D01*
X207455Y103986D01*
X207511Y104031D01*
X207539Y104048D01*
X207554Y104065D01*
X207586Y104091D01*
X209802Y106307D01*
X214198Y106307D01*
X216995Y103510D01*
X217069Y103457D01*
X217139Y103397D01*
X217169Y103385D01*
X217195Y103366D01*
X217282Y103339D01*
X217367Y103305D01*
X217408Y103301D01*
X217430Y103294D01*
X217462Y103295D01*
X217533Y103287D01*
X233947Y103287D01*
X237176Y100058D01*
X237234Y100016D01*
X237286Y99967D01*
X237333Y99945D01*
X237375Y99915D01*
X237444Y99894D01*
X237509Y99863D01*
X237561Y99858D01*
X237611Y99842D01*
X237682Y99844D01*
X237753Y99836D01*
X237804Y99847D01*
X237856Y99849D01*
X237924Y99873D01*
X237994Y99888D01*
X238039Y99915D01*
X238087Y99933D01*
X238143Y99978D01*
X238205Y100015D01*
X238239Y100054D01*
X238279Y100087D01*
X238318Y100147D01*
X238365Y100202D01*
X238384Y100250D01*
X238412Y100294D01*
X238430Y100363D01*
X238457Y100430D01*
X238465Y100501D01*
X238473Y100532D01*
X238471Y100556D01*
X238475Y100596D01*
X238475Y149439D01*
X238464Y149509D01*
X238462Y149581D01*
X238444Y149630D01*
X238436Y149681D01*
X238402Y149745D01*
X238377Y149812D01*
X238345Y149853D01*
X238320Y149899D01*
X238268Y149948D01*
X238224Y150004D01*
X238180Y150032D01*
X238142Y150068D01*
X238077Y150098D01*
X238017Y150137D01*
X237966Y150150D01*
X237919Y150172D01*
X237848Y150180D01*
X237778Y150197D01*
X237726Y150193D01*
X237675Y150199D01*
X237604Y150184D01*
X237533Y150178D01*
X237485Y150158D01*
X237434Y150147D01*
X237373Y150110D01*
X237307Y150082D01*
X237251Y150037D01*
X237223Y150020D01*
X237208Y150003D01*
X237176Y149977D01*
X236892Y149693D01*
X232655Y149693D01*
X232584Y149682D01*
X232512Y149680D01*
X232463Y149662D01*
X232412Y149654D01*
X232349Y149620D01*
X232281Y149595D01*
X232241Y149563D01*
X232195Y149538D01*
X232145Y149486D01*
X232089Y149442D01*
X232061Y149398D01*
X232025Y149360D01*
X231995Y149295D01*
X231956Y149235D01*
X231944Y149184D01*
X231922Y149137D01*
X231914Y149066D01*
X231896Y148996D01*
X231900Y148944D01*
X231895Y148893D01*
X231910Y148822D01*
X231915Y148751D01*
X231936Y148703D01*
X231947Y148652D01*
X231984Y148591D01*
X232012Y148525D01*
X232056Y148469D01*
X232073Y148441D01*
X232091Y148426D01*
X232116Y148394D01*
X234399Y146112D01*
X235907Y142471D01*
X235907Y138529D01*
X234399Y134888D01*
X231612Y132101D01*
X227971Y130593D01*
X224029Y130593D01*
X220388Y132101D01*
X217601Y134888D01*
X216093Y138529D01*
X216093Y142471D01*
X217601Y146112D01*
X220388Y148899D01*
X224029Y150407D01*
X227971Y150407D01*
X230942Y149176D01*
X231037Y149154D01*
X231130Y149125D01*
X231156Y149126D01*
X231182Y149120D01*
X231278Y149129D01*
X231376Y149131D01*
X231400Y149140D01*
X231426Y149143D01*
X231515Y149182D01*
X231607Y149216D01*
X231627Y149232D01*
X231651Y149243D01*
X231723Y149309D01*
X231799Y149370D01*
X231813Y149392D01*
X231832Y149409D01*
X231879Y149495D01*
X231932Y149576D01*
X231938Y149602D01*
X231951Y149625D01*
X231968Y149721D01*
X231992Y149815D01*
X231990Y149841D01*
X231995Y149867D01*
X231980Y149963D01*
X231973Y150060D01*
X231963Y150084D01*
X231959Y150110D01*
X231915Y150197D01*
X231876Y150287D01*
X231856Y150312D01*
X231847Y150329D01*
X231824Y150353D01*
X231772Y150417D01*
X229387Y152802D01*
X229387Y157198D01*
X232184Y159995D01*
X232237Y160069D01*
X232297Y160139D01*
X232309Y160169D01*
X232328Y160195D01*
X232355Y160282D01*
X232389Y160367D01*
X232393Y160408D01*
X232400Y160430D01*
X232399Y160462D01*
X232407Y160533D01*
X232407Y278466D01*
X232393Y278556D01*
X232385Y278647D01*
X232373Y278677D01*
X232368Y278708D01*
X232325Y278789D01*
X232289Y278873D01*
X232263Y278905D01*
X232252Y278926D01*
X232229Y278948D01*
X232184Y279004D01*
X224007Y287181D01*
X223933Y287235D01*
X223863Y287294D01*
X223833Y287306D01*
X223807Y287325D01*
X223720Y287352D01*
X223635Y287386D01*
X223594Y287390D01*
X223572Y287397D01*
X223540Y287396D01*
X223469Y287404D01*
X219513Y287404D01*
X216404Y290513D01*
X216404Y294909D01*
X219513Y298018D01*
X223909Y298018D01*
X227018Y294909D01*
X227018Y290954D01*
X227033Y290864D01*
X227040Y290773D01*
X227052Y290743D01*
X227058Y290711D01*
X227100Y290630D01*
X227136Y290546D01*
X227162Y290514D01*
X227173Y290494D01*
X227196Y290471D01*
X227241Y290415D01*
X235418Y282238D01*
X237176Y280480D01*
X237234Y280439D01*
X237286Y280389D01*
X237333Y280367D01*
X237375Y280337D01*
X237444Y280316D01*
X237509Y280286D01*
X237561Y280280D01*
X237611Y280265D01*
X237682Y280266D01*
X237753Y280258D01*
X237804Y280270D01*
X237856Y280271D01*
X237924Y280296D01*
X237994Y280311D01*
X238039Y280337D01*
X238087Y280355D01*
X238143Y280400D01*
X238205Y280437D01*
X238239Y280476D01*
X238279Y280509D01*
X238318Y280569D01*
X238365Y280624D01*
X238384Y280672D01*
X238412Y280716D01*
X238430Y280785D01*
X238457Y280852D01*
X238465Y280923D01*
X238473Y280954D01*
X238471Y280978D01*
X238475Y281019D01*
X238475Y477714D01*
X238472Y477734D01*
X238474Y477753D01*
X238452Y477855D01*
X238436Y477957D01*
X238426Y477974D01*
X238422Y477994D01*
X238369Y478083D01*
X238320Y478174D01*
X238306Y478188D01*
X238296Y478205D01*
X238217Y478272D01*
X238142Y478344D01*
X238124Y478352D01*
X238109Y478365D01*
X238013Y478404D01*
X237919Y478447D01*
X237899Y478449D01*
X237881Y478457D01*
X237714Y478475D01*
X2286Y478475D01*
X2266Y478472D01*
X2247Y478474D01*
X2145Y478452D01*
X2043Y478436D01*
X2026Y478426D01*
X2006Y478422D01*
X1917Y478369D01*
X1826Y478320D01*
X1812Y478306D01*
X1795Y478296D01*
X1728Y478217D01*
X1656Y478142D01*
X1648Y478124D01*
X1635Y478109D01*
X1596Y478013D01*
X1553Y477919D01*
X1551Y477899D01*
X1543Y477881D01*
X1525Y477714D01*
X1525Y425561D01*
X1536Y425491D01*
X1538Y425419D01*
X1556Y425370D01*
X1564Y425319D01*
X1598Y425255D01*
X1623Y425188D01*
X1655Y425147D01*
X1680Y425101D01*
X1732Y425052D01*
X1776Y424996D01*
X1820Y424968D01*
X1858Y424932D01*
X1923Y424902D01*
X1983Y424863D01*
X2034Y424850D01*
X2081Y424828D01*
X2152Y424820D01*
X2222Y424803D01*
X2274Y424807D01*
X2325Y424801D01*
X2396Y424816D01*
X2467Y424822D01*
X2515Y424842D01*
X2566Y424853D01*
X2627Y424890D01*
X2693Y424918D01*
X2749Y424963D01*
X2777Y424980D01*
X2792Y424997D01*
X2824Y425023D01*
X3108Y425307D01*
X7504Y425307D01*
X10613Y422198D01*
X10613Y417802D01*
X7504Y414693D01*
X5334Y414693D01*
X5314Y414690D01*
X5295Y414692D01*
X5193Y414670D01*
X5091Y414654D01*
X5074Y414644D01*
X5054Y414640D01*
X4965Y414587D01*
X4874Y414538D01*
X4860Y414524D01*
X4843Y414514D01*
X4776Y414435D01*
X4704Y414360D01*
X4696Y414342D01*
X4683Y414327D01*
X4644Y414231D01*
X4601Y414137D01*
X4599Y414117D01*
X4591Y414099D01*
X4573Y413932D01*
X4573Y286544D01*
X4584Y286474D01*
X4586Y286402D01*
X4604Y286353D01*
X4612Y286302D01*
X4646Y286238D01*
X4671Y286171D01*
X4703Y286130D01*
X4728Y286084D01*
X4780Y286035D01*
X4824Y285979D01*
X4868Y285951D01*
X4906Y285915D01*
X4971Y285885D01*
X5031Y285846D01*
X5082Y285833D01*
X5129Y285811D01*
X5200Y285803D01*
X5270Y285786D01*
X5322Y285790D01*
X5373Y285784D01*
X5444Y285799D01*
X5515Y285805D01*
X5563Y285825D01*
X5614Y285836D01*
X5675Y285873D01*
X5741Y285901D01*
X5797Y285946D01*
X5825Y285963D01*
X5840Y285980D01*
X5872Y286006D01*
X7153Y287287D01*
X54737Y287287D01*
X54828Y287301D01*
X54918Y287309D01*
X54948Y287321D01*
X54980Y287326D01*
X55061Y287369D01*
X55145Y287405D01*
X55177Y287431D01*
X55198Y287442D01*
X55220Y287465D01*
X55276Y287510D01*
X70470Y302704D01*
X70523Y302778D01*
X70583Y302848D01*
X70595Y302878D01*
X70614Y302904D01*
X70641Y302991D01*
X70675Y303076D01*
X70679Y303117D01*
X70686Y303139D01*
X70685Y303171D01*
X70693Y303243D01*
X70693Y307198D01*
X73802Y310307D01*
X78198Y310307D01*
X81307Y307198D01*
X81307Y302802D01*
X78198Y299693D01*
X74243Y299693D01*
X74152Y299679D01*
X74062Y299671D01*
X74032Y299659D01*
X74000Y299654D01*
X73919Y299611D01*
X73835Y299575D01*
X73803Y299549D01*
X73782Y299538D01*
X73760Y299515D01*
X73704Y299470D01*
X56947Y282713D01*
X9362Y282713D01*
X9272Y282699D01*
X9181Y282691D01*
X9152Y282679D01*
X9120Y282674D01*
X9039Y282631D01*
X8955Y282595D01*
X8923Y282569D01*
X8902Y282558D01*
X8880Y282535D01*
X8824Y282490D01*
X8590Y282256D01*
X8537Y282182D01*
X8477Y282112D01*
X8465Y282082D01*
X8446Y282056D01*
X8419Y281969D01*
X8385Y281884D01*
X8381Y281843D01*
X8374Y281821D01*
X8375Y281789D01*
X8367Y281717D01*
X8367Y111134D01*
X8369Y111119D01*
X8368Y111105D01*
X8382Y111041D01*
X8389Y110953D01*
X8401Y110923D01*
X8406Y110891D01*
X8420Y110866D01*
X8420Y110865D01*
X8423Y110860D01*
X8449Y110810D01*
X8485Y110727D01*
X8511Y110694D01*
X8522Y110674D01*
X8545Y110652D01*
X8590Y110596D01*
X9882Y109304D01*
X9956Y109251D01*
X10025Y109191D01*
X10055Y109179D01*
X10081Y109160D01*
X10168Y109133D01*
X10253Y109099D01*
X10294Y109095D01*
X10316Y109088D01*
X10349Y109089D01*
X10420Y109081D01*
X105375Y109081D01*
X115287Y99169D01*
X115287Y90831D01*
X110169Y85713D01*
X27263Y85713D01*
X27172Y85699D01*
X27082Y85691D01*
X27052Y85679D01*
X27020Y85674D01*
X26939Y85631D01*
X26855Y85595D01*
X26823Y85569D01*
X26802Y85558D01*
X26780Y85535D01*
X26724Y85490D01*
X19510Y78276D01*
X18145Y76911D01*
X18135Y76898D01*
X18123Y76888D01*
X18064Y76798D01*
X18001Y76711D01*
X17996Y76696D01*
X17988Y76682D01*
X17960Y76578D01*
X17929Y76476D01*
X17929Y76460D01*
X17925Y76445D01*
X17932Y76337D01*
X17935Y76230D01*
X17941Y76215D01*
X17942Y76199D01*
X17982Y76100D01*
X18020Y75999D01*
X18030Y75986D01*
X18036Y75972D01*
X18106Y75891D01*
X18173Y75807D01*
X18187Y75798D01*
X18197Y75786D01*
X18337Y75694D01*
X19225Y75242D01*
X20616Y74231D01*
X21831Y73016D01*
X22842Y71625D01*
X23622Y70093D01*
X24154Y68458D01*
X24318Y67423D01*
X14262Y67423D01*
X14242Y67420D01*
X14223Y67422D01*
X14121Y67400D01*
X14019Y67383D01*
X14002Y67374D01*
X13982Y67370D01*
X13893Y67317D01*
X13802Y67268D01*
X13788Y67254D01*
X13771Y67244D01*
X13704Y67165D01*
X13633Y67090D01*
X13624Y67072D01*
X13611Y67057D01*
X13573Y66961D01*
X13529Y66867D01*
X13527Y66847D01*
X13519Y66829D01*
X13501Y66662D01*
X13501Y65899D01*
X12738Y65899D01*
X12718Y65896D01*
X12699Y65898D01*
X12597Y65876D01*
X12495Y65859D01*
X12478Y65850D01*
X12458Y65846D01*
X12369Y65793D01*
X12278Y65744D01*
X12264Y65730D01*
X12247Y65720D01*
X12180Y65641D01*
X12109Y65566D01*
X12100Y65548D01*
X12087Y65533D01*
X12048Y65437D01*
X12005Y65343D01*
X12003Y65323D01*
X11995Y65305D01*
X11977Y65138D01*
X11977Y55082D01*
X10942Y55246D01*
X9307Y55778D01*
X7775Y56558D01*
X6624Y57395D01*
X6567Y57423D01*
X6515Y57461D01*
X6458Y57478D01*
X6404Y57505D01*
X6341Y57514D01*
X6280Y57533D01*
X6220Y57531D01*
X6161Y57540D01*
X6098Y57528D01*
X6034Y57527D01*
X5978Y57506D01*
X5919Y57495D01*
X5863Y57464D01*
X5803Y57442D01*
X5756Y57405D01*
X5704Y57376D01*
X5661Y57328D01*
X5611Y57288D01*
X5578Y57238D01*
X5538Y57194D01*
X5512Y57135D01*
X5478Y57082D01*
X5463Y57023D01*
X5439Y56969D01*
X5433Y56905D01*
X5418Y56843D01*
X5422Y56783D01*
X5417Y56724D01*
X5432Y56661D01*
X5437Y56598D01*
X5460Y56543D01*
X5474Y56484D01*
X5508Y56430D01*
X5533Y56371D01*
X5587Y56304D01*
X5605Y56276D01*
X5623Y56259D01*
X5638Y56240D01*
X17027Y44852D01*
X17100Y44799D01*
X17170Y44739D01*
X17200Y44727D01*
X17226Y44708D01*
X17313Y44682D01*
X17398Y44648D01*
X17439Y44643D01*
X17461Y44636D01*
X17494Y44637D01*
X17565Y44629D01*
X21520Y44629D01*
X24629Y41520D01*
X24629Y37124D01*
X21520Y34016D01*
X17124Y34016D01*
X14016Y37124D01*
X14016Y41080D01*
X14001Y41170D01*
X13994Y41261D01*
X13981Y41291D01*
X13976Y41323D01*
X13933Y41403D01*
X13897Y41487D01*
X13872Y41519D01*
X13861Y41540D01*
X13837Y41562D01*
X13793Y41618D01*
X2824Y52586D01*
X2766Y52628D01*
X2714Y52678D01*
X2667Y52700D01*
X2625Y52730D01*
X2556Y52751D01*
X2491Y52781D01*
X2439Y52787D01*
X2389Y52802D01*
X2318Y52800D01*
X2247Y52808D01*
X2196Y52797D01*
X2144Y52796D01*
X2076Y52771D01*
X2006Y52756D01*
X1961Y52729D01*
X1913Y52712D01*
X1857Y52667D01*
X1795Y52630D01*
X1761Y52590D01*
X1721Y52558D01*
X1682Y52498D01*
X1635Y52443D01*
X1616Y52395D01*
X1588Y52351D01*
X1570Y52281D01*
X1543Y52215D01*
X1535Y52144D01*
X1527Y52112D01*
X1529Y52089D01*
X1525Y52048D01*
X1525Y2286D01*
X1528Y2266D01*
X1526Y2247D01*
X1548Y2145D01*
X1564Y2043D01*
X1574Y2026D01*
X1578Y2006D01*
X1631Y1917D01*
X1680Y1826D01*
X1694Y1812D01*
X1704Y1795D01*
X1783Y1728D01*
X1858Y1656D01*
X1876Y1648D01*
X1891Y1635D01*
X1987Y1596D01*
X2081Y1553D01*
X2101Y1551D01*
X2119Y1543D01*
X2286Y1525D01*
X126404Y1525D01*
X126474Y1536D01*
G37*
%LPC*%
G36*
X144702Y182693D02*
X144702Y182693D01*
X141593Y185802D01*
X141593Y190198D01*
X144390Y192995D01*
X144443Y193069D01*
X144503Y193139D01*
X144515Y193169D01*
X144534Y193195D01*
X144561Y193282D01*
X144595Y193367D01*
X144599Y193408D01*
X144606Y193430D01*
X144605Y193462D01*
X144613Y193533D01*
X144613Y213203D01*
X144597Y213304D01*
X144586Y213407D01*
X144577Y213426D01*
X144574Y213446D01*
X144526Y213537D01*
X144482Y213630D01*
X144466Y213649D01*
X144458Y213663D01*
X144435Y213686D01*
X144374Y213758D01*
X122339Y234485D01*
X122273Y234529D01*
X122212Y234581D01*
X122171Y234597D01*
X122135Y234622D01*
X122058Y234643D01*
X121984Y234673D01*
X121926Y234679D01*
X121898Y234687D01*
X121870Y234685D01*
X121817Y234691D01*
X117617Y234691D01*
X114508Y237800D01*
X114508Y242196D01*
X117617Y245305D01*
X122013Y245305D01*
X125122Y242196D01*
X125122Y238475D01*
X125138Y238373D01*
X125149Y238271D01*
X125158Y238252D01*
X125161Y238232D01*
X125209Y238141D01*
X125252Y238048D01*
X125269Y238028D01*
X125276Y238015D01*
X125300Y237992D01*
X125361Y237920D01*
X147587Y217014D01*
X147653Y216970D01*
X147713Y216918D01*
X147753Y216902D01*
X148484Y216170D01*
X148492Y216165D01*
X148501Y216154D01*
X149187Y215509D01*
X149187Y214567D01*
X149188Y214558D01*
X149187Y214544D01*
X149219Y213512D01*
X149205Y213479D01*
X149199Y213421D01*
X149191Y213393D01*
X149193Y213365D01*
X149187Y213312D01*
X149187Y193533D01*
X149201Y193443D01*
X149209Y193352D01*
X149221Y193323D01*
X149226Y193291D01*
X149269Y193210D01*
X149305Y193126D01*
X149331Y193094D01*
X149342Y193073D01*
X149365Y193051D01*
X149410Y192995D01*
X152207Y190198D01*
X152207Y185802D01*
X149098Y182693D01*
X144702Y182693D01*
G37*
%LPD*%
%LPC*%
G36*
X224029Y105193D02*
X224029Y105193D01*
X220388Y106701D01*
X217601Y109488D01*
X216093Y113129D01*
X216093Y117071D01*
X217601Y120712D01*
X220388Y123499D01*
X224029Y125007D01*
X227971Y125007D01*
X231612Y123499D01*
X234399Y120712D01*
X235907Y117071D01*
X235907Y113129D01*
X234399Y109488D01*
X231612Y106701D01*
X227971Y105193D01*
X224029Y105193D01*
G37*
%LPD*%
%LPC*%
G36*
X85694Y3795D02*
X85694Y3795D01*
X83281Y4795D01*
X81435Y6641D01*
X80435Y9054D01*
X80435Y21746D01*
X81435Y24159D01*
X83281Y26005D01*
X85694Y27005D01*
X88306Y27005D01*
X90719Y26005D01*
X92565Y24159D01*
X93565Y21746D01*
X93565Y9054D01*
X92565Y6641D01*
X90719Y4795D01*
X88306Y3795D01*
X85694Y3795D01*
G37*
%LPD*%
%LPC*%
G36*
X146802Y102693D02*
X146802Y102693D01*
X143693Y105802D01*
X143693Y110198D01*
X146802Y113307D01*
X150757Y113307D01*
X150848Y113321D01*
X150938Y113329D01*
X150968Y113341D01*
X151000Y113346D01*
X151081Y113389D01*
X151165Y113425D01*
X151197Y113451D01*
X151218Y113462D01*
X151240Y113485D01*
X151296Y113530D01*
X158490Y120724D01*
X158543Y120798D01*
X158603Y120868D01*
X158615Y120898D01*
X158634Y120924D01*
X158661Y121011D01*
X158695Y121096D01*
X158699Y121137D01*
X158706Y121159D01*
X158705Y121191D01*
X158713Y121263D01*
X158713Y124467D01*
X158699Y124557D01*
X158691Y124648D01*
X158679Y124677D01*
X158674Y124709D01*
X158631Y124790D01*
X158595Y124874D01*
X158569Y124906D01*
X158558Y124927D01*
X158535Y124949D01*
X158490Y125005D01*
X155693Y127802D01*
X155693Y132198D01*
X158802Y135307D01*
X163198Y135307D01*
X166307Y132198D01*
X166307Y127802D01*
X163510Y125005D01*
X163457Y124931D01*
X163397Y124861D01*
X163385Y124831D01*
X163366Y124805D01*
X163339Y124718D01*
X163305Y124633D01*
X163301Y124592D01*
X163294Y124570D01*
X163295Y124538D01*
X163287Y124467D01*
X163287Y119053D01*
X154530Y110296D01*
X154477Y110222D01*
X154417Y110152D01*
X154405Y110122D01*
X154386Y110096D01*
X154359Y110009D01*
X154325Y109924D01*
X154321Y109883D01*
X154314Y109861D01*
X154315Y109829D01*
X154307Y109757D01*
X154307Y105802D01*
X151198Y102693D01*
X146802Y102693D01*
G37*
%LPD*%
%LPC*%
G36*
X183516Y72693D02*
X183516Y72693D01*
X180403Y75807D01*
X180384Y75891D01*
X180368Y75993D01*
X180358Y76010D01*
X180354Y76030D01*
X180301Y76119D01*
X180252Y76210D01*
X180238Y76224D01*
X180228Y76241D01*
X180149Y76308D01*
X180074Y76380D01*
X180056Y76388D01*
X180041Y76401D01*
X179945Y76440D01*
X179851Y76483D01*
X179831Y76485D01*
X179813Y76493D01*
X179646Y76511D01*
X177619Y76511D01*
X177529Y76497D01*
X177438Y76489D01*
X177409Y76477D01*
X177377Y76472D01*
X177296Y76429D01*
X177212Y76393D01*
X177180Y76367D01*
X177159Y76356D01*
X177137Y76333D01*
X177081Y76288D01*
X174284Y73491D01*
X169888Y73491D01*
X166779Y76600D01*
X166779Y80996D01*
X169888Y84105D01*
X174284Y84105D01*
X177081Y81308D01*
X177155Y81255D01*
X177225Y81195D01*
X177255Y81183D01*
X177281Y81164D01*
X177368Y81137D01*
X177453Y81103D01*
X177494Y81099D01*
X177516Y81092D01*
X177548Y81093D01*
X177619Y81085D01*
X180979Y81085D01*
X181069Y81099D01*
X181160Y81107D01*
X181189Y81119D01*
X181221Y81124D01*
X181302Y81167D01*
X181386Y81203D01*
X181418Y81229D01*
X181439Y81240D01*
X181461Y81263D01*
X181517Y81308D01*
X183516Y83307D01*
X187912Y83307D01*
X191021Y80198D01*
X191021Y75802D01*
X187912Y72693D01*
X183516Y72693D01*
G37*
%LPD*%
%LPC*%
G36*
X215182Y15023D02*
X215182Y15023D01*
X215346Y16058D01*
X215878Y17693D01*
X216658Y19225D01*
X217669Y20616D01*
X218884Y21831D01*
X220275Y22842D01*
X221807Y23622D01*
X223442Y24154D01*
X224477Y24318D01*
X224477Y15023D01*
X215182Y15023D01*
G37*
%LPD*%
%LPC*%
G36*
X15023Y64377D02*
X15023Y64377D01*
X24318Y64377D01*
X24154Y63342D01*
X23622Y61707D01*
X22842Y60175D01*
X21831Y58784D01*
X20616Y57569D01*
X19225Y56558D01*
X17693Y55778D01*
X16058Y55246D01*
X15023Y55082D01*
X15023Y64377D01*
G37*
%LPD*%
%LPC*%
G36*
X93324Y399549D02*
X93324Y399549D01*
X93324Y405466D01*
X94092Y405313D01*
X94138Y405311D01*
X94182Y405301D01*
X94260Y405307D01*
X94338Y405305D01*
X94382Y405318D01*
X94427Y405322D01*
X94499Y405353D01*
X94573Y405375D01*
X94611Y405402D01*
X94653Y405420D01*
X94711Y405472D01*
X94774Y405517D01*
X94801Y405554D01*
X94835Y405585D01*
X94874Y405653D01*
X94919Y405715D01*
X94933Y405759D01*
X94956Y405799D01*
X94970Y405876D01*
X94994Y405950D01*
X94993Y405996D01*
X95001Y406041D01*
X94990Y406177D01*
X94989Y406196D01*
X94988Y406201D01*
X94987Y406208D01*
X94834Y406976D01*
X100751Y406976D01*
X100751Y401059D01*
X99983Y401212D01*
X99937Y401214D01*
X99893Y401224D01*
X99815Y401218D01*
X99737Y401220D01*
X99693Y401207D01*
X99648Y401203D01*
X99576Y401172D01*
X99502Y401150D01*
X99464Y401123D01*
X99422Y401105D01*
X99364Y401053D01*
X99301Y401008D01*
X99274Y400971D01*
X99240Y400940D01*
X99201Y400872D01*
X99156Y400810D01*
X99142Y400766D01*
X99119Y400726D01*
X99105Y400649D01*
X99081Y400575D01*
X99082Y400529D01*
X99074Y400484D01*
X99085Y400348D01*
X99086Y400329D01*
X99087Y400324D01*
X99088Y400317D01*
X99241Y399549D01*
X93324Y399549D01*
G37*
%LPD*%
%LPC*%
G36*
X111674Y399549D02*
X111674Y399549D01*
X111674Y405466D01*
X112442Y405313D01*
X112488Y405311D01*
X112532Y405301D01*
X112610Y405307D01*
X112688Y405305D01*
X112732Y405318D01*
X112777Y405322D01*
X112849Y405353D01*
X112923Y405375D01*
X112961Y405402D01*
X113003Y405420D01*
X113061Y405472D01*
X113124Y405517D01*
X113151Y405554D01*
X113185Y405585D01*
X113224Y405653D01*
X113269Y405715D01*
X113283Y405759D01*
X113306Y405799D01*
X113320Y405876D01*
X113344Y405950D01*
X113343Y405996D01*
X113351Y406041D01*
X113340Y406177D01*
X113339Y406196D01*
X113338Y406201D01*
X113337Y406208D01*
X113184Y406976D01*
X119101Y406976D01*
X119101Y401059D01*
X118333Y401212D01*
X118287Y401214D01*
X118243Y401224D01*
X118165Y401218D01*
X118087Y401220D01*
X118043Y401207D01*
X117998Y401203D01*
X117926Y401172D01*
X117852Y401150D01*
X117814Y401123D01*
X117772Y401105D01*
X117714Y401053D01*
X117651Y401008D01*
X117624Y400971D01*
X117590Y400940D01*
X117551Y400872D01*
X117506Y400810D01*
X117492Y400766D01*
X117469Y400726D01*
X117455Y400649D01*
X117431Y400575D01*
X117432Y400529D01*
X117424Y400484D01*
X117435Y400348D01*
X117436Y400329D01*
X117437Y400324D01*
X117438Y400317D01*
X117591Y399549D01*
X111674Y399549D01*
G37*
%LPD*%
%LPC*%
G36*
X120849Y372024D02*
X120849Y372024D01*
X120849Y377941D01*
X121617Y377788D01*
X121663Y377786D01*
X121707Y377776D01*
X121785Y377782D01*
X121863Y377780D01*
X121907Y377793D01*
X121952Y377797D01*
X122024Y377828D01*
X122098Y377850D01*
X122136Y377877D01*
X122178Y377895D01*
X122236Y377947D01*
X122299Y377992D01*
X122326Y378029D01*
X122360Y378060D01*
X122399Y378128D01*
X122444Y378190D01*
X122458Y378234D01*
X122481Y378274D01*
X122495Y378351D01*
X122519Y378425D01*
X122518Y378471D01*
X122526Y378516D01*
X122515Y378652D01*
X122514Y378671D01*
X122513Y378676D01*
X122512Y378683D01*
X122359Y379451D01*
X128276Y379451D01*
X128276Y373534D01*
X127508Y373687D01*
X127462Y373689D01*
X127418Y373699D01*
X127340Y373693D01*
X127262Y373695D01*
X127218Y373682D01*
X127173Y373678D01*
X127101Y373647D01*
X127027Y373625D01*
X126989Y373598D01*
X126947Y373580D01*
X126889Y373528D01*
X126826Y373483D01*
X126799Y373446D01*
X126765Y373415D01*
X126726Y373347D01*
X126681Y373285D01*
X126667Y373241D01*
X126644Y373201D01*
X126630Y373124D01*
X126606Y373050D01*
X126607Y373004D01*
X126599Y372959D01*
X126610Y372823D01*
X126611Y372804D01*
X126612Y372799D01*
X126613Y372792D01*
X126766Y372024D01*
X120849Y372024D01*
G37*
%LPD*%
%LPC*%
G36*
X102499Y372024D02*
X102499Y372024D01*
X102499Y377941D01*
X103267Y377788D01*
X103313Y377786D01*
X103357Y377776D01*
X103435Y377782D01*
X103513Y377780D01*
X103557Y377793D01*
X103602Y377797D01*
X103674Y377828D01*
X103748Y377850D01*
X103786Y377877D01*
X103828Y377895D01*
X103886Y377947D01*
X103949Y377992D01*
X103976Y378029D01*
X104010Y378060D01*
X104049Y378128D01*
X104094Y378190D01*
X104108Y378234D01*
X104131Y378274D01*
X104145Y378351D01*
X104169Y378425D01*
X104168Y378471D01*
X104176Y378516D01*
X104165Y378652D01*
X104164Y378671D01*
X104163Y378676D01*
X104162Y378683D01*
X104009Y379451D01*
X109926Y379451D01*
X109926Y373534D01*
X109158Y373687D01*
X109112Y373689D01*
X109068Y373699D01*
X108990Y373693D01*
X108912Y373695D01*
X108868Y373682D01*
X108823Y373678D01*
X108751Y373647D01*
X108677Y373625D01*
X108639Y373598D01*
X108597Y373580D01*
X108539Y373528D01*
X108476Y373483D01*
X108449Y373446D01*
X108415Y373415D01*
X108376Y373347D01*
X108331Y373285D01*
X108317Y373241D01*
X108294Y373201D01*
X108280Y373124D01*
X108256Y373050D01*
X108257Y373004D01*
X108249Y372959D01*
X108260Y372823D01*
X108261Y372804D01*
X108262Y372799D01*
X108263Y372792D01*
X108416Y372024D01*
X102499Y372024D01*
G37*
%LPD*%
%LPC*%
G36*
X111674Y381199D02*
X111674Y381199D01*
X111674Y387116D01*
X112442Y386963D01*
X112488Y386961D01*
X112532Y386951D01*
X112610Y386957D01*
X112688Y386955D01*
X112732Y386968D01*
X112777Y386972D01*
X112849Y387003D01*
X112923Y387025D01*
X112961Y387052D01*
X113003Y387070D01*
X113061Y387122D01*
X113124Y387167D01*
X113151Y387204D01*
X113185Y387235D01*
X113224Y387303D01*
X113269Y387365D01*
X113283Y387409D01*
X113306Y387449D01*
X113320Y387526D01*
X113344Y387600D01*
X113343Y387646D01*
X113351Y387691D01*
X113340Y387827D01*
X113339Y387846D01*
X113338Y387851D01*
X113337Y387858D01*
X113184Y388626D01*
X119101Y388626D01*
X119101Y382709D01*
X118333Y382862D01*
X118287Y382864D01*
X118243Y382874D01*
X118165Y382868D01*
X118087Y382870D01*
X118043Y382857D01*
X117998Y382853D01*
X117926Y382822D01*
X117852Y382800D01*
X117814Y382773D01*
X117772Y382755D01*
X117714Y382703D01*
X117651Y382658D01*
X117624Y382621D01*
X117590Y382590D01*
X117551Y382522D01*
X117506Y382460D01*
X117492Y382416D01*
X117469Y382376D01*
X117455Y382299D01*
X117431Y382225D01*
X117432Y382179D01*
X117424Y382134D01*
X117435Y381998D01*
X117436Y381979D01*
X117437Y381974D01*
X117438Y381967D01*
X117591Y381199D01*
X111674Y381199D01*
G37*
%LPD*%
%LPC*%
G36*
X93324Y381199D02*
X93324Y381199D01*
X93324Y387116D01*
X94092Y386963D01*
X94138Y386961D01*
X94182Y386951D01*
X94260Y386957D01*
X94338Y386955D01*
X94382Y386968D01*
X94427Y386972D01*
X94499Y387003D01*
X94573Y387025D01*
X94611Y387052D01*
X94653Y387070D01*
X94711Y387122D01*
X94774Y387167D01*
X94801Y387204D01*
X94835Y387235D01*
X94874Y387303D01*
X94919Y387365D01*
X94933Y387409D01*
X94956Y387449D01*
X94970Y387526D01*
X94994Y387600D01*
X94993Y387646D01*
X95001Y387691D01*
X94990Y387827D01*
X94989Y387846D01*
X94988Y387851D01*
X94987Y387858D01*
X94834Y388626D01*
X100751Y388626D01*
X100751Y382709D01*
X99983Y382862D01*
X99937Y382864D01*
X99893Y382874D01*
X99815Y382868D01*
X99737Y382870D01*
X99693Y382857D01*
X99648Y382853D01*
X99576Y382822D01*
X99502Y382800D01*
X99464Y382773D01*
X99422Y382755D01*
X99364Y382703D01*
X99301Y382658D01*
X99274Y382621D01*
X99240Y382590D01*
X99201Y382522D01*
X99156Y382460D01*
X99142Y382416D01*
X99119Y382376D01*
X99105Y382299D01*
X99081Y382225D01*
X99082Y382179D01*
X99074Y382134D01*
X99085Y381998D01*
X99086Y381979D01*
X99087Y381974D01*
X99088Y381967D01*
X99241Y381199D01*
X93324Y381199D01*
G37*
%LPD*%
%LPC*%
G36*
X113184Y372024D02*
X113184Y372024D01*
X113337Y372792D01*
X113339Y372838D01*
X113349Y372882D01*
X113343Y372960D01*
X113345Y373038D01*
X113332Y373082D01*
X113328Y373127D01*
X113297Y373199D01*
X113275Y373273D01*
X113248Y373311D01*
X113230Y373353D01*
X113178Y373411D01*
X113133Y373474D01*
X113096Y373501D01*
X113065Y373535D01*
X112997Y373574D01*
X112935Y373619D01*
X112891Y373633D01*
X112851Y373656D01*
X112774Y373670D01*
X112700Y373694D01*
X112654Y373693D01*
X112609Y373701D01*
X112473Y373690D01*
X112454Y373689D01*
X112449Y373688D01*
X112442Y373687D01*
X111674Y373534D01*
X111674Y379451D01*
X117591Y379451D01*
X117438Y378683D01*
X117436Y378637D01*
X117426Y378593D01*
X117432Y378515D01*
X117430Y378437D01*
X117443Y378393D01*
X117447Y378348D01*
X117478Y378276D01*
X117500Y378202D01*
X117527Y378164D01*
X117545Y378122D01*
X117597Y378064D01*
X117642Y378001D01*
X117679Y377974D01*
X117710Y377940D01*
X117778Y377901D01*
X117840Y377856D01*
X117884Y377842D01*
X117924Y377819D01*
X118001Y377805D01*
X118075Y377781D01*
X118121Y377782D01*
X118166Y377774D01*
X118302Y377785D01*
X118321Y377786D01*
X118326Y377787D01*
X118333Y377788D01*
X119101Y377941D01*
X119101Y372024D01*
X113184Y372024D01*
G37*
%LPD*%
%LPC*%
G36*
X104009Y381199D02*
X104009Y381199D01*
X104162Y381967D01*
X104164Y382013D01*
X104174Y382057D01*
X104168Y382135D01*
X104170Y382213D01*
X104157Y382257D01*
X104153Y382302D01*
X104122Y382374D01*
X104100Y382448D01*
X104073Y382486D01*
X104055Y382528D01*
X104003Y382586D01*
X103958Y382649D01*
X103921Y382676D01*
X103890Y382710D01*
X103822Y382749D01*
X103760Y382794D01*
X103716Y382808D01*
X103676Y382831D01*
X103599Y382845D01*
X103525Y382869D01*
X103479Y382868D01*
X103434Y382876D01*
X103298Y382865D01*
X103279Y382864D01*
X103274Y382863D01*
X103267Y382862D01*
X102499Y382709D01*
X102499Y388626D01*
X108416Y388626D01*
X108263Y387858D01*
X108261Y387812D01*
X108251Y387768D01*
X108257Y387690D01*
X108255Y387612D01*
X108268Y387568D01*
X108272Y387523D01*
X108303Y387451D01*
X108325Y387377D01*
X108352Y387339D01*
X108370Y387297D01*
X108422Y387239D01*
X108467Y387176D01*
X108504Y387149D01*
X108535Y387115D01*
X108603Y387076D01*
X108665Y387031D01*
X108709Y387017D01*
X108749Y386994D01*
X108826Y386980D01*
X108900Y386956D01*
X108946Y386957D01*
X108991Y386949D01*
X109127Y386960D01*
X109146Y386961D01*
X109151Y386962D01*
X109158Y386963D01*
X109926Y387116D01*
X109926Y381199D01*
X104009Y381199D01*
G37*
%LPD*%
%LPC*%
G36*
X104009Y399549D02*
X104009Y399549D01*
X104162Y400317D01*
X104164Y400363D01*
X104174Y400407D01*
X104168Y400485D01*
X104170Y400563D01*
X104157Y400607D01*
X104153Y400652D01*
X104122Y400724D01*
X104100Y400798D01*
X104073Y400836D01*
X104055Y400878D01*
X104003Y400936D01*
X103958Y400999D01*
X103921Y401026D01*
X103890Y401060D01*
X103822Y401099D01*
X103760Y401144D01*
X103716Y401158D01*
X103676Y401181D01*
X103599Y401195D01*
X103525Y401219D01*
X103479Y401218D01*
X103434Y401226D01*
X103298Y401215D01*
X103279Y401214D01*
X103274Y401213D01*
X103267Y401212D01*
X102499Y401059D01*
X102499Y406976D01*
X108416Y406976D01*
X108263Y406208D01*
X108261Y406162D01*
X108251Y406118D01*
X108257Y406040D01*
X108255Y405962D01*
X108268Y405918D01*
X108272Y405873D01*
X108303Y405801D01*
X108325Y405727D01*
X108352Y405689D01*
X108370Y405647D01*
X108422Y405589D01*
X108467Y405526D01*
X108504Y405499D01*
X108535Y405465D01*
X108603Y405426D01*
X108665Y405381D01*
X108709Y405367D01*
X108749Y405344D01*
X108826Y405330D01*
X108900Y405306D01*
X108946Y405307D01*
X108991Y405299D01*
X109127Y405310D01*
X109146Y405311D01*
X109151Y405312D01*
X109158Y405313D01*
X109926Y405466D01*
X109926Y399549D01*
X104009Y399549D01*
G37*
%LPD*%
%LPC*%
G36*
X122359Y381199D02*
X122359Y381199D01*
X122512Y381967D01*
X122514Y382013D01*
X122524Y382057D01*
X122518Y382135D01*
X122520Y382213D01*
X122507Y382257D01*
X122503Y382302D01*
X122472Y382374D01*
X122450Y382448D01*
X122423Y382486D01*
X122405Y382528D01*
X122353Y382586D01*
X122308Y382649D01*
X122271Y382676D01*
X122240Y382710D01*
X122172Y382749D01*
X122110Y382794D01*
X122066Y382808D01*
X122026Y382831D01*
X121949Y382845D01*
X121875Y382869D01*
X121829Y382868D01*
X121784Y382876D01*
X121648Y382865D01*
X121629Y382864D01*
X121624Y382863D01*
X121617Y382862D01*
X120849Y382709D01*
X120849Y388626D01*
X126766Y388626D01*
X126613Y387858D01*
X126611Y387812D01*
X126601Y387768D01*
X126607Y387690D01*
X126605Y387612D01*
X126618Y387568D01*
X126622Y387523D01*
X126653Y387451D01*
X126675Y387377D01*
X126702Y387339D01*
X126720Y387297D01*
X126772Y387239D01*
X126817Y387176D01*
X126854Y387149D01*
X126885Y387115D01*
X126953Y387076D01*
X127015Y387031D01*
X127059Y387017D01*
X127099Y386994D01*
X127176Y386980D01*
X127250Y386956D01*
X127296Y386957D01*
X127341Y386949D01*
X127477Y386960D01*
X127496Y386961D01*
X127501Y386962D01*
X127508Y386963D01*
X128276Y387116D01*
X128276Y381199D01*
X122359Y381199D01*
G37*
%LPD*%
%LPC*%
G36*
X122359Y399549D02*
X122359Y399549D01*
X122512Y400317D01*
X122514Y400363D01*
X122524Y400407D01*
X122518Y400485D01*
X122520Y400563D01*
X122507Y400607D01*
X122503Y400652D01*
X122472Y400724D01*
X122450Y400798D01*
X122423Y400836D01*
X122405Y400878D01*
X122353Y400936D01*
X122308Y400999D01*
X122271Y401026D01*
X122240Y401060D01*
X122172Y401099D01*
X122110Y401144D01*
X122066Y401158D01*
X122026Y401181D01*
X121949Y401195D01*
X121875Y401219D01*
X121829Y401218D01*
X121784Y401226D01*
X121648Y401215D01*
X121629Y401214D01*
X121624Y401213D01*
X121617Y401212D01*
X120849Y401059D01*
X120849Y406976D01*
X126766Y406976D01*
X126613Y406208D01*
X126611Y406162D01*
X126601Y406118D01*
X126607Y406040D01*
X126605Y405962D01*
X126618Y405918D01*
X126622Y405873D01*
X126653Y405801D01*
X126675Y405727D01*
X126702Y405689D01*
X126720Y405647D01*
X126772Y405589D01*
X126817Y405526D01*
X126854Y405499D01*
X126885Y405465D01*
X126953Y405426D01*
X127015Y405381D01*
X127059Y405367D01*
X127099Y405344D01*
X127176Y405330D01*
X127250Y405306D01*
X127296Y405307D01*
X127341Y405299D01*
X127477Y405310D01*
X127496Y405311D01*
X127501Y405312D01*
X127508Y405313D01*
X128276Y405466D01*
X128276Y399549D01*
X122359Y399549D01*
G37*
%LPD*%
%LPC*%
G36*
X94834Y372024D02*
X94834Y372024D01*
X94987Y372792D01*
X94989Y372838D01*
X94999Y372882D01*
X94993Y372960D01*
X94995Y373038D01*
X94982Y373082D01*
X94978Y373127D01*
X94947Y373199D01*
X94925Y373273D01*
X94898Y373311D01*
X94880Y373353D01*
X94828Y373411D01*
X94783Y373474D01*
X94746Y373501D01*
X94715Y373535D01*
X94647Y373574D01*
X94585Y373619D01*
X94541Y373633D01*
X94501Y373656D01*
X94424Y373670D01*
X94350Y373694D01*
X94304Y373693D01*
X94259Y373701D01*
X94123Y373690D01*
X94104Y373689D01*
X94099Y373688D01*
X94092Y373687D01*
X93324Y373534D01*
X93324Y379451D01*
X99241Y379451D01*
X99088Y378683D01*
X99086Y378637D01*
X99076Y378593D01*
X99082Y378515D01*
X99080Y378437D01*
X99093Y378393D01*
X99097Y378348D01*
X99128Y378276D01*
X99150Y378202D01*
X99177Y378164D01*
X99195Y378122D01*
X99247Y378064D01*
X99292Y378001D01*
X99329Y377974D01*
X99360Y377940D01*
X99428Y377901D01*
X99490Y377856D01*
X99534Y377842D01*
X99574Y377819D01*
X99651Y377805D01*
X99725Y377781D01*
X99771Y377782D01*
X99816Y377774D01*
X99952Y377785D01*
X99971Y377786D01*
X99976Y377787D01*
X99983Y377788D01*
X100751Y377941D01*
X100751Y372024D01*
X94834Y372024D01*
G37*
%LPD*%
%LPC*%
G36*
X120849Y390374D02*
X120849Y390374D01*
X120849Y396291D01*
X121617Y396138D01*
X121663Y396136D01*
X121707Y396126D01*
X121785Y396132D01*
X121863Y396130D01*
X121907Y396143D01*
X121952Y396147D01*
X122024Y396178D01*
X122098Y396200D01*
X122136Y396227D01*
X122178Y396245D01*
X122236Y396297D01*
X122299Y396342D01*
X122326Y396379D01*
X122360Y396410D01*
X122399Y396478D01*
X122444Y396540D01*
X122458Y396584D01*
X122481Y396624D01*
X122495Y396701D01*
X122519Y396775D01*
X122518Y396821D01*
X122526Y396866D01*
X122515Y397002D01*
X122514Y397021D01*
X122513Y397026D01*
X122512Y397033D01*
X122359Y397801D01*
X128276Y397801D01*
X128276Y391884D01*
X127508Y392037D01*
X127462Y392039D01*
X127418Y392049D01*
X127377Y392046D01*
X127361Y392046D01*
X127342Y392043D01*
X127340Y392043D01*
X127262Y392045D01*
X127218Y392032D01*
X127173Y392028D01*
X127124Y392007D01*
X127118Y392006D01*
X127101Y391997D01*
X127027Y391975D01*
X126989Y391948D01*
X126947Y391930D01*
X126908Y391895D01*
X126901Y391891D01*
X126886Y391875D01*
X126826Y391833D01*
X126799Y391796D01*
X126765Y391765D01*
X126741Y391723D01*
X126731Y391713D01*
X126720Y391688D01*
X126681Y391635D01*
X126667Y391591D01*
X126644Y391551D01*
X126636Y391508D01*
X126628Y391490D01*
X126624Y391455D01*
X126606Y391400D01*
X126607Y391354D01*
X126599Y391309D01*
X126602Y391263D01*
X126601Y391245D01*
X126606Y391218D01*
X126610Y391173D01*
X126611Y391154D01*
X126612Y391149D01*
X126613Y391142D01*
X126766Y390374D01*
X120849Y390374D01*
G37*
%LPD*%
%LPC*%
G36*
X102499Y390374D02*
X102499Y390374D01*
X102499Y396291D01*
X103267Y396138D01*
X103313Y396136D01*
X103357Y396126D01*
X103435Y396132D01*
X103513Y396130D01*
X103557Y396143D01*
X103602Y396147D01*
X103674Y396178D01*
X103748Y396200D01*
X103786Y396227D01*
X103828Y396245D01*
X103886Y396297D01*
X103949Y396342D01*
X103976Y396379D01*
X104010Y396410D01*
X104049Y396478D01*
X104094Y396540D01*
X104108Y396584D01*
X104131Y396624D01*
X104145Y396701D01*
X104169Y396775D01*
X104168Y396821D01*
X104176Y396866D01*
X104165Y397002D01*
X104164Y397021D01*
X104163Y397026D01*
X104162Y397033D01*
X104009Y397801D01*
X109926Y397801D01*
X109926Y391884D01*
X109158Y392037D01*
X109112Y392039D01*
X109068Y392049D01*
X109027Y392046D01*
X109011Y392046D01*
X108992Y392043D01*
X108990Y392043D01*
X108912Y392045D01*
X108868Y392032D01*
X108823Y392028D01*
X108774Y392007D01*
X108768Y392006D01*
X108751Y391997D01*
X108677Y391975D01*
X108639Y391948D01*
X108597Y391930D01*
X108558Y391895D01*
X108551Y391891D01*
X108536Y391875D01*
X108476Y391833D01*
X108449Y391796D01*
X108415Y391765D01*
X108391Y391723D01*
X108381Y391713D01*
X108370Y391688D01*
X108331Y391635D01*
X108317Y391591D01*
X108294Y391551D01*
X108286Y391508D01*
X108278Y391490D01*
X108274Y391455D01*
X108256Y391400D01*
X108257Y391354D01*
X108249Y391309D01*
X108252Y391263D01*
X108251Y391245D01*
X108256Y391218D01*
X108260Y391173D01*
X108261Y391154D01*
X108262Y391149D01*
X108263Y391142D01*
X108416Y390374D01*
X102499Y390374D01*
G37*
%LPD*%
%LPC*%
G36*
X113184Y390374D02*
X113184Y390374D01*
X113337Y391142D01*
X113339Y391188D01*
X113349Y391232D01*
X113345Y391284D01*
X113350Y391324D01*
X113344Y391349D01*
X113345Y391388D01*
X113332Y391432D01*
X113328Y391477D01*
X113304Y391533D01*
X113297Y391565D01*
X113288Y391580D01*
X113275Y391623D01*
X113248Y391661D01*
X113230Y391703D01*
X113184Y391754D01*
X113171Y391776D01*
X113162Y391784D01*
X113133Y391824D01*
X113096Y391851D01*
X113065Y391885D01*
X113000Y391922D01*
X112984Y391936D01*
X112977Y391939D01*
X112935Y391969D01*
X112891Y391983D01*
X112851Y392006D01*
X112774Y392020D01*
X112756Y392028D01*
X112749Y392028D01*
X112700Y392044D01*
X112654Y392043D01*
X112609Y392051D01*
X112473Y392040D01*
X112454Y392039D01*
X112449Y392038D01*
X112442Y392037D01*
X111674Y391884D01*
X111674Y397801D01*
X117591Y397801D01*
X117438Y397033D01*
X117436Y396987D01*
X117426Y396943D01*
X117432Y396865D01*
X117430Y396787D01*
X117443Y396743D01*
X117447Y396698D01*
X117478Y396626D01*
X117500Y396552D01*
X117527Y396514D01*
X117545Y396472D01*
X117597Y396414D01*
X117642Y396351D01*
X117679Y396324D01*
X117710Y396290D01*
X117778Y396251D01*
X117840Y396206D01*
X117884Y396192D01*
X117924Y396169D01*
X118001Y396155D01*
X118075Y396131D01*
X118121Y396132D01*
X118166Y396124D01*
X118302Y396135D01*
X118321Y396136D01*
X118326Y396137D01*
X118333Y396138D01*
X119101Y396291D01*
X119101Y390374D01*
X113184Y390374D01*
G37*
%LPD*%
%LPC*%
G36*
X94834Y390374D02*
X94834Y390374D01*
X94987Y391142D01*
X94989Y391188D01*
X94999Y391232D01*
X94995Y391284D01*
X95000Y391324D01*
X94994Y391349D01*
X94995Y391388D01*
X94982Y391432D01*
X94978Y391477D01*
X94954Y391533D01*
X94947Y391565D01*
X94938Y391580D01*
X94925Y391623D01*
X94898Y391661D01*
X94880Y391703D01*
X94834Y391754D01*
X94821Y391776D01*
X94812Y391784D01*
X94783Y391824D01*
X94746Y391851D01*
X94715Y391885D01*
X94650Y391922D01*
X94634Y391936D01*
X94627Y391939D01*
X94585Y391969D01*
X94541Y391983D01*
X94501Y392006D01*
X94424Y392020D01*
X94406Y392028D01*
X94399Y392028D01*
X94350Y392044D01*
X94304Y392043D01*
X94259Y392051D01*
X94123Y392040D01*
X94104Y392039D01*
X94099Y392038D01*
X94092Y392037D01*
X93324Y391884D01*
X93324Y397801D01*
X99241Y397801D01*
X99088Y397033D01*
X99086Y396987D01*
X99076Y396943D01*
X99082Y396865D01*
X99080Y396787D01*
X99093Y396743D01*
X99097Y396698D01*
X99128Y396626D01*
X99150Y396552D01*
X99177Y396514D01*
X99195Y396472D01*
X99247Y396414D01*
X99292Y396351D01*
X99329Y396324D01*
X99360Y396290D01*
X99428Y396251D01*
X99490Y396206D01*
X99534Y396192D01*
X99574Y396169D01*
X99651Y396155D01*
X99725Y396131D01*
X99771Y396132D01*
X99816Y396124D01*
X99952Y396135D01*
X99971Y396136D01*
X99976Y396137D01*
X99983Y396138D01*
X100751Y396291D01*
X100751Y390374D01*
X94834Y390374D01*
G37*
%LPD*%
%LPC*%
G36*
X173161Y100261D02*
X173161Y100261D01*
X173161Y106058D01*
X174142Y105863D01*
X174188Y105862D01*
X174232Y105851D01*
X174310Y105857D01*
X174387Y105855D01*
X174431Y105868D01*
X174477Y105872D01*
X174549Y105903D01*
X174623Y105925D01*
X174661Y105952D01*
X174703Y105970D01*
X174760Y106022D01*
X174824Y106067D01*
X174851Y106104D01*
X174885Y106135D01*
X174923Y106203D01*
X174969Y106266D01*
X174983Y106309D01*
X175006Y106350D01*
X175020Y106426D01*
X175043Y106500D01*
X175043Y106546D01*
X175051Y106591D01*
X175039Y106728D01*
X175039Y106746D01*
X175037Y106751D01*
X175037Y106758D01*
X174842Y107739D01*
X180639Y107739D01*
X180639Y101942D01*
X179658Y102137D01*
X179612Y102138D01*
X179568Y102149D01*
X179490Y102143D01*
X179413Y102145D01*
X179369Y102132D01*
X179323Y102128D01*
X179251Y102097D01*
X179177Y102075D01*
X179139Y102048D01*
X179097Y102030D01*
X179040Y101978D01*
X178976Y101933D01*
X178949Y101896D01*
X178915Y101865D01*
X178877Y101797D01*
X178831Y101734D01*
X178817Y101691D01*
X178794Y101650D01*
X178780Y101574D01*
X178757Y101500D01*
X178757Y101454D01*
X178749Y101409D01*
X178761Y101272D01*
X178761Y101254D01*
X178763Y101249D01*
X178763Y101242D01*
X178958Y100261D01*
X173161Y100261D01*
G37*
%LPD*%
%LPC*%
G36*
X183842Y100261D02*
X183842Y100261D01*
X184037Y101242D01*
X184038Y101288D01*
X184049Y101332D01*
X184043Y101410D01*
X184045Y101487D01*
X184032Y101531D01*
X184028Y101577D01*
X183997Y101649D01*
X183975Y101723D01*
X183948Y101761D01*
X183930Y101803D01*
X183878Y101860D01*
X183833Y101924D01*
X183796Y101951D01*
X183765Y101985D01*
X183697Y102023D01*
X183634Y102069D01*
X183591Y102083D01*
X183550Y102106D01*
X183474Y102120D01*
X183400Y102143D01*
X183354Y102143D01*
X183309Y102151D01*
X183172Y102139D01*
X183154Y102139D01*
X183149Y102137D01*
X183142Y102137D01*
X182161Y101942D01*
X182161Y107739D01*
X187958Y107739D01*
X187763Y106758D01*
X187762Y106712D01*
X187751Y106668D01*
X187757Y106590D01*
X187755Y106513D01*
X187768Y106469D01*
X187772Y106423D01*
X187803Y106351D01*
X187825Y106277D01*
X187852Y106239D01*
X187870Y106197D01*
X187922Y106140D01*
X187967Y106076D01*
X188004Y106049D01*
X188035Y106015D01*
X188103Y105977D01*
X188166Y105931D01*
X188209Y105917D01*
X188250Y105894D01*
X188326Y105880D01*
X188400Y105857D01*
X188446Y105857D01*
X188491Y105849D01*
X188628Y105861D01*
X188646Y105861D01*
X188651Y105863D01*
X188658Y105863D01*
X189639Y106058D01*
X189639Y100261D01*
X183842Y100261D01*
G37*
%LPD*%
%LPC*%
G36*
X182161Y109261D02*
X182161Y109261D01*
X182161Y115058D01*
X183142Y114863D01*
X183188Y114862D01*
X183232Y114851D01*
X183310Y114857D01*
X183387Y114855D01*
X183431Y114868D01*
X183477Y114872D01*
X183549Y114903D01*
X183623Y114925D01*
X183661Y114952D01*
X183703Y114970D01*
X183760Y115022D01*
X183824Y115067D01*
X183851Y115104D01*
X183885Y115135D01*
X183923Y115203D01*
X183969Y115266D01*
X183983Y115309D01*
X184006Y115350D01*
X184020Y115426D01*
X184043Y115500D01*
X184043Y115546D01*
X184051Y115591D01*
X184039Y115728D01*
X184039Y115746D01*
X184037Y115751D01*
X184037Y115758D01*
X183842Y116739D01*
X189639Y116739D01*
X189639Y110942D01*
X188658Y111137D01*
X188612Y111138D01*
X188568Y111149D01*
X188516Y111145D01*
X188511Y111145D01*
X188506Y111144D01*
X188490Y111143D01*
X188413Y111145D01*
X188369Y111132D01*
X188323Y111128D01*
X188271Y111105D01*
X188268Y111105D01*
X188262Y111102D01*
X188251Y111097D01*
X188177Y111075D01*
X188139Y111048D01*
X188097Y111030D01*
X188056Y110992D01*
X188051Y110990D01*
X188039Y110978D01*
X187976Y110933D01*
X187949Y110896D01*
X187915Y110865D01*
X187889Y110820D01*
X187882Y110812D01*
X187872Y110790D01*
X187831Y110734D01*
X187817Y110691D01*
X187794Y110650D01*
X187786Y110606D01*
X187778Y110588D01*
X187775Y110557D01*
X187757Y110500D01*
X187757Y110454D01*
X187749Y110409D01*
X187753Y110361D01*
X187751Y110344D01*
X187757Y110318D01*
X187761Y110272D01*
X187761Y110254D01*
X187763Y110249D01*
X187763Y110242D01*
X187958Y109261D01*
X182161Y109261D01*
G37*
%LPD*%
%LPC*%
G36*
X174842Y109261D02*
X174842Y109261D01*
X175037Y110242D01*
X175038Y110288D01*
X175049Y110332D01*
X175045Y110384D01*
X175049Y110423D01*
X175044Y110447D01*
X175045Y110487D01*
X175032Y110531D01*
X175028Y110577D01*
X175003Y110635D01*
X174997Y110663D01*
X174988Y110677D01*
X174975Y110723D01*
X174948Y110761D01*
X174930Y110803D01*
X174881Y110856D01*
X174871Y110874D01*
X174864Y110880D01*
X174833Y110924D01*
X174796Y110951D01*
X174765Y110985D01*
X174697Y111023D01*
X174694Y111025D01*
X174684Y111034D01*
X174680Y111036D01*
X174634Y111069D01*
X174591Y111083D01*
X174550Y111106D01*
X174474Y111120D01*
X174461Y111124D01*
X174456Y111126D01*
X174453Y111127D01*
X174400Y111143D01*
X174354Y111143D01*
X174309Y111151D01*
X174172Y111139D01*
X174154Y111139D01*
X174149Y111137D01*
X174142Y111137D01*
X173161Y110942D01*
X173161Y116739D01*
X178958Y116739D01*
X178763Y115758D01*
X178762Y115712D01*
X178751Y115668D01*
X178757Y115590D01*
X178755Y115513D01*
X178768Y115469D01*
X178772Y115423D01*
X178803Y115351D01*
X178825Y115277D01*
X178852Y115239D01*
X178870Y115197D01*
X178922Y115140D01*
X178967Y115076D01*
X179004Y115049D01*
X179035Y115015D01*
X179103Y114977D01*
X179166Y114931D01*
X179209Y114917D01*
X179250Y114894D01*
X179326Y114880D01*
X179400Y114857D01*
X179446Y114857D01*
X179491Y114849D01*
X179628Y114861D01*
X179646Y114861D01*
X179651Y114863D01*
X179658Y114863D01*
X180639Y115058D01*
X180639Y109261D01*
X174842Y109261D01*
G37*
%LPD*%
%LPC*%
G36*
X102499Y408724D02*
X102499Y408724D01*
X102499Y414641D01*
X103617Y414418D01*
X104861Y413903D01*
X105979Y413156D01*
X106931Y412204D01*
X107678Y411086D01*
X108193Y409842D01*
X108416Y408724D01*
X102499Y408724D01*
G37*
%LPD*%
%LPC*%
G36*
X130024Y381199D02*
X130024Y381199D01*
X130024Y387116D01*
X131142Y386893D01*
X132386Y386378D01*
X133504Y385631D01*
X134456Y384679D01*
X135203Y383561D01*
X135718Y382317D01*
X135941Y381199D01*
X130024Y381199D01*
G37*
%LPD*%
%LPC*%
G36*
X120849Y408724D02*
X120849Y408724D01*
X120849Y414641D01*
X121967Y414418D01*
X123211Y413903D01*
X124329Y413156D01*
X125281Y412204D01*
X126028Y411086D01*
X126543Y409842D01*
X126766Y408724D01*
X120849Y408724D01*
G37*
%LPD*%
%LPC*%
G36*
X130024Y399549D02*
X130024Y399549D01*
X130024Y405466D01*
X131142Y405243D01*
X132386Y404728D01*
X133504Y403981D01*
X134456Y403029D01*
X135203Y401911D01*
X135718Y400667D01*
X135941Y399549D01*
X130024Y399549D01*
G37*
%LPD*%
%LPC*%
G36*
X120849Y370276D02*
X120849Y370276D01*
X126766Y370276D01*
X126543Y369158D01*
X126028Y367914D01*
X125281Y366796D01*
X124329Y365844D01*
X123211Y365097D01*
X121967Y364582D01*
X120849Y364359D01*
X120849Y370276D01*
G37*
%LPD*%
%LPC*%
G36*
X130024Y397801D02*
X130024Y397801D01*
X135941Y397801D01*
X135718Y396683D01*
X135203Y395439D01*
X134456Y394321D01*
X133504Y393369D01*
X132386Y392622D01*
X131142Y392107D01*
X130024Y391884D01*
X130024Y397801D01*
G37*
%LPD*%
%LPC*%
G36*
X113184Y408724D02*
X113184Y408724D01*
X113407Y409842D01*
X113922Y411086D01*
X114669Y412204D01*
X115621Y413156D01*
X116739Y413903D01*
X117983Y414418D01*
X119101Y414641D01*
X119101Y408724D01*
X113184Y408724D01*
G37*
%LPD*%
%LPC*%
G36*
X94834Y408724D02*
X94834Y408724D01*
X95057Y409842D01*
X95572Y411086D01*
X96319Y412204D01*
X97271Y413156D01*
X98389Y413903D01*
X99633Y414418D01*
X100751Y414641D01*
X100751Y408724D01*
X94834Y408724D01*
G37*
%LPD*%
%LPC*%
G36*
X85659Y381199D02*
X85659Y381199D01*
X85882Y382317D01*
X86397Y383561D01*
X87144Y384679D01*
X88096Y385631D01*
X89214Y386378D01*
X90458Y386893D01*
X91576Y387116D01*
X91576Y381199D01*
X85659Y381199D01*
G37*
%LPD*%
%LPC*%
G36*
X85659Y399549D02*
X85659Y399549D01*
X85882Y400667D01*
X86397Y401911D01*
X87144Y403029D01*
X88096Y403981D01*
X89214Y404728D01*
X90458Y405243D01*
X91576Y405466D01*
X91576Y399549D01*
X85659Y399549D01*
G37*
%LPD*%
%LPC*%
G36*
X130024Y379451D02*
X130024Y379451D01*
X135941Y379451D01*
X135718Y378333D01*
X135203Y377089D01*
X134456Y375971D01*
X133504Y375019D01*
X132386Y374272D01*
X131142Y373757D01*
X130024Y373534D01*
X130024Y379451D01*
G37*
%LPD*%
%LPC*%
G36*
X102499Y370276D02*
X102499Y370276D01*
X108416Y370276D01*
X108193Y369158D01*
X107678Y367914D01*
X106931Y366796D01*
X105979Y365844D01*
X104861Y365097D01*
X103617Y364582D01*
X102499Y364359D01*
X102499Y370276D01*
G37*
%LPD*%
%LPC*%
G36*
X90458Y373757D02*
X90458Y373757D01*
X89214Y374272D01*
X88096Y375019D01*
X87144Y375971D01*
X86397Y377089D01*
X85882Y378333D01*
X85659Y379451D01*
X91576Y379451D01*
X91576Y373534D01*
X90458Y373757D01*
G37*
%LPD*%
%LPC*%
G36*
X90458Y392107D02*
X90458Y392107D01*
X89214Y392622D01*
X88096Y393369D01*
X87144Y394321D01*
X86397Y395439D01*
X85882Y396683D01*
X85659Y397801D01*
X91576Y397801D01*
X91576Y391884D01*
X90458Y392107D01*
G37*
%LPD*%
%LPC*%
G36*
X99633Y364582D02*
X99633Y364582D01*
X98389Y365097D01*
X97271Y365844D01*
X96319Y366796D01*
X95572Y367914D01*
X95057Y369158D01*
X94834Y370276D01*
X100751Y370276D01*
X100751Y364359D01*
X99633Y364582D01*
G37*
%LPD*%
%LPC*%
G36*
X117983Y364582D02*
X117983Y364582D01*
X116739Y365097D01*
X115621Y365844D01*
X114669Y366796D01*
X113922Y367914D01*
X113407Y369158D01*
X113184Y370276D01*
X119101Y370276D01*
X119101Y364359D01*
X117983Y364582D01*
G37*
%LPD*%
%LPC*%
G36*
X191161Y118261D02*
X191161Y118261D01*
X191161Y124058D01*
X192320Y123828D01*
X193517Y123332D01*
X194595Y122612D01*
X195512Y121695D01*
X196232Y120617D01*
X196728Y119420D01*
X196958Y118261D01*
X191161Y118261D01*
G37*
%LPD*%
%LPC*%
G36*
X173161Y118261D02*
X173161Y118261D01*
X173161Y124058D01*
X174320Y123828D01*
X175517Y123332D01*
X176595Y122612D01*
X177512Y121695D01*
X178232Y120617D01*
X178728Y119420D01*
X178958Y118261D01*
X173161Y118261D01*
G37*
%LPD*%
%LPC*%
G36*
X191161Y100261D02*
X191161Y100261D01*
X191161Y106058D01*
X192320Y105828D01*
X193517Y105332D01*
X194595Y104612D01*
X195512Y103695D01*
X196232Y102617D01*
X196728Y101420D01*
X196958Y100261D01*
X191161Y100261D01*
G37*
%LPD*%
%LPC*%
G36*
X165842Y100261D02*
X165842Y100261D01*
X166072Y101420D01*
X166568Y102617D01*
X167288Y103695D01*
X168205Y104612D01*
X169283Y105332D01*
X170480Y105828D01*
X171639Y106058D01*
X171639Y100261D01*
X165842Y100261D01*
G37*
%LPD*%
%LPC*%
G36*
X191161Y98739D02*
X191161Y98739D01*
X196958Y98739D01*
X196728Y97580D01*
X196232Y96383D01*
X195512Y95305D01*
X194595Y94388D01*
X193517Y93668D01*
X192320Y93172D01*
X191161Y92942D01*
X191161Y98739D01*
G37*
%LPD*%
%LPC*%
G36*
X173161Y98739D02*
X173161Y98739D01*
X178958Y98739D01*
X178728Y97580D01*
X178232Y96383D01*
X177512Y95305D01*
X176595Y94388D01*
X175517Y93668D01*
X174320Y93172D01*
X173161Y92942D01*
X173161Y98739D01*
G37*
%LPD*%
%LPC*%
G36*
X191161Y116739D02*
X191161Y116739D01*
X196958Y116739D01*
X196728Y115580D01*
X196232Y114383D01*
X195512Y113305D01*
X194595Y112388D01*
X193517Y111668D01*
X192320Y111172D01*
X191161Y110942D01*
X191161Y116739D01*
G37*
%LPD*%
%LPC*%
G36*
X165842Y118261D02*
X165842Y118261D01*
X166072Y119420D01*
X166568Y120617D01*
X167288Y121695D01*
X168205Y122612D01*
X169283Y123332D01*
X170480Y123828D01*
X171639Y124058D01*
X171639Y118261D01*
X165842Y118261D01*
G37*
%LPD*%
%LPC*%
G36*
X183842Y118261D02*
X183842Y118261D01*
X184072Y119420D01*
X184568Y120617D01*
X185288Y121695D01*
X186205Y122612D01*
X187283Y123332D01*
X188480Y123828D01*
X189639Y124058D01*
X189639Y118261D01*
X183842Y118261D01*
G37*
%LPD*%
%LPC*%
G36*
X170480Y93172D02*
X170480Y93172D01*
X169283Y93668D01*
X168205Y94388D01*
X167288Y95305D01*
X166568Y96383D01*
X166072Y97580D01*
X165842Y98739D01*
X171639Y98739D01*
X171639Y92942D01*
X170480Y93172D01*
G37*
%LPD*%
%LPC*%
G36*
X188480Y93172D02*
X188480Y93172D01*
X187283Y93668D01*
X186205Y94388D01*
X185288Y95305D01*
X184568Y96383D01*
X184072Y97580D01*
X183842Y98739D01*
X189639Y98739D01*
X189639Y92942D01*
X188480Y93172D01*
G37*
%LPD*%
%LPC*%
G36*
X170480Y111172D02*
X170480Y111172D01*
X169283Y111668D01*
X168205Y112388D01*
X167288Y113305D01*
X166568Y114383D01*
X166072Y115580D01*
X165842Y116739D01*
X171639Y116739D01*
X171639Y110942D01*
X170480Y111172D01*
G37*
%LPD*%
D10*
X87000Y10360D02*
X87000Y20440D01*
X153000Y20440D02*
X153000Y10360D01*
D11*
X13500Y91300D03*
X13500Y65900D03*
D12*
X101625Y407850D03*
X119975Y407850D03*
X92450Y398675D03*
X110800Y398675D03*
X129150Y398675D03*
X101625Y389500D03*
X119975Y389500D03*
X92450Y380325D03*
X110800Y380325D03*
X129150Y380325D03*
X101625Y371150D03*
X119975Y371150D03*
D13*
X181400Y108500D03*
X172400Y99500D03*
X172400Y117500D03*
X190400Y117500D03*
X190400Y99500D03*
D11*
X226000Y13500D03*
X226000Y38900D03*
X226000Y64300D03*
X226000Y89700D03*
X226000Y115100D03*
X226000Y140500D03*
D14*
X172086Y78798D03*
D15*
X184916Y78798D02*
X185714Y78000D01*
X184916Y78798D02*
X172086Y78798D01*
D14*
X185714Y78000D03*
X102000Y31000D03*
D15*
X130714Y2286D01*
D14*
X212000Y101000D03*
D15*
X237714Y6000D02*
X234000Y2286D01*
X237714Y6000D02*
X237714Y52586D01*
X226000Y64300D01*
X234000Y2286D02*
X130714Y2286D01*
X237714Y52586D02*
X237714Y96286D01*
X233000Y101000D02*
X212000Y101000D01*
X233000Y101000D02*
X237714Y96286D01*
D14*
X57000Y168000D03*
X51000Y175000D03*
X44000Y82000D03*
X45000Y54000D03*
X139000Y31000D03*
X120000Y30000D03*
X178000Y163000D03*
X188000Y153000D03*
X100000Y195000D03*
X13000Y212000D03*
X12000Y331000D03*
X200000Y210000D03*
X204000Y84000D03*
D15*
X204000Y147402D02*
X201000Y150402D01*
X204000Y147402D02*
X204000Y84000D01*
D14*
X201000Y150402D03*
X146900Y188000D03*
D15*
X146900Y214521D01*
X119815Y239998D01*
D14*
X119815Y239998D03*
X149000Y108000D03*
D15*
X161000Y120000D02*
X161000Y130000D01*
X161000Y120000D02*
X149000Y108000D01*
D14*
X161000Y130000D03*
X221711Y292711D03*
D15*
X234694Y279728D01*
X234694Y155000D01*
D14*
X234694Y155000D03*
D15*
X106000Y96000D02*
X99000Y103000D01*
D14*
X106000Y96000D03*
D15*
X2286Y107714D02*
X2286Y416980D01*
X2286Y107714D02*
X7000Y103000D01*
X99000Y103000D01*
D14*
X5306Y420000D03*
D15*
X2286Y416980D01*
X8100Y285000D02*
X6080Y282980D01*
X6080Y109871D02*
X9157Y106794D01*
X109222Y88000D02*
X113000Y91778D01*
X26000Y88000D02*
X17000Y79000D01*
X6080Y109871D02*
X6080Y282980D01*
X9157Y106794D02*
X104428Y106794D01*
X113000Y98222D01*
X113000Y91778D01*
X109222Y88000D02*
X26000Y88000D01*
X17000Y79000D02*
X6000Y79000D01*
X2286Y75286D01*
X2286Y56359D02*
X19322Y39322D01*
D14*
X19322Y39322D03*
D15*
X2286Y56359D02*
X2286Y75286D01*
D14*
X76000Y305000D03*
D15*
X56000Y285000D01*
X8100Y285000D01*
M02*
