M48
;GenerationSoftware,Autodesk,EAGLE,9.6.2*%
;CreationDate,2020-09-03T02:37:40Z*%
FMAT,2
ICI,OFF
METRIC,TZ,000.000
T4C0.300
T3C0.350
T2C0.500
T1C1.000
%
G90
M71
T1
X22600Y14050
X22600Y11510
X22600Y8970
X22600Y6430
X22600Y3890
X22600Y1350
X1350Y6590
X1350Y9130
T2
X8700Y1540
X15300Y1540
X8700Y1540
X15300Y1540
T3
X10000Y19500
X1300Y21200
X1200Y33100
X20000Y21000
X20400Y8400
X20100Y15040
X14690Y18800
X11981Y24000
X14900Y10800
X16100Y13000
X22171Y29271
X23469Y15500
X10600Y9600
X531Y42000
X1932Y3932
X7600Y30500
X13900Y3100
X18800Y15300
X17800Y16300
X12000Y3000
X4500Y5400
X4400Y8200
X10163Y40785
X11997Y40785
X9245Y39868
X11080Y39868
X12915Y39868
X10163Y38950
X11997Y38950
X9245Y38033
X11080Y38033
X12915Y38033
X10163Y37115
X11997Y37115
X17209Y7880
X18571Y7800
X10200Y3100
X21200Y10100
X5700Y16800
X5100Y17500
T4
X19040Y9950
X19040Y11750
X17240Y11750
X17240Y9950
X18140Y10850
M30