M48
;GenerationSoftware,Autodesk,EAGLE,9.6.2*%
;CreationDate,2020-08-20T05:28:45Z*%
FMAT,2
ICI,OFF
METRIC,TZ,000.000
T4C0.300
T3C0.350
T2C0.500
T1C1.000
%
G90
M71
T1
X22700Y14050
X22700Y11510
X22700Y8970
X22700Y6430
X22700Y3890
X22700Y1350
X1350Y6590
X1350Y9130
T2
X8700Y1540
X15300Y1540
X8700Y1540
X15300Y1540
T3
X10000Y19500
X1300Y21200
X1200Y33100
X20000Y21400
X20200Y8800
X20100Y15040
X14890Y19100
X12700Y23619
X15000Y10900
X16100Y12800
X22171Y29171
X23469Y15500
X10600Y9500
X531Y42000
X1932Y3632
X7600Y30500
X13900Y3000
X18800Y15300
X17800Y16300
X13000Y3000
X4500Y5400
X4400Y8200
X10163Y40785
X11997Y40785
X9245Y39868
X11080Y39868
X12915Y39868
X10163Y38950
X11997Y38950
X9245Y38033
X11080Y38033
X12915Y38033
X10163Y37115
X11997Y37115
X17309Y7980
X18471Y7900
X10700Y3000
X21200Y10100
X5700Y16800
X5100Y17500
T4
X19040Y9950
X19040Y11750
X17240Y11750
X17240Y9950
X18140Y10850
M30