G04 EAGLE Gerber RS-274X export*
G75*
%MOMM*%
%FSLAX34Y34*%
%LPD*%
%INSilkscreen Top*%
%IPPOS*%
%AMOC8*
5,1,8,0,0,1.08239X$1,22.5*%
G01*
%ADD10C,0.025400*%
%ADD11C,0.152400*%
%ADD12C,0.203200*%
%ADD13C,0.076200*%
%ADD14R,0.200000X1.000000*%
%ADD15C,0.127000*%
%ADD16C,0.200000*%
%ADD17C,0.000000*%
%ADD18C,0.050800*%

G36*
X81145Y129593D02*
X81145Y129593D01*
X81216Y129591D01*
X81286Y129610D01*
X81357Y129618D01*
X81412Y129643D01*
X81491Y129663D01*
X81594Y129724D01*
X81663Y129755D01*
X84663Y131755D01*
X84750Y131832D01*
X84840Y131905D01*
X84855Y131927D01*
X84875Y131945D01*
X84937Y132042D01*
X85004Y132137D01*
X85012Y132163D01*
X85027Y132185D01*
X85059Y132296D01*
X85097Y132406D01*
X85098Y132433D01*
X85105Y132458D01*
X85105Y132574D01*
X85111Y132690D01*
X85105Y132716D01*
X85105Y132743D01*
X85073Y132854D01*
X85047Y132967D01*
X85034Y132990D01*
X85026Y133016D01*
X84964Y133114D01*
X84908Y133215D01*
X84890Y133231D01*
X84875Y133256D01*
X84667Y133441D01*
X84663Y133445D01*
X81663Y135445D01*
X81599Y135476D01*
X81539Y135516D01*
X81471Y135537D01*
X81407Y135568D01*
X81336Y135580D01*
X81268Y135601D01*
X81197Y135603D01*
X81127Y135615D01*
X81055Y135607D01*
X80984Y135609D01*
X80915Y135591D01*
X80844Y135582D01*
X80778Y135555D01*
X80709Y135537D01*
X80648Y135500D01*
X80582Y135473D01*
X80526Y135428D01*
X80464Y135392D01*
X80415Y135340D01*
X80360Y135295D01*
X80319Y135237D01*
X80270Y135184D01*
X80237Y135121D01*
X80196Y135063D01*
X80173Y134995D01*
X80140Y134931D01*
X80130Y134872D01*
X80103Y134794D01*
X80097Y134675D01*
X80085Y134600D01*
X80085Y130600D01*
X80095Y130529D01*
X80095Y130457D01*
X80115Y130389D01*
X80125Y130319D01*
X80154Y130253D01*
X80174Y130184D01*
X80212Y130124D01*
X80241Y130059D01*
X80287Y130004D01*
X80325Y129944D01*
X80379Y129896D01*
X80425Y129842D01*
X80484Y129802D01*
X80538Y129755D01*
X80602Y129724D01*
X80661Y129685D01*
X80730Y129663D01*
X80794Y129632D01*
X80864Y129620D01*
X80932Y129599D01*
X81004Y129597D01*
X81075Y129585D01*
X81145Y129593D01*
G37*
G36*
X81645Y110593D02*
X81645Y110593D01*
X81716Y110591D01*
X81786Y110610D01*
X81857Y110618D01*
X81912Y110643D01*
X81991Y110663D01*
X82094Y110724D01*
X82163Y110755D01*
X85163Y112755D01*
X85250Y112832D01*
X85340Y112905D01*
X85355Y112927D01*
X85375Y112945D01*
X85437Y113042D01*
X85504Y113137D01*
X85512Y113163D01*
X85527Y113185D01*
X85559Y113296D01*
X85597Y113406D01*
X85598Y113433D01*
X85605Y113458D01*
X85605Y113574D01*
X85611Y113690D01*
X85605Y113716D01*
X85605Y113743D01*
X85573Y113854D01*
X85547Y113967D01*
X85534Y113990D01*
X85526Y114016D01*
X85464Y114114D01*
X85408Y114215D01*
X85390Y114231D01*
X85375Y114256D01*
X85167Y114441D01*
X85163Y114445D01*
X82163Y116445D01*
X82099Y116476D01*
X82039Y116516D01*
X81971Y116537D01*
X81907Y116568D01*
X81836Y116580D01*
X81768Y116601D01*
X81697Y116603D01*
X81627Y116615D01*
X81555Y116607D01*
X81484Y116609D01*
X81415Y116591D01*
X81344Y116582D01*
X81278Y116555D01*
X81209Y116537D01*
X81148Y116500D01*
X81082Y116473D01*
X81026Y116428D01*
X80964Y116392D01*
X80915Y116340D01*
X80860Y116295D01*
X80819Y116237D01*
X80770Y116184D01*
X80737Y116121D01*
X80696Y116063D01*
X80673Y115995D01*
X80640Y115931D01*
X80630Y115872D01*
X80603Y115794D01*
X80597Y115675D01*
X80585Y115600D01*
X80585Y111600D01*
X80595Y111529D01*
X80595Y111457D01*
X80615Y111389D01*
X80625Y111319D01*
X80654Y111253D01*
X80674Y111184D01*
X80712Y111124D01*
X80741Y111059D01*
X80787Y111004D01*
X80825Y110944D01*
X80879Y110896D01*
X80925Y110842D01*
X80984Y110802D01*
X81038Y110755D01*
X81102Y110724D01*
X81161Y110685D01*
X81230Y110663D01*
X81294Y110632D01*
X81364Y110620D01*
X81432Y110599D01*
X81504Y110597D01*
X81575Y110585D01*
X81645Y110593D01*
G37*
D10*
X3127Y201185D02*
X3127Y202879D01*
X3129Y202943D01*
X3135Y203007D01*
X3144Y203070D01*
X3158Y203132D01*
X3175Y203194D01*
X3196Y203254D01*
X3220Y203313D01*
X3248Y203371D01*
X3280Y203426D01*
X3314Y203480D01*
X3352Y203531D01*
X3393Y203581D01*
X3437Y203627D01*
X3483Y203671D01*
X3533Y203712D01*
X3584Y203750D01*
X3638Y203784D01*
X3693Y203816D01*
X3751Y203844D01*
X3810Y203868D01*
X3870Y203889D01*
X3932Y203906D01*
X3994Y203920D01*
X4057Y203929D01*
X4121Y203935D01*
X4185Y203937D01*
X4249Y203935D01*
X4313Y203929D01*
X4376Y203920D01*
X4438Y203906D01*
X4500Y203889D01*
X4560Y203868D01*
X4619Y203844D01*
X4677Y203816D01*
X4732Y203784D01*
X4786Y203750D01*
X4837Y203712D01*
X4887Y203671D01*
X4933Y203627D01*
X4977Y203581D01*
X5018Y203531D01*
X5056Y203480D01*
X5090Y203426D01*
X5122Y203371D01*
X5150Y203313D01*
X5174Y203254D01*
X5195Y203194D01*
X5212Y203132D01*
X5226Y203070D01*
X5235Y203007D01*
X5241Y202943D01*
X5243Y202879D01*
X5244Y202879D02*
X5244Y201185D01*
X5243Y201185D02*
X5241Y201121D01*
X5235Y201057D01*
X5226Y200994D01*
X5212Y200932D01*
X5195Y200870D01*
X5174Y200810D01*
X5150Y200751D01*
X5122Y200693D01*
X5090Y200638D01*
X5056Y200584D01*
X5018Y200533D01*
X4977Y200483D01*
X4933Y200437D01*
X4887Y200393D01*
X4837Y200352D01*
X4786Y200314D01*
X4732Y200280D01*
X4677Y200248D01*
X4619Y200220D01*
X4560Y200196D01*
X4500Y200175D01*
X4438Y200158D01*
X4376Y200144D01*
X4313Y200135D01*
X4249Y200129D01*
X4185Y200127D01*
X4121Y200129D01*
X4057Y200135D01*
X3994Y200144D01*
X3932Y200158D01*
X3870Y200175D01*
X3810Y200196D01*
X3751Y200220D01*
X3693Y200248D01*
X3638Y200280D01*
X3584Y200314D01*
X3533Y200352D01*
X3483Y200393D01*
X3437Y200437D01*
X3393Y200483D01*
X3352Y200533D01*
X3314Y200584D01*
X3280Y200638D01*
X3248Y200693D01*
X3220Y200751D01*
X3196Y200810D01*
X3175Y200870D01*
X3158Y200932D01*
X3144Y200994D01*
X3135Y201057D01*
X3129Y201121D01*
X3127Y201185D01*
X6907Y200127D02*
X6907Y203937D01*
X9023Y200127D01*
X9023Y203937D01*
X3127Y140879D02*
X3127Y139185D01*
X3127Y140879D02*
X3129Y140943D01*
X3135Y141007D01*
X3144Y141070D01*
X3158Y141132D01*
X3175Y141194D01*
X3196Y141254D01*
X3220Y141313D01*
X3248Y141371D01*
X3280Y141426D01*
X3314Y141480D01*
X3352Y141531D01*
X3393Y141581D01*
X3437Y141627D01*
X3483Y141671D01*
X3533Y141712D01*
X3584Y141750D01*
X3638Y141784D01*
X3693Y141816D01*
X3751Y141844D01*
X3810Y141868D01*
X3870Y141889D01*
X3932Y141906D01*
X3994Y141920D01*
X4057Y141929D01*
X4121Y141935D01*
X4185Y141937D01*
X4249Y141935D01*
X4313Y141929D01*
X4376Y141920D01*
X4438Y141906D01*
X4500Y141889D01*
X4560Y141868D01*
X4619Y141844D01*
X4677Y141816D01*
X4732Y141784D01*
X4786Y141750D01*
X4837Y141712D01*
X4887Y141671D01*
X4933Y141627D01*
X4977Y141581D01*
X5018Y141531D01*
X5056Y141480D01*
X5090Y141426D01*
X5122Y141371D01*
X5150Y141313D01*
X5174Y141254D01*
X5195Y141194D01*
X5212Y141132D01*
X5226Y141070D01*
X5235Y141007D01*
X5241Y140943D01*
X5243Y140879D01*
X5244Y140879D02*
X5244Y139185D01*
X5243Y139185D02*
X5241Y139121D01*
X5235Y139057D01*
X5226Y138994D01*
X5212Y138932D01*
X5195Y138870D01*
X5174Y138810D01*
X5150Y138751D01*
X5122Y138693D01*
X5090Y138638D01*
X5056Y138584D01*
X5018Y138533D01*
X4977Y138483D01*
X4933Y138437D01*
X4887Y138393D01*
X4837Y138352D01*
X4786Y138314D01*
X4732Y138280D01*
X4677Y138248D01*
X4619Y138220D01*
X4560Y138196D01*
X4500Y138175D01*
X4438Y138158D01*
X4376Y138144D01*
X4313Y138135D01*
X4249Y138129D01*
X4185Y138127D01*
X4121Y138129D01*
X4057Y138135D01*
X3994Y138144D01*
X3932Y138158D01*
X3870Y138175D01*
X3810Y138196D01*
X3751Y138220D01*
X3693Y138248D01*
X3638Y138280D01*
X3584Y138314D01*
X3533Y138352D01*
X3483Y138393D01*
X3437Y138437D01*
X3393Y138483D01*
X3352Y138533D01*
X3314Y138584D01*
X3280Y138638D01*
X3248Y138693D01*
X3220Y138751D01*
X3196Y138810D01*
X3175Y138870D01*
X3158Y138932D01*
X3144Y138994D01*
X3135Y139057D01*
X3129Y139121D01*
X3127Y139185D01*
X6913Y138127D02*
X6913Y141937D01*
X8606Y141937D01*
X8606Y140244D02*
X6913Y140244D01*
X10083Y141937D02*
X10083Y138127D01*
X10083Y141937D02*
X11776Y141937D01*
X11776Y140244D02*
X10083Y140244D01*
D11*
X166000Y248000D02*
X166000Y268000D01*
X163000Y264000D01*
X166000Y268000D02*
X169000Y264000D01*
X158000Y247000D02*
X145000Y247000D01*
X148000Y250000D01*
X145000Y247000D02*
X148000Y244000D01*
X177764Y247000D02*
X177766Y247094D01*
X177772Y247188D01*
X177782Y247282D01*
X177796Y247375D01*
X177814Y247468D01*
X177835Y247560D01*
X177861Y247650D01*
X177890Y247740D01*
X177923Y247828D01*
X177960Y247915D01*
X178000Y248000D01*
X178044Y248084D01*
X178092Y248165D01*
X178142Y248245D01*
X178197Y248322D01*
X178254Y248397D01*
X178314Y248469D01*
X178378Y248539D01*
X178444Y248606D01*
X178513Y248670D01*
X178585Y248731D01*
X178659Y248789D01*
X178736Y248844D01*
X178815Y248896D01*
X178896Y248944D01*
X178979Y248989D01*
X179063Y249030D01*
X179150Y249068D01*
X179238Y249102D01*
X179327Y249132D01*
X179417Y249159D01*
X179509Y249181D01*
X179601Y249200D01*
X179695Y249215D01*
X179788Y249226D01*
X179882Y249233D01*
X179976Y249236D01*
X180071Y249235D01*
X180165Y249230D01*
X180259Y249221D01*
X180352Y249208D01*
X180445Y249191D01*
X180537Y249171D01*
X180628Y249146D01*
X180718Y249118D01*
X180806Y249086D01*
X180894Y249050D01*
X180979Y249010D01*
X181063Y248967D01*
X181145Y248921D01*
X181225Y248871D01*
X181303Y248817D01*
X181378Y248761D01*
X181451Y248701D01*
X181522Y248638D01*
X181589Y248573D01*
X181654Y248504D01*
X181716Y248433D01*
X181775Y248360D01*
X181831Y248284D01*
X181883Y248205D01*
X181932Y248125D01*
X181978Y248042D01*
X182020Y247958D01*
X182059Y247872D01*
X182094Y247784D01*
X182125Y247695D01*
X182153Y247605D01*
X182176Y247514D01*
X182196Y247422D01*
X182212Y247329D01*
X182224Y247235D01*
X182232Y247141D01*
X182236Y247047D01*
X182236Y246953D01*
X182232Y246859D01*
X182224Y246765D01*
X182212Y246671D01*
X182196Y246578D01*
X182176Y246486D01*
X182153Y246395D01*
X182125Y246305D01*
X182094Y246216D01*
X182059Y246128D01*
X182020Y246042D01*
X181978Y245958D01*
X181932Y245875D01*
X181883Y245795D01*
X181831Y245716D01*
X181775Y245640D01*
X181716Y245567D01*
X181654Y245496D01*
X181589Y245427D01*
X181522Y245362D01*
X181451Y245299D01*
X181378Y245239D01*
X181303Y245183D01*
X181225Y245129D01*
X181145Y245079D01*
X181063Y245033D01*
X180979Y244990D01*
X180894Y244950D01*
X180806Y244914D01*
X180718Y244882D01*
X180628Y244854D01*
X180537Y244829D01*
X180445Y244809D01*
X180352Y244792D01*
X180259Y244779D01*
X180165Y244770D01*
X180071Y244765D01*
X179976Y244764D01*
X179882Y244767D01*
X179788Y244774D01*
X179695Y244785D01*
X179601Y244800D01*
X179509Y244819D01*
X179417Y244841D01*
X179327Y244868D01*
X179238Y244898D01*
X179150Y244932D01*
X179063Y244970D01*
X178979Y245011D01*
X178896Y245056D01*
X178815Y245104D01*
X178736Y245156D01*
X178659Y245211D01*
X178585Y245269D01*
X178513Y245330D01*
X178444Y245394D01*
X178378Y245461D01*
X178314Y245531D01*
X178254Y245603D01*
X178197Y245678D01*
X178142Y245755D01*
X178092Y245835D01*
X178044Y245916D01*
X178000Y246000D01*
X177960Y246085D01*
X177923Y246172D01*
X177890Y246260D01*
X177861Y246350D01*
X177835Y246440D01*
X177814Y246532D01*
X177796Y246625D01*
X177782Y246718D01*
X177772Y246812D01*
X177766Y246906D01*
X177764Y247000D01*
X172000Y247000D02*
X172002Y247196D01*
X172010Y247393D01*
X172022Y247589D01*
X172039Y247784D01*
X172060Y247979D01*
X172087Y248174D01*
X172118Y248368D01*
X172154Y248561D01*
X172194Y248753D01*
X172240Y248944D01*
X172290Y249134D01*
X172344Y249322D01*
X172404Y249509D01*
X172468Y249695D01*
X172536Y249879D01*
X172609Y250061D01*
X172686Y250242D01*
X172768Y250420D01*
X172854Y250597D01*
X172945Y250771D01*
X173039Y250943D01*
X173138Y251113D01*
X173241Y251280D01*
X173348Y251445D01*
X173459Y251606D01*
X173574Y251766D01*
X173693Y251922D01*
X173816Y252075D01*
X173942Y252225D01*
X174072Y252372D01*
X174206Y252516D01*
X174343Y252657D01*
X174484Y252794D01*
X174628Y252928D01*
X174775Y253058D01*
X174925Y253184D01*
X175078Y253307D01*
X175234Y253426D01*
X175394Y253541D01*
X175555Y253652D01*
X175720Y253759D01*
X175887Y253862D01*
X176057Y253961D01*
X176229Y254055D01*
X176403Y254146D01*
X176580Y254232D01*
X176758Y254314D01*
X176939Y254391D01*
X177121Y254464D01*
X177305Y254532D01*
X177491Y254596D01*
X177678Y254656D01*
X177866Y254710D01*
X178056Y254760D01*
X178247Y254806D01*
X178439Y254846D01*
X178632Y254882D01*
X178826Y254913D01*
X179021Y254940D01*
X179216Y254961D01*
X179411Y254978D01*
X179607Y254990D01*
X179804Y254998D01*
X180000Y255000D01*
X180196Y254998D01*
X180393Y254990D01*
X180589Y254978D01*
X180784Y254961D01*
X180979Y254940D01*
X181174Y254913D01*
X181368Y254882D01*
X181561Y254846D01*
X181753Y254806D01*
X181944Y254760D01*
X182134Y254710D01*
X182322Y254656D01*
X182509Y254596D01*
X182695Y254532D01*
X182879Y254464D01*
X183061Y254391D01*
X183242Y254314D01*
X183420Y254232D01*
X183597Y254146D01*
X183771Y254055D01*
X183943Y253961D01*
X184113Y253862D01*
X184280Y253759D01*
X184445Y253652D01*
X184606Y253541D01*
X184766Y253426D01*
X184922Y253307D01*
X185075Y253184D01*
X185225Y253058D01*
X185372Y252928D01*
X185516Y252794D01*
X185657Y252657D01*
X185794Y252516D01*
X185928Y252372D01*
X186058Y252225D01*
X186184Y252075D01*
X186307Y251922D01*
X186426Y251766D01*
X186541Y251606D01*
X186652Y251445D01*
X186759Y251280D01*
X186862Y251113D01*
X186961Y250943D01*
X187055Y250771D01*
X187146Y250597D01*
X187232Y250420D01*
X187314Y250242D01*
X187391Y250061D01*
X187464Y249879D01*
X187532Y249695D01*
X187596Y249509D01*
X187656Y249322D01*
X187710Y249134D01*
X187760Y248944D01*
X187806Y248753D01*
X187846Y248561D01*
X187882Y248368D01*
X187913Y248174D01*
X187940Y247979D01*
X187961Y247784D01*
X187978Y247589D01*
X187990Y247393D01*
X187998Y247196D01*
X188000Y247000D01*
X187998Y246804D01*
X187990Y246607D01*
X187978Y246411D01*
X187961Y246216D01*
X187940Y246021D01*
X187913Y245826D01*
X187882Y245632D01*
X187846Y245439D01*
X187806Y245247D01*
X187760Y245056D01*
X187710Y244866D01*
X187656Y244678D01*
X187596Y244491D01*
X187532Y244305D01*
X187464Y244121D01*
X187391Y243939D01*
X187314Y243758D01*
X187232Y243580D01*
X187146Y243403D01*
X187055Y243229D01*
X186961Y243057D01*
X186862Y242887D01*
X186759Y242720D01*
X186652Y242555D01*
X186541Y242394D01*
X186426Y242234D01*
X186307Y242078D01*
X186184Y241925D01*
X186058Y241775D01*
X185928Y241628D01*
X185794Y241484D01*
X185657Y241343D01*
X185516Y241206D01*
X185372Y241072D01*
X185225Y240942D01*
X185075Y240816D01*
X184922Y240693D01*
X184766Y240574D01*
X184606Y240459D01*
X184445Y240348D01*
X184280Y240241D01*
X184113Y240138D01*
X183943Y240039D01*
X183771Y239945D01*
X183597Y239854D01*
X183420Y239768D01*
X183242Y239686D01*
X183061Y239609D01*
X182879Y239536D01*
X182695Y239468D01*
X182509Y239404D01*
X182322Y239344D01*
X182134Y239290D01*
X181944Y239240D01*
X181753Y239194D01*
X181561Y239154D01*
X181368Y239118D01*
X181174Y239087D01*
X180979Y239060D01*
X180784Y239039D01*
X180589Y239022D01*
X180393Y239010D01*
X180196Y239002D01*
X180000Y239000D01*
X179804Y239002D01*
X179607Y239010D01*
X179411Y239022D01*
X179216Y239039D01*
X179021Y239060D01*
X178826Y239087D01*
X178632Y239118D01*
X178439Y239154D01*
X178247Y239194D01*
X178056Y239240D01*
X177866Y239290D01*
X177678Y239344D01*
X177491Y239404D01*
X177305Y239468D01*
X177121Y239536D01*
X176939Y239609D01*
X176758Y239686D01*
X176580Y239768D01*
X176403Y239854D01*
X176229Y239945D01*
X176057Y240039D01*
X175887Y240138D01*
X175720Y240241D01*
X175555Y240348D01*
X175394Y240459D01*
X175234Y240574D01*
X175078Y240693D01*
X174925Y240816D01*
X174775Y240942D01*
X174628Y241072D01*
X174484Y241206D01*
X174343Y241343D01*
X174206Y241484D01*
X174072Y241628D01*
X173942Y241775D01*
X173816Y241925D01*
X173693Y242078D01*
X173574Y242234D01*
X173459Y242394D01*
X173348Y242555D01*
X173241Y242720D01*
X173138Y242887D01*
X173039Y243057D01*
X172945Y243229D01*
X172854Y243403D01*
X172768Y243580D01*
X172686Y243758D01*
X172609Y243939D01*
X172536Y244121D01*
X172468Y244305D01*
X172404Y244491D01*
X172344Y244678D01*
X172290Y244866D01*
X172240Y245056D01*
X172194Y245247D01*
X172154Y245439D01*
X172118Y245632D01*
X172087Y245826D01*
X172060Y246021D01*
X172039Y246216D01*
X172022Y246411D01*
X172010Y246607D01*
X172002Y246804D01*
X172000Y247000D01*
X186000Y245000D02*
X188000Y247000D01*
X189000Y244000D01*
X171000Y256000D02*
X170998Y255867D01*
X170992Y255733D01*
X170982Y255600D01*
X170968Y255468D01*
X170951Y255336D01*
X170929Y255204D01*
X170904Y255073D01*
X170874Y254943D01*
X170841Y254814D01*
X170804Y254686D01*
X170763Y254559D01*
X170718Y254433D01*
X170670Y254309D01*
X170618Y254186D01*
X170563Y254065D01*
X170503Y253945D01*
X170441Y253827D01*
X170375Y253712D01*
X170305Y253598D01*
X170232Y253486D01*
X170156Y253377D01*
X170077Y253269D01*
X169994Y253165D01*
X169909Y253062D01*
X169820Y252963D01*
X169729Y252866D01*
X169634Y252771D01*
X169537Y252680D01*
X169438Y252591D01*
X169335Y252506D01*
X169231Y252423D01*
X169123Y252344D01*
X169014Y252268D01*
X168902Y252195D01*
X168788Y252125D01*
X168673Y252059D01*
X168555Y251997D01*
X168435Y251937D01*
X168314Y251882D01*
X168191Y251830D01*
X168067Y251782D01*
X167941Y251737D01*
X167814Y251696D01*
X167686Y251659D01*
X167557Y251626D01*
X167427Y251596D01*
X167296Y251571D01*
X167164Y251549D01*
X167032Y251532D01*
X166900Y251518D01*
X166767Y251508D01*
X166633Y251502D01*
X166500Y251500D01*
X166367Y251502D01*
X166233Y251508D01*
X166100Y251518D01*
X165968Y251532D01*
X165836Y251549D01*
X165704Y251571D01*
X165573Y251596D01*
X165443Y251626D01*
X165314Y251659D01*
X165186Y251696D01*
X165059Y251737D01*
X164933Y251782D01*
X164809Y251830D01*
X164686Y251882D01*
X164565Y251937D01*
X164445Y251997D01*
X164327Y252059D01*
X164212Y252125D01*
X164098Y252195D01*
X163986Y252268D01*
X163877Y252344D01*
X163769Y252423D01*
X163665Y252506D01*
X163562Y252591D01*
X163463Y252680D01*
X163366Y252771D01*
X163271Y252866D01*
X163180Y252963D01*
X163091Y253062D01*
X163006Y253165D01*
X162923Y253269D01*
X162844Y253377D01*
X162768Y253486D01*
X162695Y253598D01*
X162625Y253712D01*
X162559Y253827D01*
X162497Y253945D01*
X162437Y254065D01*
X162382Y254186D01*
X162330Y254309D01*
X162282Y254433D01*
X162237Y254559D01*
X162196Y254686D01*
X162159Y254814D01*
X162126Y254943D01*
X162096Y255073D01*
X162071Y255204D01*
X162049Y255336D01*
X162032Y255468D01*
X162018Y255600D01*
X162008Y255733D01*
X162002Y255867D01*
X162000Y256000D01*
X169000Y255000D02*
X171000Y256000D01*
X172000Y254000D01*
X158000Y251000D02*
X157875Y251013D01*
X157750Y251023D01*
X157625Y251029D01*
X157500Y251031D01*
X157374Y251029D01*
X157249Y251023D01*
X157124Y251013D01*
X156999Y251000D01*
X156875Y250982D01*
X156752Y250961D01*
X156629Y250936D01*
X156507Y250907D01*
X156386Y250874D01*
X156266Y250837D01*
X156147Y250797D01*
X156030Y250753D01*
X155914Y250706D01*
X155799Y250655D01*
X155687Y250600D01*
X155575Y250542D01*
X155466Y250480D01*
X155359Y250415D01*
X155254Y250347D01*
X155151Y250276D01*
X155050Y250201D01*
X154952Y250123D01*
X154856Y250043D01*
X154762Y249959D01*
X154672Y249872D01*
X154584Y249783D01*
X154499Y249691D01*
X154416Y249596D01*
X154337Y249499D01*
X154261Y249399D01*
X154188Y249298D01*
X154118Y249193D01*
X154051Y249087D01*
X153988Y248979D01*
X153928Y248869D01*
X153872Y248757D01*
X153819Y248643D01*
X153770Y248528D01*
X153724Y248411D01*
X153682Y248293D01*
X153644Y248174D01*
X153609Y248053D01*
X153578Y247932D01*
X153551Y247809D01*
X153528Y247686D01*
X153508Y247562D01*
X153493Y247438D01*
X153481Y247313D01*
X153473Y247188D01*
X153469Y247062D01*
X153469Y246937D01*
X153473Y246812D01*
X153481Y246687D01*
X153493Y246562D01*
X153508Y246437D01*
X153528Y246313D01*
X153551Y246190D01*
X153578Y246068D01*
X153609Y245946D01*
X153644Y245826D01*
X153682Y245707D01*
X153724Y245588D01*
X153770Y245472D01*
X153819Y245356D01*
X153872Y245243D01*
X153929Y245131D01*
X153988Y245021D01*
X154052Y244912D01*
X154118Y244806D01*
X154188Y244702D01*
X154261Y244600D01*
X154337Y244501D01*
X154417Y244403D01*
X154499Y244309D01*
X154584Y244217D01*
X154672Y244127D01*
X154763Y244041D01*
X154856Y243957D01*
X154952Y243876D01*
X155050Y243799D01*
X155151Y243724D01*
X155254Y243653D01*
X155359Y243584D01*
X155467Y243519D01*
X155576Y243458D01*
X155687Y243400D01*
X155800Y243345D01*
X155914Y243294D01*
X156030Y243246D01*
X156148Y243203D01*
X156267Y243162D01*
X156386Y243126D01*
X156508Y243093D01*
X156629Y243064D01*
X156752Y243039D01*
X156876Y243018D01*
X157000Y243000D01*
X158000Y251000D02*
X156000Y253000D01*
X158000Y251000D02*
X157000Y249000D01*
D10*
X151667Y254937D02*
X149127Y251127D01*
X151667Y251127D02*
X149127Y254937D01*
X169127Y261937D02*
X170397Y260138D01*
X171667Y261937D01*
X170397Y260138D02*
X170397Y258127D01*
X190127Y248937D02*
X192244Y248937D01*
X190127Y245127D01*
X192244Y245127D01*
X206609Y13244D02*
X207244Y13244D01*
X207244Y11127D01*
X205974Y11127D01*
X205919Y11129D01*
X205863Y11134D01*
X205809Y11143D01*
X205755Y11156D01*
X205702Y11172D01*
X205650Y11191D01*
X205599Y11214D01*
X205551Y11240D01*
X205503Y11270D01*
X205458Y11302D01*
X205416Y11337D01*
X205375Y11375D01*
X205337Y11416D01*
X205302Y11458D01*
X205270Y11503D01*
X205240Y11551D01*
X205214Y11599D01*
X205191Y11650D01*
X205172Y11702D01*
X205156Y11755D01*
X205143Y11809D01*
X205134Y11863D01*
X205129Y11919D01*
X205127Y11974D01*
X205127Y14090D01*
X205129Y14148D01*
X205135Y14205D01*
X205145Y14262D01*
X205158Y14319D01*
X205176Y14374D01*
X205197Y14427D01*
X205222Y14480D01*
X205250Y14530D01*
X205282Y14578D01*
X205317Y14625D01*
X205355Y14668D01*
X205396Y14709D01*
X205439Y14747D01*
X205486Y14782D01*
X205534Y14814D01*
X205584Y14842D01*
X205637Y14867D01*
X205690Y14888D01*
X205745Y14906D01*
X205802Y14919D01*
X205859Y14929D01*
X205916Y14935D01*
X205974Y14937D01*
X207244Y14937D01*
X209028Y14937D02*
X209028Y11127D01*
X211145Y11127D02*
X209028Y14937D01*
X211145Y14937D02*
X211145Y11127D01*
X212930Y11127D02*
X212930Y14937D01*
X213988Y14937D01*
X214052Y14935D01*
X214116Y14929D01*
X214179Y14920D01*
X214241Y14906D01*
X214303Y14889D01*
X214363Y14868D01*
X214422Y14844D01*
X214480Y14816D01*
X214535Y14784D01*
X214589Y14750D01*
X214640Y14712D01*
X214690Y14671D01*
X214736Y14627D01*
X214780Y14581D01*
X214821Y14531D01*
X214859Y14480D01*
X214893Y14426D01*
X214925Y14371D01*
X214953Y14313D01*
X214977Y14254D01*
X214998Y14194D01*
X215015Y14132D01*
X215029Y14070D01*
X215038Y14007D01*
X215044Y13943D01*
X215046Y13879D01*
X215046Y12185D01*
X215044Y12121D01*
X215038Y12057D01*
X215029Y11994D01*
X215015Y11932D01*
X214998Y11870D01*
X214977Y11810D01*
X214953Y11751D01*
X214925Y11693D01*
X214893Y11638D01*
X214859Y11584D01*
X214821Y11533D01*
X214780Y11483D01*
X214736Y11437D01*
X214690Y11393D01*
X214640Y11352D01*
X214589Y11314D01*
X214535Y11280D01*
X214480Y11248D01*
X214422Y11220D01*
X214363Y11196D01*
X214303Y11175D01*
X214241Y11158D01*
X214179Y11144D01*
X214116Y11135D01*
X214052Y11129D01*
X213988Y11127D01*
X212930Y11127D01*
X208397Y62127D02*
X207127Y65937D01*
X209667Y65937D02*
X208397Y62127D01*
X211323Y62127D02*
X211323Y65937D01*
X210900Y62127D02*
X211746Y62127D01*
X211746Y65937D02*
X210900Y65937D01*
X213313Y65937D02*
X213313Y62127D01*
X215429Y62127D02*
X213313Y65937D01*
X215429Y65937D02*
X215429Y62127D01*
X210127Y87127D02*
X210127Y90937D01*
X211185Y90937D01*
X211249Y90935D01*
X211313Y90929D01*
X211376Y90920D01*
X211438Y90906D01*
X211500Y90889D01*
X211560Y90868D01*
X211619Y90844D01*
X211677Y90816D01*
X211732Y90784D01*
X211786Y90750D01*
X211837Y90712D01*
X211887Y90671D01*
X211933Y90627D01*
X211977Y90581D01*
X212018Y90531D01*
X212056Y90480D01*
X212090Y90426D01*
X212122Y90371D01*
X212150Y90313D01*
X212174Y90254D01*
X212195Y90194D01*
X212212Y90132D01*
X212226Y90070D01*
X212235Y90007D01*
X212241Y89943D01*
X212243Y89879D01*
X212241Y89815D01*
X212235Y89751D01*
X212226Y89688D01*
X212212Y89626D01*
X212195Y89564D01*
X212174Y89504D01*
X212150Y89445D01*
X212122Y89387D01*
X212090Y89332D01*
X212056Y89278D01*
X212018Y89227D01*
X211977Y89177D01*
X211933Y89131D01*
X211887Y89087D01*
X211837Y89046D01*
X211786Y89008D01*
X211732Y88974D01*
X211677Y88942D01*
X211619Y88914D01*
X211560Y88890D01*
X211500Y88869D01*
X211438Y88852D01*
X211376Y88838D01*
X211313Y88829D01*
X211249Y88823D01*
X211185Y88821D01*
X211185Y88820D02*
X210127Y88820D01*
X211397Y88820D02*
X212244Y87127D01*
X213552Y87127D02*
X216092Y90937D01*
X213552Y90937D02*
X216092Y87127D01*
X210185Y112127D02*
X210185Y115937D01*
X209127Y115937D02*
X211244Y115937D01*
X214869Y115937D02*
X212329Y112127D01*
X214869Y112127D02*
X212329Y115937D01*
X10244Y53244D02*
X9609Y53244D01*
X10244Y53244D02*
X10244Y51127D01*
X8974Y51127D01*
X8919Y51129D01*
X8863Y51134D01*
X8809Y51143D01*
X8755Y51156D01*
X8702Y51172D01*
X8650Y51191D01*
X8599Y51214D01*
X8551Y51240D01*
X8503Y51270D01*
X8458Y51302D01*
X8416Y51337D01*
X8375Y51375D01*
X8337Y51416D01*
X8302Y51458D01*
X8270Y51503D01*
X8240Y51551D01*
X8214Y51599D01*
X8191Y51650D01*
X8172Y51702D01*
X8156Y51755D01*
X8143Y51809D01*
X8134Y51863D01*
X8129Y51919D01*
X8127Y51974D01*
X8127Y54090D01*
X8129Y54148D01*
X8135Y54205D01*
X8145Y54262D01*
X8158Y54319D01*
X8176Y54374D01*
X8197Y54427D01*
X8222Y54480D01*
X8250Y54530D01*
X8282Y54578D01*
X8317Y54625D01*
X8355Y54668D01*
X8396Y54709D01*
X8439Y54747D01*
X8486Y54782D01*
X8534Y54814D01*
X8584Y54842D01*
X8637Y54867D01*
X8690Y54888D01*
X8745Y54906D01*
X8802Y54919D01*
X8859Y54929D01*
X8916Y54935D01*
X8974Y54937D01*
X10244Y54937D01*
X12028Y54937D02*
X12028Y51127D01*
X14145Y51127D02*
X12028Y54937D01*
X14145Y54937D02*
X14145Y51127D01*
X15930Y51127D02*
X15930Y54937D01*
X16988Y54937D01*
X17052Y54935D01*
X17116Y54929D01*
X17179Y54920D01*
X17241Y54906D01*
X17303Y54889D01*
X17363Y54868D01*
X17422Y54844D01*
X17480Y54816D01*
X17535Y54784D01*
X17589Y54750D01*
X17640Y54712D01*
X17690Y54671D01*
X17736Y54627D01*
X17780Y54581D01*
X17821Y54531D01*
X17859Y54480D01*
X17893Y54426D01*
X17925Y54371D01*
X17953Y54313D01*
X17977Y54254D01*
X17998Y54194D01*
X18015Y54132D01*
X18029Y54070D01*
X18038Y54007D01*
X18044Y53943D01*
X18046Y53879D01*
X18046Y52185D01*
X18044Y52121D01*
X18038Y52057D01*
X18029Y51994D01*
X18015Y51932D01*
X17998Y51870D01*
X17977Y51810D01*
X17953Y51751D01*
X17925Y51693D01*
X17893Y51638D01*
X17859Y51584D01*
X17821Y51533D01*
X17780Y51483D01*
X17736Y51437D01*
X17690Y51393D01*
X17640Y51352D01*
X17589Y51314D01*
X17535Y51280D01*
X17480Y51248D01*
X17422Y51220D01*
X17363Y51196D01*
X17303Y51175D01*
X17241Y51158D01*
X17179Y51144D01*
X17116Y51135D01*
X17052Y51129D01*
X16988Y51127D01*
X15930Y51127D01*
X8397Y105127D02*
X7127Y108937D01*
X9667Y108937D02*
X8397Y105127D01*
X11166Y107244D02*
X12225Y107244D01*
X12225Y107243D02*
X12289Y107241D01*
X12353Y107235D01*
X12416Y107226D01*
X12478Y107212D01*
X12540Y107195D01*
X12600Y107174D01*
X12659Y107150D01*
X12717Y107122D01*
X12772Y107090D01*
X12826Y107056D01*
X12877Y107018D01*
X12927Y106977D01*
X12973Y106933D01*
X13017Y106887D01*
X13058Y106837D01*
X13096Y106786D01*
X13130Y106732D01*
X13162Y106677D01*
X13190Y106619D01*
X13214Y106560D01*
X13235Y106500D01*
X13252Y106438D01*
X13266Y106376D01*
X13275Y106313D01*
X13281Y106249D01*
X13283Y106185D01*
X13281Y106121D01*
X13275Y106057D01*
X13266Y105994D01*
X13252Y105932D01*
X13235Y105870D01*
X13214Y105810D01*
X13190Y105751D01*
X13162Y105693D01*
X13130Y105638D01*
X13096Y105584D01*
X13058Y105533D01*
X13017Y105483D01*
X12973Y105437D01*
X12927Y105393D01*
X12877Y105352D01*
X12826Y105314D01*
X12772Y105280D01*
X12717Y105248D01*
X12659Y105220D01*
X12600Y105196D01*
X12540Y105175D01*
X12478Y105158D01*
X12416Y105144D01*
X12353Y105135D01*
X12289Y105129D01*
X12225Y105127D01*
X11166Y105127D01*
X11166Y108937D01*
X12225Y108937D01*
X12282Y108935D01*
X12338Y108929D01*
X12394Y108920D01*
X12449Y108907D01*
X12503Y108890D01*
X12556Y108870D01*
X12607Y108846D01*
X12657Y108819D01*
X12704Y108788D01*
X12750Y108755D01*
X12793Y108718D01*
X12834Y108679D01*
X12872Y108637D01*
X12907Y108592D01*
X12939Y108546D01*
X12968Y108497D01*
X12993Y108447D01*
X13015Y108394D01*
X13034Y108341D01*
X13049Y108286D01*
X13060Y108231D01*
X13068Y108175D01*
X13072Y108118D01*
X13072Y108062D01*
X13068Y108005D01*
X13060Y107949D01*
X13049Y107894D01*
X13034Y107839D01*
X13015Y107786D01*
X12993Y107733D01*
X12968Y107683D01*
X12939Y107634D01*
X12907Y107588D01*
X12872Y107543D01*
X12834Y107501D01*
X12793Y107462D01*
X12750Y107425D01*
X12704Y107392D01*
X12657Y107361D01*
X12607Y107334D01*
X12556Y107310D01*
X12503Y107290D01*
X12449Y107273D01*
X12394Y107260D01*
X12338Y107251D01*
X12282Y107245D01*
X12225Y107243D01*
X14442Y105127D02*
X15712Y108937D01*
X16982Y105127D01*
X16665Y106080D02*
X14760Y106080D01*
X19126Y105127D02*
X19126Y108937D01*
X18068Y108937D02*
X20184Y108937D01*
D12*
X121900Y189100D02*
X121900Y221100D01*
X121900Y189100D02*
X107900Y189100D01*
X107900Y221100D01*
X121900Y221100D01*
D13*
X102529Y215011D02*
X101795Y215011D01*
X101743Y215013D01*
X101691Y215018D01*
X101639Y215028D01*
X101588Y215041D01*
X101538Y215057D01*
X101490Y215077D01*
X101443Y215101D01*
X101398Y215128D01*
X101355Y215157D01*
X101314Y215190D01*
X101276Y215226D01*
X101240Y215264D01*
X101207Y215305D01*
X101178Y215348D01*
X101151Y215393D01*
X101127Y215440D01*
X101107Y215488D01*
X101091Y215538D01*
X101078Y215589D01*
X101068Y215641D01*
X101063Y215693D01*
X101061Y215745D01*
X101061Y217579D01*
X101063Y217631D01*
X101068Y217683D01*
X101078Y217735D01*
X101091Y217786D01*
X101107Y217836D01*
X101127Y217884D01*
X101151Y217931D01*
X101178Y217976D01*
X101207Y218019D01*
X101240Y218060D01*
X101276Y218098D01*
X101314Y218134D01*
X101355Y218167D01*
X101398Y218196D01*
X101443Y218223D01*
X101490Y218247D01*
X101538Y218267D01*
X101588Y218283D01*
X101639Y218296D01*
X101691Y218306D01*
X101743Y218311D01*
X101795Y218313D01*
X102529Y218313D01*
X104127Y217579D02*
X105044Y218313D01*
X105044Y215011D01*
X104127Y215011D02*
X105961Y215011D01*
D12*
X137700Y221300D02*
X137700Y189300D01*
X123700Y189300D01*
X123700Y221300D01*
X137700Y221300D01*
D13*
X140595Y197811D02*
X141329Y197811D01*
X140595Y197811D02*
X140543Y197813D01*
X140491Y197818D01*
X140439Y197828D01*
X140388Y197841D01*
X140338Y197857D01*
X140290Y197877D01*
X140243Y197901D01*
X140198Y197928D01*
X140155Y197957D01*
X140114Y197990D01*
X140076Y198026D01*
X140040Y198064D01*
X140007Y198105D01*
X139978Y198148D01*
X139951Y198193D01*
X139927Y198240D01*
X139907Y198288D01*
X139891Y198338D01*
X139878Y198389D01*
X139868Y198441D01*
X139863Y198493D01*
X139861Y198545D01*
X139861Y200379D01*
X139863Y200431D01*
X139868Y200483D01*
X139878Y200535D01*
X139891Y200586D01*
X139907Y200636D01*
X139927Y200684D01*
X139951Y200731D01*
X139978Y200776D01*
X140007Y200819D01*
X140040Y200860D01*
X140076Y200898D01*
X140114Y200934D01*
X140155Y200967D01*
X140198Y200996D01*
X140243Y201023D01*
X140290Y201047D01*
X140338Y201067D01*
X140388Y201083D01*
X140439Y201096D01*
X140491Y201106D01*
X140543Y201111D01*
X140595Y201113D01*
X141329Y201113D01*
X143936Y201114D02*
X143992Y201112D01*
X144048Y201106D01*
X144104Y201097D01*
X144159Y201083D01*
X144213Y201066D01*
X144265Y201046D01*
X144316Y201021D01*
X144365Y200994D01*
X144412Y200963D01*
X144457Y200929D01*
X144500Y200892D01*
X144540Y200852D01*
X144577Y200809D01*
X144611Y200764D01*
X144642Y200717D01*
X144669Y200668D01*
X144694Y200617D01*
X144714Y200565D01*
X144731Y200511D01*
X144745Y200456D01*
X144754Y200400D01*
X144760Y200344D01*
X144762Y200288D01*
X143936Y201113D02*
X143872Y201111D01*
X143809Y201105D01*
X143746Y201096D01*
X143684Y201083D01*
X143623Y201066D01*
X143563Y201045D01*
X143504Y201021D01*
X143447Y200994D01*
X143391Y200963D01*
X143338Y200928D01*
X143287Y200891D01*
X143237Y200851D01*
X143191Y200807D01*
X143147Y200761D01*
X143106Y200713D01*
X143068Y200662D01*
X143033Y200609D01*
X143001Y200554D01*
X142973Y200497D01*
X142948Y200439D01*
X142927Y200379D01*
X144487Y199646D02*
X144525Y199685D01*
X144562Y199727D01*
X144595Y199771D01*
X144626Y199816D01*
X144654Y199864D01*
X144679Y199913D01*
X144701Y199964D01*
X144719Y200016D01*
X144735Y200069D01*
X144747Y200123D01*
X144755Y200178D01*
X144760Y200233D01*
X144762Y200288D01*
X144486Y199645D02*
X142927Y197811D01*
X144761Y197811D01*
D12*
X168900Y184900D02*
X168900Y152900D01*
X154900Y152900D01*
X154900Y184900D01*
X168900Y184900D01*
D13*
X178995Y148011D02*
X179729Y148011D01*
X178995Y148011D02*
X178943Y148013D01*
X178891Y148018D01*
X178839Y148028D01*
X178788Y148041D01*
X178738Y148057D01*
X178690Y148077D01*
X178643Y148101D01*
X178598Y148128D01*
X178555Y148157D01*
X178514Y148190D01*
X178476Y148226D01*
X178440Y148264D01*
X178407Y148305D01*
X178378Y148348D01*
X178351Y148393D01*
X178327Y148440D01*
X178307Y148488D01*
X178291Y148538D01*
X178278Y148589D01*
X178268Y148641D01*
X178263Y148693D01*
X178261Y148745D01*
X178261Y150579D01*
X178263Y150631D01*
X178268Y150683D01*
X178278Y150735D01*
X178291Y150786D01*
X178307Y150836D01*
X178327Y150884D01*
X178351Y150931D01*
X178378Y150976D01*
X178407Y151019D01*
X178440Y151060D01*
X178476Y151098D01*
X178514Y151134D01*
X178555Y151167D01*
X178598Y151196D01*
X178643Y151223D01*
X178690Y151247D01*
X178738Y151267D01*
X178788Y151283D01*
X178839Y151296D01*
X178891Y151306D01*
X178943Y151311D01*
X178995Y151313D01*
X179729Y151313D01*
X181327Y148011D02*
X182244Y148011D01*
X182303Y148013D01*
X182361Y148019D01*
X182419Y148028D01*
X182477Y148041D01*
X182533Y148058D01*
X182588Y148078D01*
X182642Y148102D01*
X182694Y148129D01*
X182744Y148159D01*
X182792Y148193D01*
X182838Y148230D01*
X182882Y148269D01*
X182923Y148312D01*
X182961Y148356D01*
X182996Y148403D01*
X183028Y148453D01*
X183057Y148504D01*
X183083Y148557D01*
X183105Y148611D01*
X183123Y148667D01*
X183138Y148724D01*
X183149Y148782D01*
X183157Y148840D01*
X183161Y148899D01*
X183161Y148957D01*
X183157Y149016D01*
X183149Y149074D01*
X183138Y149132D01*
X183123Y149189D01*
X183105Y149245D01*
X183083Y149299D01*
X183057Y149352D01*
X183028Y149403D01*
X182996Y149453D01*
X182961Y149500D01*
X182923Y149544D01*
X182882Y149587D01*
X182838Y149626D01*
X182792Y149663D01*
X182744Y149697D01*
X182694Y149727D01*
X182642Y149754D01*
X182588Y149778D01*
X182533Y149798D01*
X182477Y149815D01*
X182419Y149828D01*
X182361Y149837D01*
X182303Y149843D01*
X182244Y149845D01*
X182427Y151313D02*
X181327Y151313D01*
X182427Y151313D02*
X182479Y151311D01*
X182531Y151306D01*
X182583Y151296D01*
X182634Y151283D01*
X182684Y151267D01*
X182732Y151247D01*
X182779Y151223D01*
X182824Y151196D01*
X182867Y151167D01*
X182908Y151134D01*
X182946Y151098D01*
X182982Y151060D01*
X183015Y151019D01*
X183044Y150976D01*
X183071Y150931D01*
X183095Y150884D01*
X183115Y150836D01*
X183131Y150786D01*
X183144Y150735D01*
X183154Y150683D01*
X183159Y150631D01*
X183161Y150579D01*
X183159Y150527D01*
X183154Y150475D01*
X183144Y150423D01*
X183131Y150372D01*
X183115Y150322D01*
X183095Y150274D01*
X183071Y150227D01*
X183044Y150182D01*
X183015Y150139D01*
X182982Y150098D01*
X182946Y150060D01*
X182908Y150024D01*
X182867Y149991D01*
X182824Y149962D01*
X182779Y149935D01*
X182732Y149911D01*
X182684Y149891D01*
X182634Y149875D01*
X182583Y149862D01*
X182531Y149852D01*
X182479Y149847D01*
X182427Y149845D01*
X181694Y149845D01*
D12*
X152900Y152700D02*
X152900Y184700D01*
X152900Y152700D02*
X138900Y152700D01*
X138900Y184700D01*
X152900Y184700D01*
D13*
X172195Y148011D02*
X172929Y148011D01*
X172195Y148011D02*
X172143Y148013D01*
X172091Y148018D01*
X172039Y148028D01*
X171988Y148041D01*
X171938Y148057D01*
X171890Y148077D01*
X171843Y148101D01*
X171798Y148128D01*
X171755Y148157D01*
X171714Y148190D01*
X171676Y148226D01*
X171640Y148264D01*
X171607Y148305D01*
X171578Y148348D01*
X171551Y148393D01*
X171527Y148440D01*
X171507Y148488D01*
X171491Y148538D01*
X171478Y148589D01*
X171468Y148641D01*
X171463Y148693D01*
X171461Y148745D01*
X171461Y150579D01*
X171463Y150631D01*
X171468Y150683D01*
X171478Y150735D01*
X171491Y150786D01*
X171507Y150836D01*
X171527Y150884D01*
X171551Y150931D01*
X171578Y150976D01*
X171607Y151019D01*
X171640Y151060D01*
X171676Y151098D01*
X171714Y151134D01*
X171755Y151167D01*
X171798Y151196D01*
X171843Y151223D01*
X171890Y151247D01*
X171938Y151267D01*
X171988Y151283D01*
X172039Y151296D01*
X172091Y151306D01*
X172143Y151311D01*
X172195Y151313D01*
X172929Y151313D01*
X175260Y151313D02*
X174527Y148745D01*
X176361Y148745D01*
X175811Y149479D02*
X175811Y148011D01*
D12*
X120900Y152900D02*
X120900Y184900D01*
X120900Y152900D02*
X106900Y152900D01*
X106900Y184900D01*
X120900Y184900D01*
D13*
X156995Y148011D02*
X157729Y148011D01*
X156995Y148011D02*
X156943Y148013D01*
X156891Y148018D01*
X156839Y148028D01*
X156788Y148041D01*
X156738Y148057D01*
X156690Y148077D01*
X156643Y148101D01*
X156598Y148128D01*
X156555Y148157D01*
X156514Y148190D01*
X156476Y148226D01*
X156440Y148264D01*
X156407Y148305D01*
X156378Y148348D01*
X156351Y148393D01*
X156327Y148440D01*
X156307Y148488D01*
X156291Y148538D01*
X156278Y148589D01*
X156268Y148641D01*
X156263Y148693D01*
X156261Y148745D01*
X156261Y150579D01*
X156263Y150631D01*
X156268Y150683D01*
X156278Y150735D01*
X156291Y150786D01*
X156307Y150836D01*
X156327Y150884D01*
X156351Y150931D01*
X156378Y150976D01*
X156407Y151019D01*
X156440Y151060D01*
X156476Y151098D01*
X156514Y151134D01*
X156555Y151167D01*
X156598Y151196D01*
X156643Y151223D01*
X156690Y151247D01*
X156738Y151267D01*
X156788Y151283D01*
X156839Y151296D01*
X156891Y151306D01*
X156943Y151311D01*
X156995Y151313D01*
X157729Y151313D01*
X159327Y148011D02*
X160427Y148011D01*
X160479Y148013D01*
X160531Y148018D01*
X160583Y148028D01*
X160634Y148041D01*
X160684Y148057D01*
X160732Y148077D01*
X160779Y148101D01*
X160824Y148128D01*
X160867Y148157D01*
X160908Y148190D01*
X160946Y148226D01*
X160982Y148264D01*
X161015Y148305D01*
X161044Y148348D01*
X161071Y148393D01*
X161095Y148440D01*
X161115Y148488D01*
X161131Y148538D01*
X161144Y148589D01*
X161154Y148641D01*
X161159Y148693D01*
X161161Y148745D01*
X161161Y149112D01*
X161159Y149164D01*
X161154Y149216D01*
X161144Y149268D01*
X161131Y149319D01*
X161115Y149369D01*
X161095Y149417D01*
X161071Y149464D01*
X161044Y149509D01*
X161015Y149552D01*
X160982Y149593D01*
X160946Y149631D01*
X160908Y149667D01*
X160867Y149700D01*
X160824Y149729D01*
X160779Y149756D01*
X160732Y149780D01*
X160684Y149800D01*
X160634Y149816D01*
X160583Y149829D01*
X160531Y149839D01*
X160479Y149844D01*
X160427Y149846D01*
X160427Y149845D02*
X159327Y149845D01*
X159327Y151313D01*
X161161Y151313D01*
D12*
X136900Y152500D02*
X136900Y184500D01*
X136900Y152500D02*
X122900Y152500D01*
X122900Y184500D01*
X136900Y184500D01*
D13*
X164395Y148011D02*
X165129Y148011D01*
X164395Y148011D02*
X164343Y148013D01*
X164291Y148018D01*
X164239Y148028D01*
X164188Y148041D01*
X164138Y148057D01*
X164090Y148077D01*
X164043Y148101D01*
X163998Y148128D01*
X163955Y148157D01*
X163914Y148190D01*
X163876Y148226D01*
X163840Y148264D01*
X163807Y148305D01*
X163778Y148348D01*
X163751Y148393D01*
X163727Y148440D01*
X163707Y148488D01*
X163691Y148538D01*
X163678Y148589D01*
X163668Y148641D01*
X163663Y148693D01*
X163661Y148745D01*
X163661Y150579D01*
X163663Y150631D01*
X163668Y150683D01*
X163678Y150735D01*
X163691Y150786D01*
X163707Y150836D01*
X163727Y150884D01*
X163751Y150931D01*
X163778Y150976D01*
X163807Y151019D01*
X163840Y151060D01*
X163876Y151098D01*
X163914Y151134D01*
X163955Y151167D01*
X163998Y151196D01*
X164043Y151223D01*
X164090Y151247D01*
X164138Y151267D01*
X164188Y151283D01*
X164239Y151296D01*
X164291Y151306D01*
X164343Y151311D01*
X164395Y151313D01*
X165129Y151313D01*
X166727Y149845D02*
X167827Y149845D01*
X167827Y149846D02*
X167879Y149844D01*
X167931Y149839D01*
X167983Y149829D01*
X168034Y149816D01*
X168084Y149800D01*
X168132Y149780D01*
X168179Y149756D01*
X168224Y149729D01*
X168267Y149700D01*
X168308Y149667D01*
X168346Y149631D01*
X168382Y149593D01*
X168415Y149552D01*
X168444Y149509D01*
X168471Y149464D01*
X168495Y149417D01*
X168515Y149369D01*
X168531Y149319D01*
X168544Y149268D01*
X168554Y149216D01*
X168559Y149164D01*
X168561Y149112D01*
X168561Y148928D01*
X168559Y148869D01*
X168553Y148811D01*
X168544Y148753D01*
X168531Y148695D01*
X168514Y148639D01*
X168494Y148584D01*
X168470Y148530D01*
X168443Y148478D01*
X168413Y148428D01*
X168379Y148380D01*
X168342Y148334D01*
X168303Y148290D01*
X168260Y148249D01*
X168216Y148211D01*
X168169Y148176D01*
X168119Y148144D01*
X168068Y148115D01*
X168015Y148089D01*
X167961Y148067D01*
X167905Y148049D01*
X167848Y148034D01*
X167790Y148023D01*
X167732Y148015D01*
X167673Y148011D01*
X167615Y148011D01*
X167556Y148015D01*
X167498Y148023D01*
X167440Y148034D01*
X167383Y148049D01*
X167327Y148067D01*
X167273Y148089D01*
X167220Y148115D01*
X167169Y148144D01*
X167119Y148176D01*
X167072Y148211D01*
X167028Y148249D01*
X166985Y148290D01*
X166946Y148334D01*
X166909Y148380D01*
X166875Y148428D01*
X166845Y148478D01*
X166818Y148530D01*
X166794Y148584D01*
X166774Y148639D01*
X166757Y148695D01*
X166744Y148753D01*
X166735Y148811D01*
X166729Y148869D01*
X166727Y148928D01*
X166727Y149845D01*
X166726Y149845D02*
X166728Y149919D01*
X166734Y149994D01*
X166743Y150067D01*
X166756Y150141D01*
X166773Y150213D01*
X166793Y150284D01*
X166817Y150355D01*
X166845Y150424D01*
X166876Y150491D01*
X166910Y150557D01*
X166948Y150622D01*
X166989Y150684D01*
X167033Y150744D01*
X167080Y150801D01*
X167130Y150856D01*
X167183Y150909D01*
X167238Y150959D01*
X167295Y151006D01*
X167355Y151050D01*
X167417Y151091D01*
X167482Y151129D01*
X167547Y151163D01*
X167615Y151194D01*
X167684Y151222D01*
X167755Y151246D01*
X167826Y151266D01*
X167898Y151283D01*
X167972Y151296D01*
X168045Y151305D01*
X168120Y151311D01*
X168194Y151313D01*
D12*
X75300Y206100D02*
X43300Y206100D01*
X43300Y220100D01*
X75300Y220100D01*
X75300Y206100D01*
D13*
X37706Y210687D02*
X36973Y210687D01*
X36921Y210689D01*
X36869Y210694D01*
X36817Y210704D01*
X36766Y210717D01*
X36716Y210733D01*
X36668Y210753D01*
X36621Y210777D01*
X36576Y210804D01*
X36533Y210833D01*
X36492Y210866D01*
X36454Y210902D01*
X36418Y210940D01*
X36385Y210981D01*
X36356Y211024D01*
X36329Y211069D01*
X36305Y211116D01*
X36285Y211164D01*
X36269Y211214D01*
X36256Y211265D01*
X36246Y211317D01*
X36241Y211369D01*
X36239Y211421D01*
X36239Y213255D01*
X36241Y213307D01*
X36246Y213359D01*
X36256Y213411D01*
X36269Y213462D01*
X36285Y213512D01*
X36305Y213560D01*
X36329Y213607D01*
X36356Y213652D01*
X36385Y213695D01*
X36418Y213736D01*
X36454Y213774D01*
X36492Y213810D01*
X36533Y213843D01*
X36576Y213872D01*
X36621Y213899D01*
X36668Y213923D01*
X36716Y213943D01*
X36766Y213959D01*
X36817Y213972D01*
X36869Y213982D01*
X36921Y213987D01*
X36973Y213989D01*
X37706Y213989D01*
X39305Y213989D02*
X39305Y213622D01*
X39305Y213989D02*
X41139Y213989D01*
X40222Y210687D01*
D12*
X37900Y94100D02*
X37900Y62100D01*
X23900Y62100D01*
X23900Y94100D01*
X37900Y94100D01*
D13*
X33313Y56506D02*
X33313Y55773D01*
X33311Y55721D01*
X33306Y55669D01*
X33296Y55617D01*
X33283Y55566D01*
X33267Y55516D01*
X33247Y55468D01*
X33223Y55421D01*
X33196Y55376D01*
X33167Y55333D01*
X33134Y55292D01*
X33098Y55254D01*
X33060Y55218D01*
X33019Y55185D01*
X32976Y55156D01*
X32931Y55129D01*
X32884Y55105D01*
X32836Y55085D01*
X32786Y55069D01*
X32735Y55056D01*
X32683Y55046D01*
X32631Y55041D01*
X32579Y55039D01*
X30745Y55039D01*
X30693Y55041D01*
X30641Y55046D01*
X30589Y55056D01*
X30538Y55069D01*
X30489Y55085D01*
X30440Y55105D01*
X30393Y55129D01*
X30348Y55156D01*
X30305Y55185D01*
X30264Y55218D01*
X30226Y55254D01*
X30190Y55292D01*
X30157Y55333D01*
X30128Y55376D01*
X30101Y55421D01*
X30077Y55468D01*
X30057Y55516D01*
X30041Y55566D01*
X30028Y55617D01*
X30018Y55668D01*
X30013Y55721D01*
X30011Y55773D01*
X30011Y56506D01*
X32396Y58105D02*
X32337Y58107D01*
X32279Y58113D01*
X32221Y58122D01*
X32163Y58135D01*
X32107Y58152D01*
X32052Y58172D01*
X31998Y58196D01*
X31946Y58223D01*
X31896Y58253D01*
X31848Y58287D01*
X31802Y58324D01*
X31758Y58363D01*
X31717Y58406D01*
X31679Y58450D01*
X31644Y58497D01*
X31612Y58547D01*
X31583Y58598D01*
X31557Y58651D01*
X31535Y58705D01*
X31517Y58761D01*
X31502Y58818D01*
X31491Y58876D01*
X31483Y58934D01*
X31479Y58993D01*
X31479Y59051D01*
X31483Y59110D01*
X31491Y59168D01*
X31502Y59226D01*
X31517Y59283D01*
X31535Y59339D01*
X31557Y59393D01*
X31583Y59446D01*
X31612Y59497D01*
X31644Y59547D01*
X31679Y59594D01*
X31717Y59638D01*
X31758Y59681D01*
X31802Y59720D01*
X31848Y59757D01*
X31896Y59791D01*
X31946Y59821D01*
X31998Y59848D01*
X32052Y59872D01*
X32107Y59892D01*
X32163Y59909D01*
X32221Y59922D01*
X32279Y59931D01*
X32337Y59937D01*
X32396Y59939D01*
X32455Y59937D01*
X32513Y59931D01*
X32571Y59922D01*
X32629Y59909D01*
X32685Y59892D01*
X32740Y59872D01*
X32794Y59848D01*
X32846Y59821D01*
X32896Y59791D01*
X32944Y59757D01*
X32990Y59720D01*
X33034Y59681D01*
X33075Y59638D01*
X33113Y59594D01*
X33148Y59547D01*
X33180Y59497D01*
X33209Y59446D01*
X33235Y59393D01*
X33257Y59339D01*
X33275Y59283D01*
X33290Y59226D01*
X33301Y59168D01*
X33309Y59110D01*
X33313Y59051D01*
X33313Y58993D01*
X33309Y58934D01*
X33301Y58876D01*
X33290Y58818D01*
X33275Y58761D01*
X33257Y58705D01*
X33235Y58651D01*
X33209Y58598D01*
X33180Y58547D01*
X33148Y58497D01*
X33113Y58450D01*
X33075Y58406D01*
X33034Y58363D01*
X32990Y58324D01*
X32944Y58287D01*
X32896Y58253D01*
X32846Y58223D01*
X32794Y58196D01*
X32740Y58172D01*
X32685Y58152D01*
X32629Y58135D01*
X32571Y58122D01*
X32513Y58113D01*
X32455Y58107D01*
X32396Y58105D01*
X30745Y58288D02*
X30693Y58290D01*
X30641Y58295D01*
X30589Y58305D01*
X30538Y58318D01*
X30488Y58334D01*
X30440Y58354D01*
X30393Y58378D01*
X30348Y58405D01*
X30305Y58434D01*
X30264Y58467D01*
X30226Y58503D01*
X30190Y58541D01*
X30157Y58582D01*
X30128Y58625D01*
X30101Y58670D01*
X30077Y58717D01*
X30057Y58765D01*
X30041Y58815D01*
X30028Y58866D01*
X30018Y58918D01*
X30013Y58970D01*
X30011Y59022D01*
X30013Y59074D01*
X30018Y59126D01*
X30028Y59178D01*
X30041Y59229D01*
X30057Y59279D01*
X30077Y59327D01*
X30101Y59374D01*
X30128Y59419D01*
X30157Y59462D01*
X30190Y59503D01*
X30226Y59541D01*
X30264Y59577D01*
X30305Y59610D01*
X30348Y59639D01*
X30393Y59666D01*
X30440Y59690D01*
X30488Y59710D01*
X30538Y59726D01*
X30589Y59739D01*
X30641Y59749D01*
X30693Y59754D01*
X30745Y59756D01*
X30797Y59754D01*
X30849Y59749D01*
X30901Y59739D01*
X30952Y59726D01*
X31002Y59710D01*
X31050Y59690D01*
X31097Y59666D01*
X31142Y59639D01*
X31185Y59610D01*
X31226Y59577D01*
X31264Y59541D01*
X31300Y59503D01*
X31333Y59462D01*
X31362Y59419D01*
X31389Y59374D01*
X31413Y59327D01*
X31433Y59279D01*
X31449Y59229D01*
X31462Y59178D01*
X31472Y59126D01*
X31477Y59074D01*
X31479Y59022D01*
X31477Y58970D01*
X31472Y58918D01*
X31462Y58866D01*
X31449Y58815D01*
X31433Y58765D01*
X31413Y58717D01*
X31389Y58670D01*
X31362Y58625D01*
X31333Y58582D01*
X31300Y58541D01*
X31264Y58503D01*
X31226Y58467D01*
X31185Y58434D01*
X31142Y58405D01*
X31097Y58378D01*
X31050Y58354D01*
X31002Y58334D01*
X30952Y58318D01*
X30901Y58305D01*
X30849Y58295D01*
X30797Y58290D01*
X30745Y58288D01*
D12*
X74370Y125600D02*
X91830Y125600D01*
X91830Y139600D02*
X74370Y139600D01*
X80100Y128600D02*
X86100Y132600D01*
X80100Y128600D02*
X80100Y136600D01*
X86100Y132600D01*
D14*
X87100Y132600D03*
D13*
X77581Y141941D02*
X77581Y145243D01*
X78498Y145243D01*
X78556Y145241D01*
X78613Y145236D01*
X78670Y145227D01*
X78726Y145214D01*
X78781Y145198D01*
X78836Y145179D01*
X78888Y145156D01*
X78940Y145130D01*
X78989Y145100D01*
X79037Y145068D01*
X79083Y145033D01*
X79126Y144994D01*
X79166Y144954D01*
X79205Y144911D01*
X79240Y144865D01*
X79272Y144817D01*
X79302Y144768D01*
X79328Y144716D01*
X79351Y144664D01*
X79370Y144609D01*
X79386Y144554D01*
X79399Y144498D01*
X79408Y144441D01*
X79413Y144384D01*
X79415Y144326D01*
X79415Y142858D01*
X79413Y142798D01*
X79407Y142738D01*
X79397Y142679D01*
X79384Y142621D01*
X79366Y142563D01*
X79345Y142507D01*
X79320Y142452D01*
X79292Y142400D01*
X79260Y142349D01*
X79226Y142300D01*
X79187Y142253D01*
X79146Y142210D01*
X79103Y142169D01*
X79056Y142131D01*
X79007Y142096D01*
X78957Y142064D01*
X78904Y142036D01*
X78849Y142011D01*
X78793Y141990D01*
X78735Y141972D01*
X78677Y141959D01*
X78618Y141949D01*
X78558Y141943D01*
X78498Y141941D01*
X77581Y141941D01*
X81361Y144509D02*
X82278Y145243D01*
X82278Y141941D01*
X81361Y141941D02*
X83195Y141941D01*
D12*
X74870Y106600D02*
X92330Y106600D01*
X92330Y120600D02*
X74870Y120600D01*
X80600Y109600D02*
X86600Y113600D01*
X80600Y109600D02*
X80600Y117600D01*
X86600Y113600D01*
D14*
X87600Y113600D03*
D13*
X75305Y104059D02*
X75305Y100757D01*
X75305Y104059D02*
X76222Y104059D01*
X76280Y104057D01*
X76337Y104052D01*
X76394Y104043D01*
X76450Y104030D01*
X76505Y104014D01*
X76560Y103995D01*
X76612Y103972D01*
X76664Y103946D01*
X76713Y103916D01*
X76761Y103884D01*
X76807Y103849D01*
X76850Y103810D01*
X76890Y103770D01*
X76929Y103727D01*
X76964Y103681D01*
X76996Y103633D01*
X77026Y103584D01*
X77052Y103532D01*
X77075Y103480D01*
X77094Y103425D01*
X77110Y103370D01*
X77123Y103314D01*
X77132Y103257D01*
X77137Y103200D01*
X77139Y103142D01*
X77140Y103142D02*
X77140Y101674D01*
X77139Y101674D02*
X77137Y101614D01*
X77131Y101554D01*
X77121Y101495D01*
X77108Y101437D01*
X77090Y101379D01*
X77069Y101323D01*
X77044Y101268D01*
X77016Y101216D01*
X76984Y101165D01*
X76950Y101116D01*
X76911Y101069D01*
X76870Y101026D01*
X76827Y100985D01*
X76780Y100947D01*
X76731Y100912D01*
X76681Y100880D01*
X76628Y100852D01*
X76573Y100827D01*
X76517Y100806D01*
X76459Y100788D01*
X76401Y100775D01*
X76342Y100765D01*
X76282Y100759D01*
X76222Y100757D01*
X75305Y100757D01*
X80094Y104060D02*
X80150Y104058D01*
X80206Y104052D01*
X80262Y104043D01*
X80317Y104029D01*
X80371Y104012D01*
X80423Y103992D01*
X80474Y103967D01*
X80523Y103940D01*
X80570Y103909D01*
X80615Y103875D01*
X80658Y103838D01*
X80698Y103798D01*
X80735Y103755D01*
X80769Y103710D01*
X80800Y103663D01*
X80827Y103614D01*
X80852Y103563D01*
X80872Y103511D01*
X80889Y103457D01*
X80903Y103402D01*
X80912Y103346D01*
X80918Y103290D01*
X80920Y103234D01*
X80094Y104059D02*
X80030Y104057D01*
X79967Y104051D01*
X79904Y104042D01*
X79842Y104029D01*
X79781Y104012D01*
X79721Y103991D01*
X79662Y103967D01*
X79605Y103940D01*
X79549Y103909D01*
X79496Y103874D01*
X79445Y103837D01*
X79395Y103797D01*
X79349Y103753D01*
X79305Y103707D01*
X79264Y103659D01*
X79226Y103608D01*
X79191Y103555D01*
X79159Y103500D01*
X79131Y103443D01*
X79106Y103385D01*
X79085Y103325D01*
X80644Y102592D02*
X80682Y102631D01*
X80719Y102673D01*
X80752Y102717D01*
X80783Y102762D01*
X80811Y102810D01*
X80836Y102859D01*
X80858Y102910D01*
X80876Y102962D01*
X80892Y103015D01*
X80904Y103069D01*
X80912Y103124D01*
X80917Y103179D01*
X80919Y103234D01*
X80644Y102591D02*
X79085Y100757D01*
X80919Y100757D01*
D15*
X82000Y900D02*
X158000Y900D01*
X82000Y26400D02*
X82000Y30400D01*
X158000Y30400D02*
X158000Y26400D01*
X82000Y4400D02*
X82000Y1400D01*
X158000Y1400D02*
X158000Y4400D01*
D16*
X99000Y50400D02*
X99002Y50463D01*
X99008Y50525D01*
X99018Y50587D01*
X99031Y50649D01*
X99049Y50709D01*
X99070Y50768D01*
X99095Y50826D01*
X99124Y50882D01*
X99156Y50936D01*
X99191Y50988D01*
X99229Y51037D01*
X99271Y51085D01*
X99315Y51129D01*
X99363Y51171D01*
X99412Y51209D01*
X99464Y51244D01*
X99518Y51276D01*
X99574Y51305D01*
X99632Y51330D01*
X99691Y51351D01*
X99751Y51369D01*
X99813Y51382D01*
X99875Y51392D01*
X99937Y51398D01*
X100000Y51400D01*
X100063Y51398D01*
X100125Y51392D01*
X100187Y51382D01*
X100249Y51369D01*
X100309Y51351D01*
X100368Y51330D01*
X100426Y51305D01*
X100482Y51276D01*
X100536Y51244D01*
X100588Y51209D01*
X100637Y51171D01*
X100685Y51129D01*
X100729Y51085D01*
X100771Y51037D01*
X100809Y50988D01*
X100844Y50936D01*
X100876Y50882D01*
X100905Y50826D01*
X100930Y50768D01*
X100951Y50709D01*
X100969Y50649D01*
X100982Y50587D01*
X100992Y50525D01*
X100998Y50463D01*
X101000Y50400D01*
X100998Y50337D01*
X100992Y50275D01*
X100982Y50213D01*
X100969Y50151D01*
X100951Y50091D01*
X100930Y50032D01*
X100905Y49974D01*
X100876Y49918D01*
X100844Y49864D01*
X100809Y49812D01*
X100771Y49763D01*
X100729Y49715D01*
X100685Y49671D01*
X100637Y49629D01*
X100588Y49591D01*
X100536Y49556D01*
X100482Y49524D01*
X100426Y49495D01*
X100368Y49470D01*
X100309Y49449D01*
X100249Y49431D01*
X100187Y49418D01*
X100125Y49408D01*
X100063Y49402D01*
X100000Y49400D01*
X99937Y49402D01*
X99875Y49408D01*
X99813Y49418D01*
X99751Y49431D01*
X99691Y49449D01*
X99632Y49470D01*
X99574Y49495D01*
X99518Y49524D01*
X99464Y49556D01*
X99412Y49591D01*
X99363Y49629D01*
X99315Y49671D01*
X99271Y49715D01*
X99229Y49763D01*
X99191Y49812D01*
X99156Y49864D01*
X99124Y49918D01*
X99095Y49974D01*
X99070Y50032D01*
X99049Y50091D01*
X99031Y50151D01*
X99018Y50213D01*
X99008Y50275D01*
X99002Y50337D01*
X99000Y50400D01*
D10*
X72853Y49876D02*
X72853Y46913D01*
X72851Y46858D01*
X72846Y46802D01*
X72837Y46748D01*
X72824Y46694D01*
X72808Y46641D01*
X72789Y46589D01*
X72766Y46538D01*
X72740Y46489D01*
X72710Y46442D01*
X72678Y46397D01*
X72643Y46355D01*
X72605Y46314D01*
X72564Y46276D01*
X72522Y46241D01*
X72477Y46209D01*
X72429Y46179D01*
X72381Y46153D01*
X72330Y46130D01*
X72278Y46111D01*
X72225Y46095D01*
X72171Y46082D01*
X72117Y46073D01*
X72061Y46068D01*
X72006Y46066D01*
X71583Y46066D01*
X74503Y49030D02*
X75561Y49876D01*
X75561Y46066D01*
X74503Y46066D02*
X76619Y46066D01*
D12*
X32700Y34600D02*
X32700Y6600D01*
X19700Y6600D02*
X19700Y34600D01*
X19700Y6600D02*
X32700Y6600D01*
X32700Y34600D02*
X19700Y34600D01*
X26200Y18600D02*
X30200Y18600D01*
X26200Y18600D02*
X22200Y18600D01*
X26200Y18600D02*
X30200Y22600D01*
X22200Y22600D01*
X26200Y18600D01*
D13*
X25081Y36201D02*
X25081Y39503D01*
X25081Y36201D02*
X26549Y36201D01*
X28251Y36201D02*
X29718Y36201D01*
X28251Y36201D02*
X28251Y39503D01*
X29718Y39503D01*
X29352Y38035D02*
X28251Y38035D01*
X31409Y39503D02*
X31409Y36201D01*
X31409Y39503D02*
X32326Y39503D01*
X32384Y39501D01*
X32441Y39496D01*
X32498Y39487D01*
X32554Y39474D01*
X32609Y39458D01*
X32664Y39439D01*
X32716Y39416D01*
X32768Y39390D01*
X32817Y39360D01*
X32865Y39328D01*
X32911Y39293D01*
X32954Y39254D01*
X32994Y39214D01*
X33033Y39171D01*
X33068Y39125D01*
X33100Y39077D01*
X33130Y39028D01*
X33156Y38976D01*
X33179Y38924D01*
X33198Y38869D01*
X33214Y38814D01*
X33227Y38758D01*
X33236Y38701D01*
X33241Y38644D01*
X33243Y38586D01*
X33243Y37118D01*
X33241Y37058D01*
X33235Y36998D01*
X33225Y36939D01*
X33212Y36881D01*
X33194Y36823D01*
X33173Y36767D01*
X33148Y36712D01*
X33120Y36660D01*
X33088Y36609D01*
X33054Y36560D01*
X33015Y36513D01*
X32974Y36470D01*
X32931Y36429D01*
X32884Y36391D01*
X32835Y36356D01*
X32785Y36324D01*
X32732Y36296D01*
X32677Y36271D01*
X32621Y36250D01*
X32563Y36232D01*
X32505Y36219D01*
X32446Y36209D01*
X32386Y36203D01*
X32326Y36201D01*
X31409Y36201D01*
X35188Y38769D02*
X36105Y39503D01*
X36105Y36201D01*
X35188Y36201D02*
X37023Y36201D01*
D12*
X24600Y125200D02*
X52600Y125200D01*
X52600Y138200D02*
X24600Y138200D01*
X24600Y125200D01*
X52600Y125200D02*
X52600Y138200D01*
X36600Y131700D02*
X36600Y127700D01*
X36600Y131700D02*
X36600Y135700D01*
X36600Y131700D02*
X40600Y127700D01*
X40600Y135700D01*
X36600Y131700D01*
D13*
X11081Y130603D02*
X11081Y127301D01*
X12549Y127301D01*
X14251Y127301D02*
X15718Y127301D01*
X14251Y127301D02*
X14251Y130603D01*
X15718Y130603D01*
X15352Y129135D02*
X14251Y129135D01*
X17409Y130603D02*
X17409Y127301D01*
X17409Y130603D02*
X18326Y130603D01*
X18384Y130601D01*
X18441Y130596D01*
X18498Y130587D01*
X18554Y130574D01*
X18609Y130558D01*
X18664Y130539D01*
X18716Y130516D01*
X18768Y130490D01*
X18817Y130460D01*
X18865Y130428D01*
X18911Y130393D01*
X18954Y130354D01*
X18994Y130314D01*
X19033Y130271D01*
X19068Y130225D01*
X19100Y130177D01*
X19130Y130128D01*
X19156Y130076D01*
X19179Y130024D01*
X19198Y129969D01*
X19214Y129914D01*
X19227Y129858D01*
X19236Y129801D01*
X19241Y129744D01*
X19243Y129686D01*
X19243Y128218D01*
X19241Y128158D01*
X19235Y128098D01*
X19225Y128039D01*
X19212Y127981D01*
X19194Y127923D01*
X19173Y127867D01*
X19148Y127812D01*
X19120Y127760D01*
X19088Y127709D01*
X19054Y127660D01*
X19015Y127613D01*
X18974Y127570D01*
X18931Y127529D01*
X18884Y127491D01*
X18835Y127456D01*
X18785Y127424D01*
X18732Y127396D01*
X18677Y127371D01*
X18621Y127350D01*
X18563Y127332D01*
X18505Y127319D01*
X18446Y127309D01*
X18386Y127303D01*
X18326Y127301D01*
X17409Y127301D01*
X22197Y130604D02*
X22253Y130602D01*
X22309Y130596D01*
X22365Y130587D01*
X22420Y130573D01*
X22474Y130556D01*
X22526Y130536D01*
X22577Y130511D01*
X22626Y130484D01*
X22673Y130453D01*
X22718Y130419D01*
X22761Y130382D01*
X22801Y130342D01*
X22838Y130299D01*
X22872Y130254D01*
X22903Y130207D01*
X22930Y130158D01*
X22955Y130107D01*
X22975Y130055D01*
X22992Y130001D01*
X23006Y129946D01*
X23015Y129890D01*
X23021Y129834D01*
X23023Y129778D01*
X22197Y130603D02*
X22133Y130601D01*
X22070Y130595D01*
X22007Y130586D01*
X21945Y130573D01*
X21884Y130556D01*
X21824Y130535D01*
X21765Y130511D01*
X21708Y130484D01*
X21652Y130453D01*
X21599Y130418D01*
X21548Y130381D01*
X21498Y130341D01*
X21452Y130297D01*
X21408Y130251D01*
X21367Y130203D01*
X21329Y130152D01*
X21294Y130099D01*
X21262Y130044D01*
X21234Y129987D01*
X21209Y129929D01*
X21188Y129869D01*
X22748Y129136D02*
X22786Y129175D01*
X22823Y129217D01*
X22856Y129261D01*
X22887Y129306D01*
X22915Y129354D01*
X22940Y129403D01*
X22962Y129454D01*
X22980Y129506D01*
X22996Y129559D01*
X23008Y129613D01*
X23016Y129668D01*
X23021Y129723D01*
X23023Y129778D01*
X22747Y129135D02*
X21188Y127301D01*
X23023Y127301D01*
D12*
X5300Y380200D02*
X5300Y412200D01*
X19300Y412200D01*
X19300Y380200D01*
X5300Y380200D01*
D13*
X9361Y413811D02*
X9361Y417113D01*
X10278Y417113D01*
X10337Y417111D01*
X10395Y417105D01*
X10453Y417096D01*
X10511Y417083D01*
X10567Y417066D01*
X10622Y417046D01*
X10676Y417022D01*
X10728Y416995D01*
X10778Y416965D01*
X10826Y416931D01*
X10872Y416894D01*
X10916Y416855D01*
X10957Y416812D01*
X10995Y416768D01*
X11030Y416721D01*
X11062Y416671D01*
X11091Y416620D01*
X11117Y416567D01*
X11139Y416513D01*
X11157Y416457D01*
X11172Y416400D01*
X11183Y416342D01*
X11191Y416284D01*
X11195Y416225D01*
X11195Y416167D01*
X11191Y416108D01*
X11183Y416050D01*
X11172Y415992D01*
X11157Y415935D01*
X11139Y415879D01*
X11117Y415825D01*
X11091Y415772D01*
X11062Y415721D01*
X11030Y415671D01*
X10995Y415624D01*
X10957Y415580D01*
X10916Y415537D01*
X10872Y415498D01*
X10826Y415461D01*
X10778Y415427D01*
X10728Y415397D01*
X10676Y415370D01*
X10622Y415346D01*
X10567Y415326D01*
X10511Y415309D01*
X10453Y415296D01*
X10395Y415287D01*
X10337Y415281D01*
X10278Y415279D01*
X9361Y415279D01*
X10462Y415279D02*
X11195Y413811D01*
X12979Y416379D02*
X13896Y417113D01*
X13896Y413811D01*
X12979Y413811D02*
X14814Y413811D01*
D12*
X16700Y34800D02*
X16700Y2800D01*
X2700Y2800D01*
X2700Y34800D01*
X16700Y34800D01*
D13*
X5361Y36811D02*
X5361Y40113D01*
X6278Y40113D01*
X6337Y40111D01*
X6395Y40105D01*
X6453Y40096D01*
X6511Y40083D01*
X6567Y40066D01*
X6622Y40046D01*
X6676Y40022D01*
X6728Y39995D01*
X6778Y39965D01*
X6826Y39931D01*
X6872Y39894D01*
X6916Y39855D01*
X6957Y39812D01*
X6995Y39768D01*
X7030Y39721D01*
X7062Y39671D01*
X7091Y39620D01*
X7117Y39567D01*
X7139Y39513D01*
X7157Y39457D01*
X7172Y39400D01*
X7183Y39342D01*
X7191Y39284D01*
X7195Y39225D01*
X7195Y39167D01*
X7191Y39108D01*
X7183Y39050D01*
X7172Y38992D01*
X7157Y38935D01*
X7139Y38879D01*
X7117Y38825D01*
X7091Y38772D01*
X7062Y38721D01*
X7030Y38671D01*
X6995Y38624D01*
X6957Y38580D01*
X6916Y38537D01*
X6872Y38498D01*
X6826Y38461D01*
X6778Y38427D01*
X6728Y38397D01*
X6676Y38370D01*
X6622Y38346D01*
X6567Y38326D01*
X6511Y38309D01*
X6453Y38296D01*
X6395Y38287D01*
X6337Y38281D01*
X6278Y38279D01*
X5361Y38279D01*
X6462Y38279D02*
X7195Y36811D01*
X8979Y39379D02*
X9896Y40113D01*
X9896Y36811D01*
X8979Y36811D02*
X10814Y36811D01*
X12637Y38462D02*
X12639Y38565D01*
X12645Y38668D01*
X12654Y38770D01*
X12668Y38872D01*
X12685Y38973D01*
X12707Y39074D01*
X12732Y39174D01*
X12760Y39272D01*
X12793Y39370D01*
X12829Y39466D01*
X12869Y39561D01*
X12912Y39654D01*
X12929Y39700D01*
X12951Y39745D01*
X12975Y39788D01*
X13002Y39830D01*
X13033Y39869D01*
X13066Y39906D01*
X13101Y39940D01*
X13139Y39972D01*
X13180Y40001D01*
X13222Y40026D01*
X13266Y40049D01*
X13312Y40068D01*
X13359Y40084D01*
X13407Y40097D01*
X13455Y40106D01*
X13504Y40111D01*
X13554Y40113D01*
X13604Y40111D01*
X13653Y40106D01*
X13701Y40097D01*
X13749Y40084D01*
X13796Y40068D01*
X13842Y40049D01*
X13886Y40026D01*
X13928Y40001D01*
X13969Y39972D01*
X14007Y39940D01*
X14042Y39906D01*
X14075Y39869D01*
X14106Y39830D01*
X14133Y39788D01*
X14157Y39745D01*
X14179Y39700D01*
X14196Y39654D01*
X14239Y39561D01*
X14279Y39466D01*
X14315Y39370D01*
X14348Y39272D01*
X14376Y39174D01*
X14401Y39074D01*
X14423Y38973D01*
X14440Y38872D01*
X14454Y38770D01*
X14463Y38668D01*
X14469Y38565D01*
X14471Y38462D01*
X12637Y38462D02*
X12639Y38359D01*
X12645Y38257D01*
X12654Y38154D01*
X12668Y38052D01*
X12685Y37951D01*
X12707Y37850D01*
X12732Y37750D01*
X12760Y37652D01*
X12793Y37554D01*
X12829Y37458D01*
X12869Y37363D01*
X12912Y37270D01*
X12929Y37224D01*
X12951Y37179D01*
X12975Y37136D01*
X13002Y37094D01*
X13033Y37055D01*
X13066Y37018D01*
X13101Y36984D01*
X13139Y36952D01*
X13180Y36923D01*
X13222Y36898D01*
X13266Y36875D01*
X13312Y36856D01*
X13359Y36840D01*
X13407Y36827D01*
X13455Y36818D01*
X13504Y36813D01*
X13554Y36811D01*
X14196Y37270D02*
X14239Y37363D01*
X14279Y37458D01*
X14315Y37554D01*
X14348Y37652D01*
X14376Y37750D01*
X14401Y37850D01*
X14423Y37951D01*
X14440Y38052D01*
X14454Y38154D01*
X14463Y38256D01*
X14469Y38359D01*
X14471Y38462D01*
X14196Y37270D02*
X14179Y37224D01*
X14157Y37179D01*
X14133Y37136D01*
X14106Y37094D01*
X14075Y37055D01*
X14042Y37018D01*
X14007Y36984D01*
X13969Y36952D01*
X13928Y36923D01*
X13886Y36898D01*
X13842Y36875D01*
X13796Y36856D01*
X13749Y36840D01*
X13701Y36827D01*
X13653Y36818D01*
X13604Y36813D01*
X13554Y36811D01*
X12820Y37545D02*
X14288Y39379D01*
D12*
X5500Y345900D02*
X5500Y377900D01*
X19500Y377900D01*
X19500Y345900D01*
X5500Y345900D01*
D13*
X9061Y343913D02*
X9061Y340611D01*
X9061Y343913D02*
X9978Y343913D01*
X10037Y343911D01*
X10095Y343905D01*
X10153Y343896D01*
X10211Y343883D01*
X10267Y343866D01*
X10322Y343846D01*
X10376Y343822D01*
X10428Y343795D01*
X10478Y343765D01*
X10526Y343731D01*
X10572Y343694D01*
X10616Y343655D01*
X10657Y343612D01*
X10695Y343568D01*
X10730Y343521D01*
X10762Y343471D01*
X10791Y343420D01*
X10817Y343367D01*
X10839Y343313D01*
X10857Y343257D01*
X10872Y343200D01*
X10883Y343142D01*
X10891Y343084D01*
X10895Y343025D01*
X10895Y342967D01*
X10891Y342908D01*
X10883Y342850D01*
X10872Y342792D01*
X10857Y342735D01*
X10839Y342679D01*
X10817Y342625D01*
X10791Y342572D01*
X10762Y342521D01*
X10730Y342471D01*
X10695Y342424D01*
X10657Y342380D01*
X10616Y342337D01*
X10572Y342298D01*
X10526Y342261D01*
X10478Y342227D01*
X10428Y342197D01*
X10376Y342170D01*
X10322Y342146D01*
X10267Y342126D01*
X10211Y342109D01*
X10153Y342096D01*
X10095Y342087D01*
X10037Y342081D01*
X9978Y342079D01*
X9061Y342079D01*
X10162Y342079D02*
X10895Y340611D01*
X13688Y343914D02*
X13744Y343912D01*
X13800Y343906D01*
X13856Y343897D01*
X13911Y343883D01*
X13965Y343866D01*
X14017Y343846D01*
X14068Y343821D01*
X14117Y343794D01*
X14164Y343763D01*
X14209Y343729D01*
X14252Y343692D01*
X14292Y343652D01*
X14329Y343609D01*
X14363Y343564D01*
X14394Y343517D01*
X14421Y343468D01*
X14446Y343417D01*
X14466Y343365D01*
X14483Y343311D01*
X14497Y343256D01*
X14506Y343200D01*
X14512Y343144D01*
X14514Y343088D01*
X13688Y343913D02*
X13624Y343911D01*
X13561Y343905D01*
X13498Y343896D01*
X13436Y343883D01*
X13375Y343866D01*
X13315Y343845D01*
X13256Y343821D01*
X13199Y343794D01*
X13143Y343763D01*
X13090Y343728D01*
X13039Y343691D01*
X12989Y343651D01*
X12943Y343607D01*
X12899Y343561D01*
X12858Y343513D01*
X12820Y343462D01*
X12785Y343409D01*
X12753Y343354D01*
X12725Y343297D01*
X12700Y343239D01*
X12679Y343179D01*
X14239Y342446D02*
X14277Y342485D01*
X14314Y342527D01*
X14347Y342571D01*
X14378Y342616D01*
X14406Y342664D01*
X14431Y342713D01*
X14453Y342764D01*
X14471Y342816D01*
X14487Y342869D01*
X14499Y342923D01*
X14507Y342978D01*
X14512Y343033D01*
X14514Y343088D01*
X14238Y342445D02*
X12679Y340611D01*
X14514Y340611D01*
D12*
X117900Y136500D02*
X149900Y136500D01*
X117900Y136500D02*
X117900Y150500D01*
X149900Y150500D01*
X149900Y136500D01*
D13*
X116389Y136261D02*
X113087Y136261D01*
X113087Y137178D01*
X113089Y137237D01*
X113095Y137295D01*
X113104Y137353D01*
X113117Y137411D01*
X113134Y137467D01*
X113154Y137522D01*
X113178Y137576D01*
X113205Y137628D01*
X113235Y137678D01*
X113269Y137726D01*
X113306Y137772D01*
X113345Y137816D01*
X113388Y137857D01*
X113432Y137895D01*
X113479Y137930D01*
X113529Y137962D01*
X113580Y137991D01*
X113633Y138017D01*
X113687Y138039D01*
X113743Y138057D01*
X113800Y138072D01*
X113858Y138083D01*
X113916Y138091D01*
X113975Y138095D01*
X114033Y138095D01*
X114092Y138091D01*
X114150Y138083D01*
X114208Y138072D01*
X114265Y138057D01*
X114321Y138039D01*
X114375Y138017D01*
X114428Y137991D01*
X114479Y137962D01*
X114529Y137930D01*
X114576Y137895D01*
X114620Y137857D01*
X114663Y137816D01*
X114702Y137772D01*
X114739Y137726D01*
X114773Y137678D01*
X114803Y137628D01*
X114830Y137576D01*
X114854Y137522D01*
X114874Y137467D01*
X114891Y137411D01*
X114904Y137353D01*
X114913Y137295D01*
X114919Y137237D01*
X114921Y137178D01*
X114921Y136261D01*
X114921Y137362D02*
X116389Y138095D01*
X116389Y139879D02*
X116389Y140796D01*
X116387Y140855D01*
X116381Y140913D01*
X116372Y140971D01*
X116359Y141029D01*
X116342Y141085D01*
X116322Y141140D01*
X116298Y141194D01*
X116271Y141246D01*
X116241Y141296D01*
X116207Y141344D01*
X116170Y141390D01*
X116131Y141434D01*
X116088Y141475D01*
X116044Y141513D01*
X115997Y141548D01*
X115947Y141580D01*
X115896Y141609D01*
X115843Y141635D01*
X115789Y141657D01*
X115733Y141675D01*
X115676Y141690D01*
X115618Y141701D01*
X115560Y141709D01*
X115501Y141713D01*
X115443Y141713D01*
X115384Y141709D01*
X115326Y141701D01*
X115268Y141690D01*
X115211Y141675D01*
X115155Y141657D01*
X115101Y141635D01*
X115048Y141609D01*
X114997Y141580D01*
X114947Y141548D01*
X114900Y141513D01*
X114856Y141475D01*
X114813Y141434D01*
X114774Y141390D01*
X114737Y141344D01*
X114703Y141296D01*
X114673Y141246D01*
X114646Y141194D01*
X114622Y141140D01*
X114602Y141085D01*
X114585Y141029D01*
X114572Y140971D01*
X114563Y140913D01*
X114557Y140855D01*
X114555Y140796D01*
X113087Y140980D02*
X113087Y139879D01*
X113087Y140980D02*
X113089Y141032D01*
X113094Y141084D01*
X113104Y141136D01*
X113117Y141187D01*
X113133Y141237D01*
X113153Y141285D01*
X113177Y141332D01*
X113204Y141377D01*
X113233Y141420D01*
X113266Y141461D01*
X113302Y141499D01*
X113340Y141535D01*
X113381Y141568D01*
X113424Y141597D01*
X113469Y141624D01*
X113516Y141648D01*
X113564Y141668D01*
X113614Y141684D01*
X113665Y141697D01*
X113717Y141707D01*
X113769Y141712D01*
X113821Y141714D01*
X113873Y141712D01*
X113925Y141707D01*
X113977Y141697D01*
X114028Y141684D01*
X114078Y141668D01*
X114126Y141648D01*
X114173Y141624D01*
X114218Y141597D01*
X114261Y141568D01*
X114302Y141535D01*
X114340Y141499D01*
X114376Y141461D01*
X114409Y141420D01*
X114438Y141377D01*
X114465Y141332D01*
X114489Y141285D01*
X114509Y141237D01*
X114525Y141187D01*
X114538Y141136D01*
X114548Y141084D01*
X114553Y141032D01*
X114555Y140980D01*
X114555Y140246D01*
D12*
X151500Y103700D02*
X151500Y71700D01*
X137500Y71700D01*
X137500Y103700D01*
X151500Y103700D01*
D13*
X146913Y64086D02*
X143611Y64086D01*
X143611Y65004D01*
X143613Y65063D01*
X143619Y65121D01*
X143628Y65179D01*
X143641Y65237D01*
X143658Y65293D01*
X143678Y65348D01*
X143702Y65402D01*
X143729Y65454D01*
X143759Y65504D01*
X143793Y65552D01*
X143830Y65598D01*
X143869Y65642D01*
X143912Y65683D01*
X143956Y65721D01*
X144003Y65756D01*
X144053Y65788D01*
X144104Y65817D01*
X144157Y65843D01*
X144211Y65865D01*
X144267Y65883D01*
X144324Y65898D01*
X144382Y65909D01*
X144440Y65917D01*
X144499Y65921D01*
X144557Y65921D01*
X144616Y65917D01*
X144674Y65909D01*
X144732Y65898D01*
X144789Y65883D01*
X144845Y65865D01*
X144899Y65843D01*
X144952Y65817D01*
X145003Y65788D01*
X145053Y65756D01*
X145100Y65721D01*
X145144Y65683D01*
X145187Y65642D01*
X145226Y65598D01*
X145263Y65552D01*
X145297Y65504D01*
X145327Y65454D01*
X145354Y65402D01*
X145378Y65348D01*
X145398Y65293D01*
X145415Y65237D01*
X145428Y65179D01*
X145437Y65121D01*
X145443Y65063D01*
X145445Y65004D01*
X145445Y64086D01*
X145445Y65187D02*
X146913Y65921D01*
X146179Y67705D02*
X143611Y68438D01*
X146179Y67705D02*
X146179Y69539D01*
X145445Y68989D02*
X146913Y68989D01*
D12*
X75400Y203500D02*
X43400Y203500D01*
X75400Y203500D02*
X75400Y189500D01*
X43400Y189500D01*
X43400Y203500D01*
D13*
X77561Y198913D02*
X77561Y195611D01*
X77561Y198913D02*
X78478Y198913D01*
X78537Y198911D01*
X78595Y198905D01*
X78653Y198896D01*
X78711Y198883D01*
X78767Y198866D01*
X78822Y198846D01*
X78876Y198822D01*
X78928Y198795D01*
X78978Y198765D01*
X79026Y198731D01*
X79072Y198694D01*
X79116Y198655D01*
X79157Y198612D01*
X79195Y198568D01*
X79230Y198521D01*
X79262Y198471D01*
X79291Y198420D01*
X79317Y198367D01*
X79339Y198313D01*
X79357Y198257D01*
X79372Y198200D01*
X79383Y198142D01*
X79391Y198084D01*
X79395Y198025D01*
X79395Y197967D01*
X79391Y197908D01*
X79383Y197850D01*
X79372Y197792D01*
X79357Y197735D01*
X79339Y197679D01*
X79317Y197625D01*
X79291Y197572D01*
X79262Y197521D01*
X79230Y197471D01*
X79195Y197424D01*
X79157Y197380D01*
X79116Y197337D01*
X79072Y197298D01*
X79026Y197261D01*
X78978Y197227D01*
X78928Y197197D01*
X78876Y197170D01*
X78822Y197146D01*
X78767Y197126D01*
X78711Y197109D01*
X78653Y197096D01*
X78595Y197087D01*
X78537Y197081D01*
X78478Y197079D01*
X77561Y197079D01*
X78662Y197079D02*
X79395Y195611D01*
X81179Y195611D02*
X82280Y195611D01*
X82332Y195613D01*
X82384Y195618D01*
X82436Y195628D01*
X82487Y195641D01*
X82537Y195657D01*
X82585Y195677D01*
X82632Y195701D01*
X82677Y195728D01*
X82720Y195757D01*
X82761Y195790D01*
X82799Y195826D01*
X82835Y195864D01*
X82868Y195905D01*
X82897Y195948D01*
X82924Y195993D01*
X82948Y196040D01*
X82968Y196088D01*
X82984Y196138D01*
X82997Y196189D01*
X83007Y196241D01*
X83012Y196293D01*
X83014Y196345D01*
X83014Y196712D01*
X83012Y196764D01*
X83007Y196816D01*
X82997Y196868D01*
X82984Y196919D01*
X82968Y196969D01*
X82948Y197017D01*
X82924Y197064D01*
X82897Y197109D01*
X82868Y197152D01*
X82835Y197193D01*
X82799Y197231D01*
X82761Y197267D01*
X82720Y197300D01*
X82677Y197329D01*
X82632Y197356D01*
X82585Y197380D01*
X82537Y197400D01*
X82487Y197416D01*
X82436Y197429D01*
X82384Y197439D01*
X82332Y197444D01*
X82280Y197446D01*
X82280Y197445D02*
X81179Y197445D01*
X81179Y198913D01*
X83014Y198913D01*
D12*
X155500Y204100D02*
X155500Y236100D01*
X155500Y204100D02*
X141500Y204100D01*
X141500Y236100D01*
X155500Y236100D01*
D13*
X147061Y201913D02*
X147061Y198611D01*
X147061Y201913D02*
X147978Y201913D01*
X148037Y201911D01*
X148095Y201905D01*
X148153Y201896D01*
X148211Y201883D01*
X148267Y201866D01*
X148322Y201846D01*
X148376Y201822D01*
X148428Y201795D01*
X148478Y201765D01*
X148526Y201731D01*
X148572Y201694D01*
X148616Y201655D01*
X148657Y201612D01*
X148695Y201568D01*
X148730Y201521D01*
X148762Y201471D01*
X148791Y201420D01*
X148817Y201367D01*
X148839Y201313D01*
X148857Y201257D01*
X148872Y201200D01*
X148883Y201142D01*
X148891Y201084D01*
X148895Y201025D01*
X148895Y200967D01*
X148891Y200908D01*
X148883Y200850D01*
X148872Y200792D01*
X148857Y200735D01*
X148839Y200679D01*
X148817Y200625D01*
X148791Y200572D01*
X148762Y200521D01*
X148730Y200471D01*
X148695Y200424D01*
X148657Y200380D01*
X148616Y200337D01*
X148572Y200298D01*
X148526Y200261D01*
X148478Y200227D01*
X148428Y200197D01*
X148376Y200170D01*
X148322Y200146D01*
X148267Y200126D01*
X148211Y200109D01*
X148153Y200096D01*
X148095Y200087D01*
X148037Y200081D01*
X147978Y200079D01*
X147061Y200079D01*
X148162Y200079D02*
X148895Y198611D01*
X150679Y200445D02*
X151780Y200445D01*
X151780Y200446D02*
X151832Y200444D01*
X151884Y200439D01*
X151936Y200429D01*
X151987Y200416D01*
X152037Y200400D01*
X152085Y200380D01*
X152132Y200356D01*
X152177Y200329D01*
X152220Y200300D01*
X152261Y200267D01*
X152299Y200231D01*
X152335Y200193D01*
X152368Y200152D01*
X152397Y200109D01*
X152424Y200064D01*
X152448Y200017D01*
X152468Y199969D01*
X152484Y199919D01*
X152497Y199868D01*
X152507Y199816D01*
X152512Y199764D01*
X152514Y199712D01*
X152514Y199528D01*
X152513Y199528D02*
X152511Y199469D01*
X152505Y199411D01*
X152496Y199353D01*
X152483Y199295D01*
X152466Y199239D01*
X152446Y199184D01*
X152422Y199130D01*
X152395Y199078D01*
X152365Y199028D01*
X152331Y198980D01*
X152294Y198934D01*
X152255Y198890D01*
X152212Y198849D01*
X152168Y198811D01*
X152121Y198776D01*
X152071Y198744D01*
X152020Y198715D01*
X151967Y198689D01*
X151913Y198667D01*
X151857Y198649D01*
X151800Y198634D01*
X151742Y198623D01*
X151684Y198615D01*
X151625Y198611D01*
X151567Y198611D01*
X151508Y198615D01*
X151450Y198623D01*
X151392Y198634D01*
X151335Y198649D01*
X151279Y198667D01*
X151225Y198689D01*
X151172Y198715D01*
X151121Y198744D01*
X151071Y198776D01*
X151024Y198811D01*
X150980Y198849D01*
X150937Y198890D01*
X150898Y198934D01*
X150861Y198980D01*
X150827Y199028D01*
X150797Y199078D01*
X150770Y199130D01*
X150746Y199184D01*
X150726Y199239D01*
X150709Y199295D01*
X150696Y199353D01*
X150687Y199411D01*
X150681Y199469D01*
X150679Y199528D01*
X150679Y200445D01*
X150681Y200519D01*
X150687Y200594D01*
X150696Y200667D01*
X150709Y200741D01*
X150726Y200813D01*
X150746Y200884D01*
X150770Y200955D01*
X150798Y201024D01*
X150829Y201091D01*
X150863Y201157D01*
X150901Y201222D01*
X150942Y201284D01*
X150986Y201344D01*
X151033Y201401D01*
X151083Y201456D01*
X151136Y201509D01*
X151191Y201559D01*
X151248Y201606D01*
X151308Y201650D01*
X151370Y201691D01*
X151435Y201729D01*
X151500Y201763D01*
X151568Y201794D01*
X151637Y201822D01*
X151708Y201846D01*
X151779Y201866D01*
X151851Y201883D01*
X151925Y201896D01*
X151998Y201905D01*
X152073Y201911D01*
X152147Y201913D01*
D12*
X171500Y203600D02*
X171500Y235600D01*
X171500Y203600D02*
X157500Y203600D01*
X157500Y235600D01*
X171500Y235600D01*
D13*
X161561Y201913D02*
X161561Y198611D01*
X161561Y201913D02*
X162478Y201913D01*
X162537Y201911D01*
X162595Y201905D01*
X162653Y201896D01*
X162711Y201883D01*
X162767Y201866D01*
X162822Y201846D01*
X162876Y201822D01*
X162928Y201795D01*
X162978Y201765D01*
X163026Y201731D01*
X163072Y201694D01*
X163116Y201655D01*
X163157Y201612D01*
X163195Y201568D01*
X163230Y201521D01*
X163262Y201471D01*
X163291Y201420D01*
X163317Y201367D01*
X163339Y201313D01*
X163357Y201257D01*
X163372Y201200D01*
X163383Y201142D01*
X163391Y201084D01*
X163395Y201025D01*
X163395Y200967D01*
X163391Y200908D01*
X163383Y200850D01*
X163372Y200792D01*
X163357Y200735D01*
X163339Y200679D01*
X163317Y200625D01*
X163291Y200572D01*
X163262Y200521D01*
X163230Y200471D01*
X163195Y200424D01*
X163157Y200380D01*
X163116Y200337D01*
X163072Y200298D01*
X163026Y200261D01*
X162978Y200227D01*
X162928Y200197D01*
X162876Y200170D01*
X162822Y200146D01*
X162767Y200126D01*
X162711Y200109D01*
X162653Y200096D01*
X162595Y200087D01*
X162537Y200081D01*
X162478Y200079D01*
X161561Y200079D01*
X162662Y200079D02*
X163395Y198611D01*
X165179Y201546D02*
X165179Y201913D01*
X167014Y201913D01*
X166096Y198611D01*
D12*
X81500Y96900D02*
X81500Y64900D01*
X81500Y96900D02*
X95500Y96900D01*
X95500Y64900D01*
X81500Y64900D01*
D13*
X87061Y98611D02*
X87061Y101913D01*
X87978Y101913D01*
X88037Y101911D01*
X88095Y101905D01*
X88153Y101896D01*
X88211Y101883D01*
X88267Y101866D01*
X88322Y101846D01*
X88376Y101822D01*
X88428Y101795D01*
X88478Y101765D01*
X88526Y101731D01*
X88572Y101694D01*
X88616Y101655D01*
X88657Y101612D01*
X88695Y101568D01*
X88730Y101521D01*
X88762Y101471D01*
X88791Y101420D01*
X88817Y101367D01*
X88839Y101313D01*
X88857Y101257D01*
X88872Y101200D01*
X88883Y101142D01*
X88891Y101084D01*
X88895Y101025D01*
X88895Y100967D01*
X88891Y100908D01*
X88883Y100850D01*
X88872Y100792D01*
X88857Y100735D01*
X88839Y100679D01*
X88817Y100625D01*
X88791Y100572D01*
X88762Y100521D01*
X88730Y100471D01*
X88695Y100424D01*
X88657Y100380D01*
X88616Y100337D01*
X88572Y100298D01*
X88526Y100261D01*
X88478Y100227D01*
X88428Y100197D01*
X88376Y100170D01*
X88322Y100146D01*
X88267Y100126D01*
X88211Y100109D01*
X88153Y100096D01*
X88095Y100087D01*
X88037Y100081D01*
X87978Y100079D01*
X87061Y100079D01*
X88162Y100079D02*
X88895Y98611D01*
X90679Y99528D02*
X90681Y99587D01*
X90687Y99645D01*
X90696Y99703D01*
X90709Y99761D01*
X90726Y99817D01*
X90746Y99872D01*
X90770Y99926D01*
X90797Y99978D01*
X90827Y100028D01*
X90861Y100076D01*
X90898Y100122D01*
X90937Y100166D01*
X90980Y100207D01*
X91024Y100245D01*
X91071Y100280D01*
X91121Y100312D01*
X91172Y100341D01*
X91225Y100367D01*
X91279Y100389D01*
X91335Y100407D01*
X91392Y100422D01*
X91450Y100433D01*
X91508Y100441D01*
X91567Y100445D01*
X91625Y100445D01*
X91684Y100441D01*
X91742Y100433D01*
X91800Y100422D01*
X91857Y100407D01*
X91913Y100389D01*
X91967Y100367D01*
X92020Y100341D01*
X92071Y100312D01*
X92121Y100280D01*
X92168Y100245D01*
X92212Y100207D01*
X92255Y100166D01*
X92294Y100122D01*
X92331Y100076D01*
X92365Y100028D01*
X92395Y99978D01*
X92422Y99926D01*
X92446Y99872D01*
X92466Y99817D01*
X92483Y99761D01*
X92496Y99703D01*
X92505Y99645D01*
X92511Y99587D01*
X92513Y99528D01*
X92511Y99469D01*
X92505Y99411D01*
X92496Y99353D01*
X92483Y99295D01*
X92466Y99239D01*
X92446Y99184D01*
X92422Y99130D01*
X92395Y99078D01*
X92365Y99028D01*
X92331Y98980D01*
X92294Y98934D01*
X92255Y98890D01*
X92212Y98849D01*
X92168Y98811D01*
X92121Y98776D01*
X92071Y98744D01*
X92020Y98715D01*
X91967Y98689D01*
X91913Y98667D01*
X91857Y98649D01*
X91800Y98634D01*
X91742Y98623D01*
X91684Y98615D01*
X91625Y98611D01*
X91567Y98611D01*
X91508Y98615D01*
X91450Y98623D01*
X91392Y98634D01*
X91335Y98649D01*
X91279Y98667D01*
X91225Y98689D01*
X91172Y98715D01*
X91121Y98744D01*
X91071Y98776D01*
X91024Y98811D01*
X90980Y98849D01*
X90937Y98890D01*
X90898Y98934D01*
X90861Y98980D01*
X90827Y99028D01*
X90797Y99078D01*
X90770Y99130D01*
X90746Y99184D01*
X90726Y99239D01*
X90709Y99295D01*
X90696Y99353D01*
X90687Y99411D01*
X90681Y99469D01*
X90679Y99528D01*
X90862Y101179D02*
X90864Y101231D01*
X90869Y101283D01*
X90879Y101335D01*
X90892Y101386D01*
X90908Y101436D01*
X90928Y101484D01*
X90952Y101531D01*
X90979Y101576D01*
X91008Y101619D01*
X91041Y101660D01*
X91077Y101698D01*
X91115Y101734D01*
X91156Y101767D01*
X91199Y101796D01*
X91244Y101823D01*
X91291Y101847D01*
X91339Y101867D01*
X91389Y101883D01*
X91440Y101896D01*
X91492Y101906D01*
X91544Y101911D01*
X91596Y101913D01*
X91648Y101911D01*
X91700Y101906D01*
X91752Y101896D01*
X91803Y101883D01*
X91853Y101867D01*
X91901Y101847D01*
X91948Y101823D01*
X91993Y101796D01*
X92036Y101767D01*
X92077Y101734D01*
X92115Y101698D01*
X92151Y101660D01*
X92184Y101619D01*
X92213Y101576D01*
X92240Y101531D01*
X92264Y101484D01*
X92284Y101436D01*
X92300Y101386D01*
X92313Y101335D01*
X92323Y101283D01*
X92328Y101231D01*
X92330Y101179D01*
X92328Y101127D01*
X92323Y101075D01*
X92313Y101023D01*
X92300Y100972D01*
X92284Y100922D01*
X92264Y100874D01*
X92240Y100827D01*
X92213Y100782D01*
X92184Y100739D01*
X92151Y100698D01*
X92115Y100660D01*
X92077Y100624D01*
X92036Y100591D01*
X91993Y100562D01*
X91948Y100535D01*
X91901Y100511D01*
X91853Y100491D01*
X91803Y100475D01*
X91752Y100462D01*
X91700Y100452D01*
X91648Y100447D01*
X91596Y100445D01*
X91544Y100447D01*
X91492Y100452D01*
X91440Y100462D01*
X91389Y100475D01*
X91339Y100491D01*
X91291Y100511D01*
X91244Y100535D01*
X91199Y100562D01*
X91156Y100591D01*
X91115Y100624D01*
X91077Y100660D01*
X91041Y100698D01*
X91008Y100739D01*
X90979Y100782D01*
X90952Y100827D01*
X90928Y100874D01*
X90908Y100922D01*
X90892Y100972D01*
X90879Y101023D01*
X90869Y101075D01*
X90864Y101127D01*
X90862Y101179D01*
D12*
X56500Y122500D02*
X24500Y122500D01*
X56500Y122500D02*
X56500Y108500D01*
X24500Y108500D01*
X24500Y122500D01*
D13*
X16661Y121913D02*
X16661Y118611D01*
X16661Y121913D02*
X17578Y121913D01*
X17637Y121911D01*
X17695Y121905D01*
X17753Y121896D01*
X17811Y121883D01*
X17867Y121866D01*
X17922Y121846D01*
X17976Y121822D01*
X18028Y121795D01*
X18078Y121765D01*
X18126Y121731D01*
X18172Y121694D01*
X18216Y121655D01*
X18257Y121612D01*
X18295Y121568D01*
X18330Y121521D01*
X18362Y121471D01*
X18391Y121420D01*
X18417Y121367D01*
X18439Y121313D01*
X18457Y121257D01*
X18472Y121200D01*
X18483Y121142D01*
X18491Y121084D01*
X18495Y121025D01*
X18495Y120967D01*
X18491Y120908D01*
X18483Y120850D01*
X18472Y120792D01*
X18457Y120735D01*
X18439Y120679D01*
X18417Y120625D01*
X18391Y120572D01*
X18362Y120521D01*
X18330Y120471D01*
X18295Y120424D01*
X18257Y120380D01*
X18216Y120337D01*
X18172Y120298D01*
X18126Y120261D01*
X18078Y120227D01*
X18028Y120197D01*
X17976Y120170D01*
X17922Y120146D01*
X17867Y120126D01*
X17811Y120109D01*
X17753Y120096D01*
X17695Y120087D01*
X17637Y120081D01*
X17578Y120079D01*
X16661Y120079D01*
X17762Y120079D02*
X18495Y118611D01*
X21013Y120079D02*
X22114Y120079D01*
X21013Y120078D02*
X20961Y120080D01*
X20909Y120085D01*
X20857Y120095D01*
X20806Y120108D01*
X20756Y120124D01*
X20708Y120144D01*
X20661Y120168D01*
X20616Y120195D01*
X20573Y120224D01*
X20532Y120257D01*
X20494Y120293D01*
X20458Y120331D01*
X20425Y120372D01*
X20396Y120415D01*
X20369Y120460D01*
X20345Y120507D01*
X20325Y120556D01*
X20309Y120605D01*
X20296Y120656D01*
X20286Y120708D01*
X20281Y120760D01*
X20279Y120812D01*
X20279Y120996D01*
X20281Y121055D01*
X20287Y121113D01*
X20296Y121171D01*
X20309Y121229D01*
X20326Y121285D01*
X20346Y121340D01*
X20370Y121394D01*
X20397Y121446D01*
X20427Y121496D01*
X20461Y121544D01*
X20498Y121590D01*
X20537Y121634D01*
X20580Y121675D01*
X20624Y121713D01*
X20671Y121748D01*
X20721Y121780D01*
X20772Y121809D01*
X20825Y121835D01*
X20879Y121857D01*
X20935Y121875D01*
X20992Y121890D01*
X21050Y121901D01*
X21108Y121909D01*
X21167Y121913D01*
X21225Y121913D01*
X21284Y121909D01*
X21342Y121901D01*
X21400Y121890D01*
X21457Y121875D01*
X21513Y121857D01*
X21567Y121835D01*
X21620Y121809D01*
X21671Y121780D01*
X21721Y121748D01*
X21768Y121713D01*
X21812Y121675D01*
X21855Y121634D01*
X21894Y121590D01*
X21931Y121544D01*
X21965Y121496D01*
X21995Y121446D01*
X22022Y121394D01*
X22046Y121340D01*
X22066Y121285D01*
X22083Y121229D01*
X22096Y121171D01*
X22105Y121113D01*
X22111Y121055D01*
X22113Y120996D01*
X22114Y120996D02*
X22114Y120079D01*
X22112Y120005D01*
X22106Y119930D01*
X22097Y119857D01*
X22084Y119783D01*
X22067Y119711D01*
X22047Y119640D01*
X22023Y119569D01*
X21995Y119500D01*
X21964Y119432D01*
X21930Y119367D01*
X21892Y119302D01*
X21851Y119240D01*
X21807Y119180D01*
X21760Y119123D01*
X21710Y119068D01*
X21657Y119015D01*
X21602Y118965D01*
X21545Y118918D01*
X21485Y118874D01*
X21423Y118833D01*
X21358Y118795D01*
X21292Y118761D01*
X21225Y118730D01*
X21156Y118702D01*
X21085Y118678D01*
X21014Y118658D01*
X20941Y118641D01*
X20868Y118628D01*
X20794Y118619D01*
X20720Y118613D01*
X20646Y118611D01*
D15*
X36700Y181100D02*
X36700Y199100D01*
X11700Y199100D01*
X11700Y197600D01*
X11700Y181600D02*
X11700Y162600D01*
X11700Y146600D02*
X11700Y145100D01*
X36700Y145100D01*
X36700Y163600D01*
D16*
X-450Y189600D02*
X-448Y189663D01*
X-442Y189725D01*
X-432Y189787D01*
X-419Y189849D01*
X-401Y189909D01*
X-380Y189968D01*
X-355Y190026D01*
X-326Y190082D01*
X-294Y190136D01*
X-259Y190188D01*
X-221Y190237D01*
X-179Y190285D01*
X-135Y190329D01*
X-87Y190371D01*
X-38Y190409D01*
X14Y190444D01*
X68Y190476D01*
X124Y190505D01*
X182Y190530D01*
X241Y190551D01*
X301Y190569D01*
X363Y190582D01*
X425Y190592D01*
X487Y190598D01*
X550Y190600D01*
X613Y190598D01*
X675Y190592D01*
X737Y190582D01*
X799Y190569D01*
X859Y190551D01*
X918Y190530D01*
X976Y190505D01*
X1032Y190476D01*
X1086Y190444D01*
X1138Y190409D01*
X1187Y190371D01*
X1235Y190329D01*
X1279Y190285D01*
X1321Y190237D01*
X1359Y190188D01*
X1394Y190136D01*
X1426Y190082D01*
X1455Y190026D01*
X1480Y189968D01*
X1501Y189909D01*
X1519Y189849D01*
X1532Y189787D01*
X1542Y189725D01*
X1548Y189663D01*
X1550Y189600D01*
X1548Y189537D01*
X1542Y189475D01*
X1532Y189413D01*
X1519Y189351D01*
X1501Y189291D01*
X1480Y189232D01*
X1455Y189174D01*
X1426Y189118D01*
X1394Y189064D01*
X1359Y189012D01*
X1321Y188963D01*
X1279Y188915D01*
X1235Y188871D01*
X1187Y188829D01*
X1138Y188791D01*
X1086Y188756D01*
X1032Y188724D01*
X976Y188695D01*
X918Y188670D01*
X859Y188649D01*
X799Y188631D01*
X737Y188618D01*
X675Y188608D01*
X613Y188602D01*
X550Y188600D01*
X487Y188602D01*
X425Y188608D01*
X363Y188618D01*
X301Y188631D01*
X241Y188649D01*
X182Y188670D01*
X124Y188695D01*
X68Y188724D01*
X14Y188756D01*
X-38Y188791D01*
X-87Y188829D01*
X-135Y188871D01*
X-179Y188915D01*
X-221Y188963D01*
X-259Y189012D01*
X-294Y189064D01*
X-326Y189118D01*
X-355Y189174D01*
X-380Y189232D01*
X-401Y189291D01*
X-419Y189351D01*
X-432Y189413D01*
X-442Y189475D01*
X-448Y189537D01*
X-450Y189600D01*
D10*
X21155Y200755D02*
X21213Y200757D01*
X21270Y200763D01*
X21327Y200773D01*
X21384Y200786D01*
X21439Y200804D01*
X21492Y200825D01*
X21545Y200850D01*
X21595Y200878D01*
X21643Y200910D01*
X21690Y200945D01*
X21733Y200983D01*
X21774Y201024D01*
X21812Y201067D01*
X21847Y201114D01*
X21879Y201162D01*
X21907Y201212D01*
X21932Y201265D01*
X21953Y201318D01*
X21971Y201373D01*
X21984Y201430D01*
X21994Y201487D01*
X22000Y201544D01*
X22002Y201602D01*
X21155Y200756D02*
X21072Y200758D01*
X20989Y200764D01*
X20907Y200773D01*
X20825Y200787D01*
X20744Y200804D01*
X20663Y200825D01*
X20584Y200850D01*
X20506Y200878D01*
X20429Y200910D01*
X20354Y200945D01*
X20281Y200984D01*
X20209Y201027D01*
X20140Y201072D01*
X20073Y201121D01*
X20008Y201173D01*
X19945Y201227D01*
X19885Y201285D01*
X19990Y203719D02*
X19992Y203774D01*
X19997Y203830D01*
X20006Y203884D01*
X20019Y203938D01*
X20035Y203991D01*
X20054Y204043D01*
X20077Y204094D01*
X20103Y204143D01*
X20133Y204190D01*
X20165Y204235D01*
X20200Y204277D01*
X20238Y204318D01*
X20279Y204356D01*
X20321Y204391D01*
X20366Y204423D01*
X20414Y204453D01*
X20462Y204479D01*
X20513Y204502D01*
X20565Y204521D01*
X20618Y204537D01*
X20672Y204550D01*
X20726Y204559D01*
X20782Y204564D01*
X20837Y204566D01*
X20916Y204564D01*
X20994Y204558D01*
X21072Y204549D01*
X21149Y204535D01*
X21226Y204518D01*
X21302Y204496D01*
X21376Y204472D01*
X21450Y204443D01*
X21521Y204411D01*
X21591Y204375D01*
X21660Y204336D01*
X21726Y204294D01*
X21790Y204248D01*
X20413Y202978D02*
X20366Y203008D01*
X20321Y203041D01*
X20278Y203077D01*
X20238Y203115D01*
X20200Y203156D01*
X20165Y203199D01*
X20133Y203245D01*
X20103Y203292D01*
X20077Y203342D01*
X20054Y203393D01*
X20035Y203445D01*
X20019Y203498D01*
X20006Y203553D01*
X19997Y203608D01*
X19992Y203663D01*
X19990Y203719D01*
X21578Y202343D02*
X21625Y202313D01*
X21670Y202280D01*
X21713Y202244D01*
X21753Y202206D01*
X21791Y202165D01*
X21826Y202122D01*
X21858Y202076D01*
X21888Y202029D01*
X21914Y201979D01*
X21937Y201928D01*
X21956Y201876D01*
X21972Y201823D01*
X21985Y201768D01*
X21994Y201713D01*
X21999Y201658D01*
X22001Y201602D01*
X21578Y202343D02*
X20414Y202978D01*
X23420Y203719D02*
X24479Y204565D01*
X24479Y200755D01*
X25537Y200755D02*
X23420Y200755D01*
D11*
X74094Y77352D02*
X74094Y74304D01*
X74094Y77352D02*
X74094Y83448D01*
X74094Y86496D01*
D17*
X74094Y83448D02*
X73985Y83446D01*
X73877Y83440D01*
X73768Y83431D01*
X73660Y83417D01*
X73553Y83400D01*
X73446Y83378D01*
X73340Y83353D01*
X73235Y83325D01*
X73131Y83292D01*
X73029Y83256D01*
X72928Y83216D01*
X72828Y83173D01*
X72730Y83126D01*
X72633Y83075D01*
X72539Y83021D01*
X72446Y82964D01*
X72356Y82904D01*
X72267Y82840D01*
X72181Y82773D01*
X72098Y82704D01*
X72017Y82631D01*
X71939Y82555D01*
X71863Y82477D01*
X71790Y82396D01*
X71721Y82313D01*
X71654Y82227D01*
X71590Y82138D01*
X71530Y82048D01*
X71473Y81955D01*
X71419Y81861D01*
X71368Y81764D01*
X71321Y81666D01*
X71278Y81566D01*
X71238Y81465D01*
X71202Y81363D01*
X71169Y81259D01*
X71141Y81154D01*
X71116Y81048D01*
X71094Y80941D01*
X71077Y80834D01*
X71063Y80726D01*
X71054Y80617D01*
X71048Y80509D01*
X71046Y80400D01*
X71048Y80291D01*
X71054Y80183D01*
X71063Y80074D01*
X71077Y79966D01*
X71094Y79859D01*
X71116Y79752D01*
X71141Y79646D01*
X71169Y79541D01*
X71202Y79437D01*
X71238Y79335D01*
X71278Y79234D01*
X71321Y79134D01*
X71368Y79036D01*
X71419Y78939D01*
X71473Y78845D01*
X71530Y78752D01*
X71590Y78662D01*
X71654Y78573D01*
X71721Y78487D01*
X71790Y78404D01*
X71863Y78323D01*
X71939Y78245D01*
X72017Y78169D01*
X72098Y78096D01*
X72181Y78027D01*
X72267Y77960D01*
X72356Y77896D01*
X72446Y77836D01*
X72539Y77779D01*
X72633Y77725D01*
X72730Y77674D01*
X72828Y77627D01*
X72928Y77584D01*
X73029Y77544D01*
X73131Y77508D01*
X73235Y77475D01*
X73340Y77447D01*
X73446Y77422D01*
X73553Y77400D01*
X73660Y77383D01*
X73768Y77369D01*
X73877Y77360D01*
X73985Y77354D01*
X74094Y77352D01*
D18*
X54331Y66216D02*
X54331Y63648D01*
X54333Y63586D01*
X54339Y63524D01*
X54349Y63463D01*
X54362Y63402D01*
X54379Y63343D01*
X54400Y63284D01*
X54425Y63227D01*
X54453Y63172D01*
X54485Y63119D01*
X54520Y63067D01*
X54558Y63018D01*
X54599Y62972D01*
X54643Y62928D01*
X54689Y62887D01*
X54738Y62849D01*
X54790Y62814D01*
X54843Y62782D01*
X54898Y62754D01*
X54955Y62729D01*
X55014Y62708D01*
X55073Y62691D01*
X55134Y62678D01*
X55195Y62668D01*
X55257Y62662D01*
X55319Y62660D01*
X55381Y62662D01*
X55443Y62668D01*
X55504Y62678D01*
X55565Y62691D01*
X55624Y62708D01*
X55683Y62729D01*
X55740Y62754D01*
X55795Y62782D01*
X55848Y62814D01*
X55900Y62849D01*
X55949Y62887D01*
X55995Y62928D01*
X56039Y62972D01*
X56080Y63018D01*
X56118Y63067D01*
X56153Y63119D01*
X56185Y63172D01*
X56213Y63227D01*
X56238Y63284D01*
X56259Y63343D01*
X56276Y63402D01*
X56289Y63463D01*
X56299Y63524D01*
X56305Y63586D01*
X56307Y63648D01*
X56307Y66216D01*
X58854Y66216D02*
X58854Y62660D01*
X58854Y64438D02*
X58361Y64734D01*
X58360Y64734D02*
X58321Y64760D01*
X58283Y64789D01*
X58248Y64822D01*
X58216Y64856D01*
X58186Y64894D01*
X58160Y64933D01*
X58137Y64975D01*
X58117Y65018D01*
X58101Y65063D01*
X58089Y65109D01*
X58080Y65156D01*
X58075Y65203D01*
X58074Y65251D01*
X58077Y65298D01*
X58084Y65346D01*
X58094Y65392D01*
X58108Y65437D01*
X58126Y65482D01*
X58147Y65524D01*
X58172Y65565D01*
X58199Y65604D01*
X58230Y65640D01*
X58264Y65674D01*
X58300Y65704D01*
X58339Y65732D01*
X58379Y65757D01*
X58422Y65778D01*
X58466Y65796D01*
X58512Y65810D01*
X58558Y65820D01*
X58558Y65821D02*
X58632Y65832D01*
X58707Y65840D01*
X58782Y65845D01*
X58857Y65846D01*
X58932Y65843D01*
X59007Y65837D01*
X59082Y65827D01*
X59156Y65814D01*
X59229Y65797D01*
X59302Y65776D01*
X59373Y65752D01*
X59443Y65725D01*
X59512Y65694D01*
X59579Y65660D01*
X59644Y65623D01*
X58854Y64438D02*
X59348Y64142D01*
X59349Y64142D02*
X59388Y64116D01*
X59426Y64087D01*
X59461Y64054D01*
X59493Y64020D01*
X59523Y63982D01*
X59549Y63943D01*
X59572Y63901D01*
X59592Y63858D01*
X59608Y63813D01*
X59620Y63767D01*
X59629Y63720D01*
X59634Y63673D01*
X59635Y63625D01*
X59632Y63578D01*
X59625Y63530D01*
X59615Y63484D01*
X59601Y63439D01*
X59583Y63394D01*
X59562Y63352D01*
X59537Y63311D01*
X59510Y63272D01*
X59479Y63236D01*
X59445Y63202D01*
X59409Y63172D01*
X59370Y63144D01*
X59330Y63119D01*
X59287Y63098D01*
X59243Y63080D01*
X59197Y63066D01*
X59151Y63056D01*
X59150Y63055D02*
X59076Y63044D01*
X59001Y63036D01*
X58926Y63031D01*
X58851Y63030D01*
X58776Y63033D01*
X58701Y63039D01*
X58626Y63049D01*
X58552Y63062D01*
X58479Y63079D01*
X58406Y63100D01*
X58335Y63124D01*
X58265Y63151D01*
X58196Y63182D01*
X58129Y63216D01*
X58064Y63253D01*
X61280Y65426D02*
X62268Y66216D01*
X62268Y62660D01*
X61280Y62660D02*
X63256Y62660D01*
D11*
X135212Y126096D02*
X135212Y134986D01*
X135212Y105014D02*
X127084Y105014D01*
X135212Y105014D02*
X135212Y113904D01*
X135212Y134986D02*
X131148Y134986D01*
X127084Y134986D01*
X127846Y131938D02*
X127956Y131930D01*
X128066Y131927D01*
X128176Y131928D01*
X128285Y131933D01*
X128395Y131941D01*
X128504Y131954D01*
X128613Y131970D01*
X128721Y131991D01*
X128828Y132015D01*
X128934Y132043D01*
X129039Y132075D01*
X129143Y132111D01*
X129246Y132150D01*
X129347Y132193D01*
X129446Y132240D01*
X129544Y132290D01*
X129640Y132344D01*
X129733Y132401D01*
X129825Y132462D01*
X129915Y132525D01*
X130002Y132592D01*
X130086Y132662D01*
X130168Y132735D01*
X130248Y132811D01*
X130324Y132890D01*
X130398Y132972D01*
X130469Y133056D01*
X130536Y133142D01*
X130601Y133231D01*
X130662Y133322D01*
X130720Y133416D01*
X130774Y133511D01*
X130825Y133608D01*
X130873Y133707D01*
X130917Y133808D01*
X130957Y133910D01*
X130994Y134014D01*
X131026Y134119D01*
X131055Y134225D01*
X131080Y134332D01*
X131102Y134440D01*
X131119Y134548D01*
X131132Y134657D01*
X131142Y134767D01*
X131147Y134876D01*
X131149Y134986D01*
D18*
X137769Y135240D02*
X137769Y132672D01*
X137771Y132610D01*
X137777Y132548D01*
X137787Y132487D01*
X137800Y132426D01*
X137817Y132367D01*
X137838Y132308D01*
X137863Y132251D01*
X137891Y132196D01*
X137923Y132143D01*
X137958Y132091D01*
X137996Y132042D01*
X138037Y131996D01*
X138081Y131952D01*
X138127Y131911D01*
X138176Y131873D01*
X138228Y131838D01*
X138281Y131806D01*
X138336Y131778D01*
X138393Y131753D01*
X138452Y131732D01*
X138511Y131715D01*
X138572Y131702D01*
X138633Y131692D01*
X138695Y131686D01*
X138757Y131684D01*
X138819Y131686D01*
X138881Y131692D01*
X138942Y131702D01*
X139003Y131715D01*
X139062Y131732D01*
X139121Y131753D01*
X139178Y131778D01*
X139233Y131806D01*
X139286Y131838D01*
X139338Y131873D01*
X139387Y131911D01*
X139433Y131952D01*
X139477Y131996D01*
X139518Y132042D01*
X139556Y132091D01*
X139591Y132143D01*
X139623Y132196D01*
X139651Y132251D01*
X139676Y132308D01*
X139697Y132367D01*
X139714Y132426D01*
X139727Y132487D01*
X139737Y132548D01*
X139743Y132610D01*
X139745Y132672D01*
X139745Y135240D01*
X141549Y134450D02*
X142537Y135240D01*
X142537Y131684D01*
X143524Y131684D02*
X141549Y131684D01*
D11*
X111388Y81004D02*
X111388Y72114D01*
X111388Y102086D02*
X119516Y102086D01*
X111388Y102086D02*
X111388Y93196D01*
X111388Y72114D02*
X115452Y72114D01*
X119516Y72114D01*
X118754Y75162D02*
X118644Y75170D01*
X118534Y75173D01*
X118424Y75172D01*
X118315Y75167D01*
X118205Y75159D01*
X118096Y75146D01*
X117987Y75130D01*
X117879Y75109D01*
X117772Y75085D01*
X117666Y75057D01*
X117561Y75025D01*
X117457Y74989D01*
X117354Y74950D01*
X117253Y74907D01*
X117154Y74860D01*
X117056Y74810D01*
X116960Y74756D01*
X116867Y74699D01*
X116775Y74638D01*
X116685Y74575D01*
X116598Y74508D01*
X116514Y74438D01*
X116432Y74365D01*
X116352Y74289D01*
X116276Y74210D01*
X116202Y74128D01*
X116131Y74044D01*
X116064Y73958D01*
X115999Y73869D01*
X115938Y73778D01*
X115880Y73684D01*
X115826Y73589D01*
X115775Y73492D01*
X115727Y73393D01*
X115683Y73292D01*
X115643Y73190D01*
X115606Y73086D01*
X115574Y72981D01*
X115545Y72875D01*
X115520Y72768D01*
X115498Y72660D01*
X115481Y72552D01*
X115468Y72443D01*
X115458Y72333D01*
X115453Y72224D01*
X115451Y72114D01*
D18*
X111169Y71140D02*
X111169Y68572D01*
X111171Y68510D01*
X111177Y68448D01*
X111187Y68387D01*
X111200Y68326D01*
X111217Y68267D01*
X111238Y68208D01*
X111263Y68151D01*
X111291Y68096D01*
X111323Y68043D01*
X111358Y67991D01*
X111396Y67942D01*
X111437Y67896D01*
X111481Y67852D01*
X111527Y67811D01*
X111576Y67773D01*
X111628Y67738D01*
X111681Y67706D01*
X111736Y67678D01*
X111793Y67653D01*
X111852Y67632D01*
X111911Y67615D01*
X111972Y67602D01*
X112033Y67592D01*
X112095Y67586D01*
X112157Y67584D01*
X112219Y67586D01*
X112281Y67592D01*
X112342Y67602D01*
X112403Y67615D01*
X112462Y67632D01*
X112521Y67653D01*
X112578Y67678D01*
X112633Y67706D01*
X112686Y67738D01*
X112738Y67773D01*
X112787Y67811D01*
X112833Y67852D01*
X112877Y67896D01*
X112918Y67942D01*
X112956Y67991D01*
X112991Y68043D01*
X113023Y68096D01*
X113051Y68151D01*
X113076Y68208D01*
X113097Y68267D01*
X113114Y68326D01*
X113127Y68387D01*
X113137Y68448D01*
X113143Y68510D01*
X113145Y68572D01*
X113145Y71140D01*
X116035Y71140D02*
X116093Y71138D01*
X116151Y71132D01*
X116208Y71123D01*
X116265Y71110D01*
X116321Y71093D01*
X116375Y71072D01*
X116428Y71048D01*
X116480Y71021D01*
X116529Y70990D01*
X116576Y70956D01*
X116621Y70919D01*
X116664Y70880D01*
X116703Y70837D01*
X116740Y70792D01*
X116774Y70745D01*
X116805Y70696D01*
X116832Y70644D01*
X116856Y70591D01*
X116877Y70537D01*
X116894Y70481D01*
X116907Y70424D01*
X116916Y70367D01*
X116922Y70309D01*
X116924Y70251D01*
X116035Y71140D02*
X115970Y71138D01*
X115905Y71133D01*
X115840Y71123D01*
X115776Y71110D01*
X115713Y71094D01*
X115651Y71073D01*
X115590Y71050D01*
X115531Y71023D01*
X115473Y70992D01*
X115417Y70958D01*
X115363Y70922D01*
X115312Y70882D01*
X115262Y70839D01*
X115216Y70793D01*
X115171Y70745D01*
X115130Y70695D01*
X115092Y70642D01*
X115057Y70587D01*
X115025Y70530D01*
X114996Y70471D01*
X114970Y70411D01*
X114949Y70350D01*
X116628Y69560D02*
X116669Y69602D01*
X116709Y69647D01*
X116745Y69694D01*
X116778Y69743D01*
X116808Y69795D01*
X116835Y69848D01*
X116858Y69902D01*
X116878Y69958D01*
X116895Y70016D01*
X116907Y70074D01*
X116917Y70132D01*
X116922Y70192D01*
X116924Y70251D01*
X116628Y69559D02*
X114949Y67584D01*
X116924Y67584D01*
D15*
X138600Y224200D02*
X138600Y230600D01*
X101400Y230600D02*
X101400Y224200D01*
X138600Y249400D02*
X138600Y255800D01*
X101400Y255800D02*
X101400Y249400D01*
D16*
X143000Y228000D02*
X143002Y228063D01*
X143008Y228125D01*
X143018Y228187D01*
X143031Y228249D01*
X143049Y228309D01*
X143070Y228368D01*
X143095Y228426D01*
X143124Y228482D01*
X143156Y228536D01*
X143191Y228588D01*
X143229Y228637D01*
X143271Y228685D01*
X143315Y228729D01*
X143363Y228771D01*
X143412Y228809D01*
X143464Y228844D01*
X143518Y228876D01*
X143574Y228905D01*
X143632Y228930D01*
X143691Y228951D01*
X143751Y228969D01*
X143813Y228982D01*
X143875Y228992D01*
X143937Y228998D01*
X144000Y229000D01*
X144063Y228998D01*
X144125Y228992D01*
X144187Y228982D01*
X144249Y228969D01*
X144309Y228951D01*
X144368Y228930D01*
X144426Y228905D01*
X144482Y228876D01*
X144536Y228844D01*
X144588Y228809D01*
X144637Y228771D01*
X144685Y228729D01*
X144729Y228685D01*
X144771Y228637D01*
X144809Y228588D01*
X144844Y228536D01*
X144876Y228482D01*
X144905Y228426D01*
X144930Y228368D01*
X144951Y228309D01*
X144969Y228249D01*
X144982Y228187D01*
X144992Y228125D01*
X144998Y228063D01*
X145000Y228000D01*
X144998Y227937D01*
X144992Y227875D01*
X144982Y227813D01*
X144969Y227751D01*
X144951Y227691D01*
X144930Y227632D01*
X144905Y227574D01*
X144876Y227518D01*
X144844Y227464D01*
X144809Y227412D01*
X144771Y227363D01*
X144729Y227315D01*
X144685Y227271D01*
X144637Y227229D01*
X144588Y227191D01*
X144536Y227156D01*
X144482Y227124D01*
X144426Y227095D01*
X144368Y227070D01*
X144309Y227049D01*
X144249Y227031D01*
X144187Y227018D01*
X144125Y227008D01*
X144063Y227002D01*
X144000Y227000D01*
X143937Y227002D01*
X143875Y227008D01*
X143813Y227018D01*
X143751Y227031D01*
X143691Y227049D01*
X143632Y227070D01*
X143574Y227095D01*
X143518Y227124D01*
X143464Y227156D01*
X143412Y227191D01*
X143363Y227229D01*
X143315Y227271D01*
X143271Y227315D01*
X143229Y227363D01*
X143191Y227412D01*
X143156Y227464D01*
X143124Y227518D01*
X143095Y227574D01*
X143070Y227632D01*
X143049Y227691D01*
X143031Y227751D01*
X143018Y227813D01*
X143008Y227875D01*
X143002Y227937D01*
X143000Y228000D01*
D10*
X102095Y258216D02*
X102095Y260968D01*
X102095Y258216D02*
X102097Y258152D01*
X102103Y258088D01*
X102112Y258025D01*
X102126Y257963D01*
X102143Y257901D01*
X102164Y257841D01*
X102188Y257782D01*
X102216Y257724D01*
X102248Y257669D01*
X102282Y257615D01*
X102320Y257564D01*
X102361Y257514D01*
X102405Y257468D01*
X102451Y257424D01*
X102501Y257383D01*
X102552Y257345D01*
X102606Y257311D01*
X102661Y257279D01*
X102719Y257251D01*
X102778Y257227D01*
X102838Y257206D01*
X102900Y257189D01*
X102962Y257175D01*
X103025Y257166D01*
X103089Y257160D01*
X103153Y257158D01*
X103217Y257160D01*
X103281Y257166D01*
X103344Y257175D01*
X103406Y257189D01*
X103468Y257206D01*
X103528Y257227D01*
X103587Y257251D01*
X103645Y257279D01*
X103700Y257311D01*
X103754Y257345D01*
X103805Y257383D01*
X103855Y257424D01*
X103901Y257468D01*
X103945Y257514D01*
X103986Y257564D01*
X104024Y257615D01*
X104058Y257669D01*
X104090Y257724D01*
X104118Y257782D01*
X104142Y257841D01*
X104163Y257901D01*
X104180Y257963D01*
X104194Y258025D01*
X104203Y258088D01*
X104209Y258152D01*
X104211Y258216D01*
X104211Y260968D01*
X105874Y257158D02*
X106933Y257158D01*
X106997Y257160D01*
X107061Y257166D01*
X107124Y257175D01*
X107186Y257189D01*
X107248Y257206D01*
X107308Y257227D01*
X107367Y257251D01*
X107425Y257279D01*
X107480Y257311D01*
X107534Y257345D01*
X107585Y257383D01*
X107635Y257424D01*
X107681Y257468D01*
X107725Y257514D01*
X107766Y257564D01*
X107804Y257615D01*
X107838Y257669D01*
X107870Y257724D01*
X107898Y257782D01*
X107922Y257841D01*
X107943Y257901D01*
X107960Y257963D01*
X107974Y258025D01*
X107983Y258088D01*
X107989Y258152D01*
X107991Y258216D01*
X107989Y258280D01*
X107983Y258344D01*
X107974Y258407D01*
X107960Y258469D01*
X107943Y258531D01*
X107922Y258591D01*
X107898Y258650D01*
X107870Y258708D01*
X107838Y258763D01*
X107804Y258817D01*
X107766Y258868D01*
X107725Y258918D01*
X107681Y258964D01*
X107635Y259008D01*
X107585Y259049D01*
X107534Y259087D01*
X107480Y259121D01*
X107425Y259153D01*
X107367Y259181D01*
X107308Y259205D01*
X107248Y259226D01*
X107186Y259243D01*
X107124Y259257D01*
X107061Y259266D01*
X106997Y259272D01*
X106933Y259274D01*
X107144Y260968D02*
X105874Y260968D01*
X107144Y260968D02*
X107201Y260966D01*
X107257Y260960D01*
X107313Y260951D01*
X107368Y260938D01*
X107422Y260921D01*
X107475Y260901D01*
X107526Y260877D01*
X107576Y260850D01*
X107623Y260819D01*
X107669Y260786D01*
X107712Y260749D01*
X107753Y260710D01*
X107791Y260668D01*
X107826Y260623D01*
X107858Y260577D01*
X107887Y260528D01*
X107912Y260478D01*
X107934Y260425D01*
X107953Y260372D01*
X107968Y260317D01*
X107979Y260262D01*
X107987Y260206D01*
X107991Y260149D01*
X107991Y260093D01*
X107987Y260036D01*
X107979Y259980D01*
X107968Y259925D01*
X107953Y259870D01*
X107934Y259817D01*
X107912Y259764D01*
X107887Y259714D01*
X107858Y259665D01*
X107826Y259619D01*
X107791Y259574D01*
X107753Y259532D01*
X107712Y259493D01*
X107669Y259456D01*
X107623Y259423D01*
X107576Y259392D01*
X107526Y259365D01*
X107475Y259341D01*
X107422Y259321D01*
X107368Y259304D01*
X107313Y259291D01*
X107257Y259282D01*
X107201Y259276D01*
X107144Y259274D01*
X106298Y259274D01*
D15*
X30800Y284400D02*
X30800Y290900D01*
X30800Y284400D02*
X55300Y284400D01*
X186300Y284400D02*
X210800Y284400D01*
X210800Y290900D01*
X30800Y474400D02*
X30800Y539400D01*
X210800Y539400D01*
X210800Y474400D01*
D16*
X19800Y464400D02*
X19802Y464463D01*
X19808Y464525D01*
X19818Y464587D01*
X19831Y464649D01*
X19849Y464709D01*
X19870Y464768D01*
X19895Y464826D01*
X19924Y464882D01*
X19956Y464936D01*
X19991Y464988D01*
X20029Y465037D01*
X20071Y465085D01*
X20115Y465129D01*
X20163Y465171D01*
X20212Y465209D01*
X20264Y465244D01*
X20318Y465276D01*
X20374Y465305D01*
X20432Y465330D01*
X20491Y465351D01*
X20551Y465369D01*
X20613Y465382D01*
X20675Y465392D01*
X20737Y465398D01*
X20800Y465400D01*
X20863Y465398D01*
X20925Y465392D01*
X20987Y465382D01*
X21049Y465369D01*
X21109Y465351D01*
X21168Y465330D01*
X21226Y465305D01*
X21282Y465276D01*
X21336Y465244D01*
X21388Y465209D01*
X21437Y465171D01*
X21485Y465129D01*
X21529Y465085D01*
X21571Y465037D01*
X21609Y464988D01*
X21644Y464936D01*
X21676Y464882D01*
X21705Y464826D01*
X21730Y464768D01*
X21751Y464709D01*
X21769Y464649D01*
X21782Y464587D01*
X21792Y464525D01*
X21798Y464463D01*
X21800Y464400D01*
X21798Y464337D01*
X21792Y464275D01*
X21782Y464213D01*
X21769Y464151D01*
X21751Y464091D01*
X21730Y464032D01*
X21705Y463974D01*
X21676Y463918D01*
X21644Y463864D01*
X21609Y463812D01*
X21571Y463763D01*
X21529Y463715D01*
X21485Y463671D01*
X21437Y463629D01*
X21388Y463591D01*
X21336Y463556D01*
X21282Y463524D01*
X21226Y463495D01*
X21168Y463470D01*
X21109Y463449D01*
X21049Y463431D01*
X20987Y463418D01*
X20925Y463408D01*
X20863Y463402D01*
X20800Y463400D01*
X20737Y463402D01*
X20675Y463408D01*
X20613Y463418D01*
X20551Y463431D01*
X20491Y463449D01*
X20432Y463470D01*
X20374Y463495D01*
X20318Y463524D01*
X20264Y463556D01*
X20212Y463591D01*
X20163Y463629D01*
X20115Y463671D01*
X20071Y463715D01*
X20029Y463763D01*
X19991Y463812D01*
X19956Y463864D01*
X19924Y463918D01*
X19895Y463974D01*
X19870Y464032D01*
X19849Y464091D01*
X19831Y464151D01*
X19818Y464213D01*
X19808Y464275D01*
X19802Y464337D01*
X19800Y464400D01*
D15*
X110800Y471900D02*
X110803Y472145D01*
X110812Y472391D01*
X110827Y472636D01*
X110848Y472880D01*
X110875Y473124D01*
X110908Y473367D01*
X110947Y473610D01*
X110992Y473851D01*
X111043Y474091D01*
X111100Y474330D01*
X111162Y474567D01*
X111231Y474803D01*
X111305Y475037D01*
X111385Y475269D01*
X111470Y475499D01*
X111561Y475727D01*
X111658Y475952D01*
X111760Y476176D01*
X111868Y476396D01*
X111981Y476614D01*
X112099Y476829D01*
X112223Y477041D01*
X112351Y477250D01*
X112485Y477456D01*
X112624Y477658D01*
X112768Y477857D01*
X112917Y478052D01*
X113070Y478244D01*
X113228Y478432D01*
X113390Y478616D01*
X113558Y478795D01*
X113729Y478971D01*
X113905Y479142D01*
X114084Y479310D01*
X114268Y479472D01*
X114456Y479630D01*
X114648Y479783D01*
X114843Y479932D01*
X115042Y480076D01*
X115244Y480215D01*
X115450Y480349D01*
X115659Y480477D01*
X115871Y480601D01*
X116086Y480719D01*
X116304Y480832D01*
X116524Y480940D01*
X116748Y481042D01*
X116973Y481139D01*
X117201Y481230D01*
X117431Y481315D01*
X117663Y481395D01*
X117897Y481469D01*
X118133Y481538D01*
X118370Y481600D01*
X118609Y481657D01*
X118849Y481708D01*
X119090Y481753D01*
X119333Y481792D01*
X119576Y481825D01*
X119820Y481852D01*
X120064Y481873D01*
X120309Y481888D01*
X120555Y481897D01*
X120800Y481900D01*
X121045Y481897D01*
X121291Y481888D01*
X121536Y481873D01*
X121780Y481852D01*
X122024Y481825D01*
X122267Y481792D01*
X122510Y481753D01*
X122751Y481708D01*
X122991Y481657D01*
X123230Y481600D01*
X123467Y481538D01*
X123703Y481469D01*
X123937Y481395D01*
X124169Y481315D01*
X124399Y481230D01*
X124627Y481139D01*
X124852Y481042D01*
X125076Y480940D01*
X125296Y480832D01*
X125514Y480719D01*
X125729Y480601D01*
X125941Y480477D01*
X126150Y480349D01*
X126356Y480215D01*
X126558Y480076D01*
X126757Y479932D01*
X126952Y479783D01*
X127144Y479630D01*
X127332Y479472D01*
X127516Y479310D01*
X127695Y479142D01*
X127871Y478971D01*
X128042Y478795D01*
X128210Y478616D01*
X128372Y478432D01*
X128530Y478244D01*
X128683Y478052D01*
X128832Y477857D01*
X128976Y477658D01*
X129115Y477456D01*
X129249Y477250D01*
X129377Y477041D01*
X129501Y476829D01*
X129619Y476614D01*
X129732Y476396D01*
X129840Y476176D01*
X129942Y475952D01*
X130039Y475727D01*
X130130Y475499D01*
X130215Y475269D01*
X130295Y475037D01*
X130369Y474803D01*
X130438Y474567D01*
X130500Y474330D01*
X130557Y474091D01*
X130608Y473851D01*
X130653Y473610D01*
X130692Y473367D01*
X130725Y473124D01*
X130752Y472880D01*
X130773Y472636D01*
X130788Y472391D01*
X130797Y472145D01*
X130800Y471900D01*
X130797Y471655D01*
X130788Y471409D01*
X130773Y471164D01*
X130752Y470920D01*
X130725Y470676D01*
X130692Y470433D01*
X130653Y470190D01*
X130608Y469949D01*
X130557Y469709D01*
X130500Y469470D01*
X130438Y469233D01*
X130369Y468997D01*
X130295Y468763D01*
X130215Y468531D01*
X130130Y468301D01*
X130039Y468073D01*
X129942Y467848D01*
X129840Y467624D01*
X129732Y467404D01*
X129619Y467186D01*
X129501Y466971D01*
X129377Y466759D01*
X129249Y466550D01*
X129115Y466344D01*
X128976Y466142D01*
X128832Y465943D01*
X128683Y465748D01*
X128530Y465556D01*
X128372Y465368D01*
X128210Y465184D01*
X128042Y465005D01*
X127871Y464829D01*
X127695Y464658D01*
X127516Y464490D01*
X127332Y464328D01*
X127144Y464170D01*
X126952Y464017D01*
X126757Y463868D01*
X126558Y463724D01*
X126356Y463585D01*
X126150Y463451D01*
X125941Y463323D01*
X125729Y463199D01*
X125514Y463081D01*
X125296Y462968D01*
X125076Y462860D01*
X124852Y462758D01*
X124627Y462661D01*
X124399Y462570D01*
X124169Y462485D01*
X123937Y462405D01*
X123703Y462331D01*
X123467Y462262D01*
X123230Y462200D01*
X122991Y462143D01*
X122751Y462092D01*
X122510Y462047D01*
X122267Y462008D01*
X122024Y461975D01*
X121780Y461948D01*
X121536Y461927D01*
X121291Y461912D01*
X121045Y461903D01*
X120800Y461900D01*
X120555Y461903D01*
X120309Y461912D01*
X120064Y461927D01*
X119820Y461948D01*
X119576Y461975D01*
X119333Y462008D01*
X119090Y462047D01*
X118849Y462092D01*
X118609Y462143D01*
X118370Y462200D01*
X118133Y462262D01*
X117897Y462331D01*
X117663Y462405D01*
X117431Y462485D01*
X117201Y462570D01*
X116973Y462661D01*
X116748Y462758D01*
X116524Y462860D01*
X116304Y462968D01*
X116086Y463081D01*
X115871Y463199D01*
X115659Y463323D01*
X115450Y463451D01*
X115244Y463585D01*
X115042Y463724D01*
X114843Y463868D01*
X114648Y464017D01*
X114456Y464170D01*
X114268Y464328D01*
X114084Y464490D01*
X113905Y464658D01*
X113729Y464829D01*
X113558Y465005D01*
X113390Y465184D01*
X113228Y465368D01*
X113070Y465556D01*
X112917Y465748D01*
X112768Y465943D01*
X112624Y466142D01*
X112485Y466344D01*
X112351Y466550D01*
X112223Y466759D01*
X112099Y466971D01*
X111981Y467186D01*
X111868Y467404D01*
X111760Y467624D01*
X111658Y467848D01*
X111561Y468073D01*
X111470Y468301D01*
X111385Y468531D01*
X111305Y468763D01*
X111231Y468997D01*
X111162Y469233D01*
X111100Y469470D01*
X111043Y469709D01*
X110992Y469949D01*
X110947Y470190D01*
X110908Y470433D01*
X110875Y470676D01*
X110848Y470920D01*
X110827Y471164D01*
X110812Y471409D01*
X110803Y471655D01*
X110800Y471900D01*
D10*
X21927Y474585D02*
X21927Y477337D01*
X21927Y474585D02*
X21929Y474521D01*
X21935Y474457D01*
X21944Y474394D01*
X21958Y474332D01*
X21975Y474270D01*
X21996Y474210D01*
X22020Y474151D01*
X22048Y474093D01*
X22080Y474038D01*
X22114Y473984D01*
X22152Y473933D01*
X22193Y473883D01*
X22237Y473837D01*
X22283Y473793D01*
X22333Y473752D01*
X22384Y473714D01*
X22438Y473680D01*
X22493Y473648D01*
X22551Y473620D01*
X22610Y473596D01*
X22670Y473575D01*
X22732Y473558D01*
X22794Y473544D01*
X22857Y473535D01*
X22921Y473529D01*
X22985Y473527D01*
X23049Y473529D01*
X23113Y473535D01*
X23176Y473544D01*
X23238Y473558D01*
X23300Y473575D01*
X23360Y473596D01*
X23419Y473620D01*
X23477Y473648D01*
X23532Y473680D01*
X23586Y473714D01*
X23637Y473752D01*
X23687Y473793D01*
X23733Y473837D01*
X23777Y473883D01*
X23818Y473933D01*
X23856Y473984D01*
X23890Y474038D01*
X23922Y474093D01*
X23950Y474151D01*
X23974Y474210D01*
X23995Y474270D01*
X24012Y474332D01*
X24026Y474394D01*
X24035Y474457D01*
X24041Y474521D01*
X24043Y474585D01*
X24044Y474585D02*
X24044Y477337D01*
X26553Y477337D02*
X25707Y474374D01*
X27823Y474374D01*
X27188Y475220D02*
X27188Y473527D01*
D15*
X161400Y92300D02*
X161400Y88500D01*
X165200Y88500D01*
X197600Y88500D02*
X201400Y88500D01*
X201400Y92300D01*
X165200Y128500D02*
X161400Y128500D01*
X161400Y124700D01*
X201400Y124700D02*
X201400Y128500D01*
X197600Y128500D01*
D16*
X168000Y80960D02*
X168002Y81023D01*
X168008Y81085D01*
X168018Y81147D01*
X168031Y81209D01*
X168049Y81269D01*
X168070Y81328D01*
X168095Y81386D01*
X168124Y81442D01*
X168156Y81496D01*
X168191Y81548D01*
X168229Y81597D01*
X168271Y81645D01*
X168315Y81689D01*
X168363Y81731D01*
X168412Y81769D01*
X168464Y81804D01*
X168518Y81836D01*
X168574Y81865D01*
X168632Y81890D01*
X168691Y81911D01*
X168751Y81929D01*
X168813Y81942D01*
X168875Y81952D01*
X168937Y81958D01*
X169000Y81960D01*
X169063Y81958D01*
X169125Y81952D01*
X169187Y81942D01*
X169249Y81929D01*
X169309Y81911D01*
X169368Y81890D01*
X169426Y81865D01*
X169482Y81836D01*
X169536Y81804D01*
X169588Y81769D01*
X169637Y81731D01*
X169685Y81689D01*
X169729Y81645D01*
X169771Y81597D01*
X169809Y81548D01*
X169844Y81496D01*
X169876Y81442D01*
X169905Y81386D01*
X169930Y81328D01*
X169951Y81269D01*
X169969Y81209D01*
X169982Y81147D01*
X169992Y81085D01*
X169998Y81023D01*
X170000Y80960D01*
X169998Y80897D01*
X169992Y80835D01*
X169982Y80773D01*
X169969Y80711D01*
X169951Y80651D01*
X169930Y80592D01*
X169905Y80534D01*
X169876Y80478D01*
X169844Y80424D01*
X169809Y80372D01*
X169771Y80323D01*
X169729Y80275D01*
X169685Y80231D01*
X169637Y80189D01*
X169588Y80151D01*
X169536Y80116D01*
X169482Y80084D01*
X169426Y80055D01*
X169368Y80030D01*
X169309Y80009D01*
X169249Y79991D01*
X169187Y79978D01*
X169125Y79968D01*
X169063Y79962D01*
X169000Y79960D01*
X168937Y79962D01*
X168875Y79968D01*
X168813Y79978D01*
X168751Y79991D01*
X168691Y80009D01*
X168632Y80030D01*
X168574Y80055D01*
X168518Y80084D01*
X168464Y80116D01*
X168412Y80151D01*
X168363Y80189D01*
X168315Y80231D01*
X168271Y80275D01*
X168229Y80323D01*
X168191Y80372D01*
X168156Y80424D01*
X168124Y80478D01*
X168095Y80534D01*
X168070Y80592D01*
X168049Y80651D01*
X168031Y80711D01*
X168018Y80773D01*
X168008Y80835D01*
X168002Y80897D01*
X168000Y80960D01*
D10*
X159542Y83138D02*
X159542Y85889D01*
X159542Y83138D02*
X159544Y83074D01*
X159550Y83010D01*
X159559Y82947D01*
X159573Y82885D01*
X159590Y82823D01*
X159611Y82763D01*
X159635Y82704D01*
X159663Y82646D01*
X159695Y82591D01*
X159729Y82537D01*
X159767Y82486D01*
X159808Y82436D01*
X159852Y82390D01*
X159898Y82346D01*
X159948Y82305D01*
X159999Y82267D01*
X160053Y82233D01*
X160108Y82201D01*
X160166Y82173D01*
X160225Y82149D01*
X160285Y82128D01*
X160347Y82111D01*
X160409Y82097D01*
X160472Y82088D01*
X160536Y82082D01*
X160600Y82080D01*
X160664Y82082D01*
X160728Y82088D01*
X160791Y82097D01*
X160853Y82111D01*
X160915Y82128D01*
X160975Y82149D01*
X161034Y82173D01*
X161092Y82201D01*
X161147Y82233D01*
X161201Y82267D01*
X161252Y82305D01*
X161302Y82346D01*
X161348Y82390D01*
X161392Y82436D01*
X161433Y82486D01*
X161471Y82537D01*
X161505Y82591D01*
X161537Y82646D01*
X161565Y82704D01*
X161589Y82763D01*
X161610Y82823D01*
X161627Y82885D01*
X161641Y82947D01*
X161650Y83010D01*
X161656Y83074D01*
X161658Y83138D01*
X161658Y85889D01*
X163321Y82079D02*
X164591Y82079D01*
X164646Y82081D01*
X164702Y82086D01*
X164756Y82095D01*
X164810Y82108D01*
X164863Y82124D01*
X164915Y82143D01*
X164966Y82166D01*
X165015Y82192D01*
X165062Y82222D01*
X165107Y82254D01*
X165149Y82289D01*
X165190Y82327D01*
X165228Y82368D01*
X165263Y82410D01*
X165295Y82455D01*
X165325Y82503D01*
X165351Y82551D01*
X165374Y82602D01*
X165393Y82654D01*
X165409Y82707D01*
X165422Y82761D01*
X165431Y82815D01*
X165436Y82871D01*
X165438Y82926D01*
X165438Y83349D01*
X165436Y83404D01*
X165431Y83460D01*
X165422Y83514D01*
X165409Y83568D01*
X165393Y83621D01*
X165374Y83673D01*
X165351Y83724D01*
X165325Y83773D01*
X165295Y83820D01*
X165263Y83865D01*
X165228Y83907D01*
X165190Y83948D01*
X165149Y83986D01*
X165107Y84021D01*
X165062Y84053D01*
X165015Y84083D01*
X164966Y84109D01*
X164915Y84132D01*
X164863Y84151D01*
X164810Y84167D01*
X164756Y84180D01*
X164702Y84189D01*
X164646Y84194D01*
X164591Y84196D01*
X163321Y84196D01*
X163321Y85889D01*
X165438Y85889D01*
D15*
X93000Y183800D02*
X76000Y183800D01*
X76000Y152800D02*
X93000Y152800D01*
X76000Y152800D02*
X76000Y153800D01*
X93000Y153800D02*
X93000Y152800D01*
X93000Y182800D02*
X93000Y183800D01*
X76000Y183800D02*
X76000Y182800D01*
D16*
X58810Y177800D02*
X58812Y177863D01*
X58818Y177925D01*
X58828Y177987D01*
X58841Y178049D01*
X58859Y178109D01*
X58880Y178168D01*
X58905Y178226D01*
X58934Y178282D01*
X58966Y178336D01*
X59001Y178388D01*
X59039Y178437D01*
X59081Y178485D01*
X59125Y178529D01*
X59173Y178571D01*
X59222Y178609D01*
X59274Y178644D01*
X59328Y178676D01*
X59384Y178705D01*
X59442Y178730D01*
X59501Y178751D01*
X59561Y178769D01*
X59623Y178782D01*
X59685Y178792D01*
X59747Y178798D01*
X59810Y178800D01*
X59873Y178798D01*
X59935Y178792D01*
X59997Y178782D01*
X60059Y178769D01*
X60119Y178751D01*
X60178Y178730D01*
X60236Y178705D01*
X60292Y178676D01*
X60346Y178644D01*
X60398Y178609D01*
X60447Y178571D01*
X60495Y178529D01*
X60539Y178485D01*
X60581Y178437D01*
X60619Y178388D01*
X60654Y178336D01*
X60686Y178282D01*
X60715Y178226D01*
X60740Y178168D01*
X60761Y178109D01*
X60779Y178049D01*
X60792Y177987D01*
X60802Y177925D01*
X60808Y177863D01*
X60810Y177800D01*
X60808Y177737D01*
X60802Y177675D01*
X60792Y177613D01*
X60779Y177551D01*
X60761Y177491D01*
X60740Y177432D01*
X60715Y177374D01*
X60686Y177318D01*
X60654Y177264D01*
X60619Y177212D01*
X60581Y177163D01*
X60539Y177115D01*
X60495Y177071D01*
X60447Y177029D01*
X60398Y176991D01*
X60346Y176956D01*
X60292Y176924D01*
X60236Y176895D01*
X60178Y176870D01*
X60119Y176849D01*
X60059Y176831D01*
X59997Y176818D01*
X59935Y176808D01*
X59873Y176802D01*
X59810Y176800D01*
X59747Y176802D01*
X59685Y176808D01*
X59623Y176818D01*
X59561Y176831D01*
X59501Y176849D01*
X59442Y176870D01*
X59384Y176895D01*
X59328Y176924D01*
X59274Y176956D01*
X59222Y176991D01*
X59173Y177029D01*
X59125Y177071D01*
X59081Y177115D01*
X59039Y177163D01*
X59001Y177212D01*
X58966Y177264D01*
X58934Y177318D01*
X58905Y177374D01*
X58880Y177432D01*
X58859Y177491D01*
X58841Y177551D01*
X58828Y177613D01*
X58818Y177675D01*
X58812Y177737D01*
X58810Y177800D01*
D10*
X72788Y188692D02*
X72788Y191443D01*
X72788Y188692D02*
X72790Y188628D01*
X72796Y188564D01*
X72805Y188501D01*
X72819Y188439D01*
X72836Y188377D01*
X72857Y188317D01*
X72881Y188258D01*
X72909Y188200D01*
X72941Y188145D01*
X72975Y188091D01*
X73013Y188040D01*
X73054Y187990D01*
X73098Y187944D01*
X73144Y187900D01*
X73194Y187859D01*
X73245Y187821D01*
X73299Y187787D01*
X73354Y187755D01*
X73412Y187727D01*
X73471Y187703D01*
X73531Y187682D01*
X73593Y187665D01*
X73655Y187651D01*
X73718Y187642D01*
X73782Y187636D01*
X73846Y187634D01*
X73910Y187636D01*
X73974Y187642D01*
X74037Y187651D01*
X74099Y187665D01*
X74161Y187682D01*
X74221Y187703D01*
X74280Y187727D01*
X74338Y187755D01*
X74393Y187787D01*
X74447Y187821D01*
X74498Y187859D01*
X74548Y187900D01*
X74594Y187944D01*
X74638Y187990D01*
X74679Y188040D01*
X74717Y188091D01*
X74751Y188145D01*
X74783Y188200D01*
X74811Y188258D01*
X74835Y188317D01*
X74856Y188377D01*
X74873Y188439D01*
X74887Y188501D01*
X74896Y188564D01*
X74902Y188628D01*
X74904Y188692D01*
X74904Y191443D01*
X76567Y189750D02*
X77837Y189750D01*
X77892Y189748D01*
X77948Y189743D01*
X78002Y189734D01*
X78056Y189721D01*
X78109Y189705D01*
X78161Y189686D01*
X78212Y189663D01*
X78261Y189637D01*
X78308Y189607D01*
X78353Y189575D01*
X78395Y189540D01*
X78436Y189502D01*
X78474Y189461D01*
X78509Y189419D01*
X78541Y189374D01*
X78571Y189327D01*
X78597Y189278D01*
X78620Y189227D01*
X78639Y189175D01*
X78655Y189122D01*
X78668Y189068D01*
X78677Y189014D01*
X78682Y188958D01*
X78684Y188903D01*
X78684Y188692D01*
X78682Y188628D01*
X78676Y188564D01*
X78667Y188501D01*
X78653Y188439D01*
X78636Y188377D01*
X78615Y188317D01*
X78591Y188258D01*
X78563Y188200D01*
X78531Y188145D01*
X78497Y188091D01*
X78459Y188040D01*
X78418Y187990D01*
X78374Y187944D01*
X78328Y187900D01*
X78278Y187859D01*
X78227Y187821D01*
X78173Y187787D01*
X78118Y187755D01*
X78060Y187727D01*
X78001Y187703D01*
X77941Y187682D01*
X77879Y187665D01*
X77817Y187651D01*
X77754Y187642D01*
X77690Y187636D01*
X77626Y187634D01*
X77562Y187636D01*
X77498Y187642D01*
X77435Y187651D01*
X77373Y187665D01*
X77311Y187682D01*
X77251Y187703D01*
X77192Y187727D01*
X77134Y187755D01*
X77079Y187787D01*
X77025Y187821D01*
X76974Y187859D01*
X76924Y187900D01*
X76878Y187944D01*
X76834Y187990D01*
X76793Y188040D01*
X76755Y188091D01*
X76721Y188145D01*
X76689Y188200D01*
X76661Y188258D01*
X76637Y188317D01*
X76616Y188377D01*
X76599Y188439D01*
X76585Y188501D01*
X76576Y188564D01*
X76570Y188628D01*
X76568Y188692D01*
X76567Y188692D02*
X76567Y189750D01*
X76568Y189750D02*
X76570Y189831D01*
X76576Y189911D01*
X76585Y189991D01*
X76599Y190070D01*
X76616Y190149D01*
X76637Y190227D01*
X76661Y190304D01*
X76689Y190379D01*
X76721Y190453D01*
X76756Y190526D01*
X76795Y190596D01*
X76837Y190665D01*
X76882Y190732D01*
X76930Y190797D01*
X76982Y190859D01*
X77036Y190918D01*
X77093Y190975D01*
X77152Y191029D01*
X77214Y191081D01*
X77279Y191129D01*
X77346Y191174D01*
X77414Y191216D01*
X77485Y191255D01*
X77558Y191290D01*
X77632Y191322D01*
X77707Y191350D01*
X77784Y191374D01*
X77862Y191395D01*
X77941Y191412D01*
X78020Y191426D01*
X78100Y191435D01*
X78180Y191441D01*
X78261Y191443D01*
D15*
X16000Y229000D02*
X16000Y271000D01*
X44000Y271000D01*
X44000Y229000D01*
X16000Y229000D01*
X32000Y239000D02*
X32152Y239002D01*
X32304Y239008D01*
X32456Y239017D01*
X32607Y239031D01*
X32758Y239048D01*
X32909Y239069D01*
X33059Y239094D01*
X33208Y239123D01*
X33356Y239155D01*
X33504Y239192D01*
X33651Y239231D01*
X33796Y239275D01*
X33941Y239323D01*
X34084Y239373D01*
X34226Y239428D01*
X34366Y239486D01*
X34505Y239548D01*
X34642Y239613D01*
X34778Y239682D01*
X34912Y239754D01*
X35044Y239829D01*
X35174Y239908D01*
X35302Y239990D01*
X35428Y240075D01*
X35551Y240164D01*
X35673Y240255D01*
X35792Y240350D01*
X35908Y240447D01*
X36022Y240548D01*
X36134Y240651D01*
X36243Y240757D01*
X36349Y240866D01*
X36452Y240978D01*
X36553Y241092D01*
X36650Y241208D01*
X36745Y241327D01*
X36836Y241449D01*
X36925Y241572D01*
X37010Y241698D01*
X37092Y241826D01*
X37171Y241956D01*
X37246Y242088D01*
X37318Y242222D01*
X37387Y242358D01*
X37452Y242495D01*
X37514Y242634D01*
X37572Y242774D01*
X37627Y242916D01*
X37677Y243059D01*
X37725Y243204D01*
X37769Y243349D01*
X37808Y243496D01*
X37845Y243644D01*
X37877Y243792D01*
X37906Y243941D01*
X37931Y244091D01*
X37952Y244242D01*
X37969Y244393D01*
X37983Y244544D01*
X37992Y244696D01*
X37998Y244848D01*
X38000Y245000D01*
X32000Y239000D02*
X28000Y239000D01*
X27848Y239002D01*
X27696Y239008D01*
X27544Y239017D01*
X27393Y239031D01*
X27242Y239048D01*
X27091Y239069D01*
X26941Y239094D01*
X26792Y239123D01*
X26644Y239155D01*
X26496Y239192D01*
X26349Y239231D01*
X26204Y239275D01*
X26059Y239323D01*
X25916Y239373D01*
X25774Y239428D01*
X25634Y239486D01*
X25495Y239548D01*
X25358Y239613D01*
X25222Y239682D01*
X25088Y239754D01*
X24956Y239829D01*
X24826Y239908D01*
X24698Y239990D01*
X24572Y240075D01*
X24449Y240164D01*
X24327Y240255D01*
X24208Y240350D01*
X24092Y240447D01*
X23978Y240548D01*
X23866Y240651D01*
X23757Y240757D01*
X23651Y240866D01*
X23548Y240978D01*
X23447Y241092D01*
X23350Y241208D01*
X23255Y241327D01*
X23164Y241449D01*
X23075Y241572D01*
X22990Y241698D01*
X22908Y241826D01*
X22829Y241956D01*
X22754Y242088D01*
X22682Y242222D01*
X22613Y242358D01*
X22548Y242495D01*
X22486Y242634D01*
X22428Y242774D01*
X22373Y242916D01*
X22323Y243059D01*
X22275Y243204D01*
X22231Y243349D01*
X22192Y243496D01*
X22155Y243644D01*
X22123Y243792D01*
X22094Y243941D01*
X22069Y244091D01*
X22048Y244242D01*
X22031Y244393D01*
X22017Y244544D01*
X22008Y244696D01*
X22002Y244848D01*
X22000Y245000D01*
X22000Y255000D01*
X22002Y255152D01*
X22008Y255304D01*
X22017Y255456D01*
X22031Y255607D01*
X22048Y255758D01*
X22069Y255909D01*
X22094Y256059D01*
X22123Y256208D01*
X22155Y256356D01*
X22192Y256504D01*
X22231Y256651D01*
X22275Y256796D01*
X22323Y256941D01*
X22373Y257084D01*
X22428Y257226D01*
X22486Y257366D01*
X22548Y257505D01*
X22613Y257642D01*
X22682Y257778D01*
X22754Y257912D01*
X22829Y258044D01*
X22908Y258174D01*
X22990Y258302D01*
X23075Y258428D01*
X23164Y258551D01*
X23255Y258673D01*
X23350Y258792D01*
X23447Y258908D01*
X23548Y259022D01*
X23651Y259134D01*
X23757Y259243D01*
X23866Y259349D01*
X23978Y259452D01*
X24092Y259553D01*
X24208Y259650D01*
X24327Y259745D01*
X24449Y259836D01*
X24572Y259925D01*
X24698Y260010D01*
X24826Y260092D01*
X24956Y260171D01*
X25088Y260246D01*
X25222Y260318D01*
X25358Y260387D01*
X25495Y260452D01*
X25634Y260514D01*
X25774Y260572D01*
X25916Y260627D01*
X26059Y260677D01*
X26204Y260725D01*
X26349Y260769D01*
X26496Y260808D01*
X26644Y260845D01*
X26792Y260877D01*
X26941Y260906D01*
X27091Y260931D01*
X27242Y260952D01*
X27393Y260969D01*
X27544Y260983D01*
X27696Y260992D01*
X27848Y260998D01*
X28000Y261000D01*
X32000Y261000D01*
X32152Y260998D01*
X32304Y260992D01*
X32456Y260983D01*
X32607Y260969D01*
X32758Y260952D01*
X32909Y260931D01*
X33059Y260906D01*
X33208Y260877D01*
X33356Y260845D01*
X33504Y260808D01*
X33651Y260769D01*
X33796Y260725D01*
X33941Y260677D01*
X34084Y260627D01*
X34226Y260572D01*
X34366Y260514D01*
X34505Y260452D01*
X34642Y260387D01*
X34778Y260318D01*
X34912Y260246D01*
X35044Y260171D01*
X35174Y260092D01*
X35302Y260010D01*
X35428Y259925D01*
X35551Y259836D01*
X35673Y259745D01*
X35792Y259650D01*
X35908Y259553D01*
X36022Y259452D01*
X36134Y259349D01*
X36243Y259243D01*
X36349Y259134D01*
X36452Y259022D01*
X36553Y258908D01*
X36650Y258792D01*
X36745Y258673D01*
X36836Y258551D01*
X36925Y258428D01*
X37010Y258302D01*
X37092Y258174D01*
X37171Y258044D01*
X37246Y257912D01*
X37318Y257778D01*
X37387Y257642D01*
X37452Y257505D01*
X37514Y257366D01*
X37572Y257226D01*
X37627Y257084D01*
X37677Y256941D01*
X37725Y256796D01*
X37769Y256651D01*
X37808Y256504D01*
X37845Y256356D01*
X37877Y256208D01*
X37906Y256059D01*
X37931Y255909D01*
X37952Y255758D01*
X37969Y255607D01*
X37983Y255456D01*
X37992Y255304D01*
X37998Y255152D01*
X38000Y255000D01*
X38000Y245000D01*
X193000Y229000D02*
X193000Y271000D01*
X221000Y271000D01*
X221000Y229000D01*
X193000Y229000D01*
X209000Y239000D02*
X209152Y239002D01*
X209304Y239008D01*
X209456Y239017D01*
X209607Y239031D01*
X209758Y239048D01*
X209909Y239069D01*
X210059Y239094D01*
X210208Y239123D01*
X210356Y239155D01*
X210504Y239192D01*
X210651Y239231D01*
X210796Y239275D01*
X210941Y239323D01*
X211084Y239373D01*
X211226Y239428D01*
X211366Y239486D01*
X211505Y239548D01*
X211642Y239613D01*
X211778Y239682D01*
X211912Y239754D01*
X212044Y239829D01*
X212174Y239908D01*
X212302Y239990D01*
X212428Y240075D01*
X212551Y240164D01*
X212673Y240255D01*
X212792Y240350D01*
X212908Y240447D01*
X213022Y240548D01*
X213134Y240651D01*
X213243Y240757D01*
X213349Y240866D01*
X213452Y240978D01*
X213553Y241092D01*
X213650Y241208D01*
X213745Y241327D01*
X213836Y241449D01*
X213925Y241572D01*
X214010Y241698D01*
X214092Y241826D01*
X214171Y241956D01*
X214246Y242088D01*
X214318Y242222D01*
X214387Y242358D01*
X214452Y242495D01*
X214514Y242634D01*
X214572Y242774D01*
X214627Y242916D01*
X214677Y243059D01*
X214725Y243204D01*
X214769Y243349D01*
X214808Y243496D01*
X214845Y243644D01*
X214877Y243792D01*
X214906Y243941D01*
X214931Y244091D01*
X214952Y244242D01*
X214969Y244393D01*
X214983Y244544D01*
X214992Y244696D01*
X214998Y244848D01*
X215000Y245000D01*
X209000Y239000D02*
X205000Y239000D01*
X204848Y239002D01*
X204696Y239008D01*
X204544Y239017D01*
X204393Y239031D01*
X204242Y239048D01*
X204091Y239069D01*
X203941Y239094D01*
X203792Y239123D01*
X203644Y239155D01*
X203496Y239192D01*
X203349Y239231D01*
X203204Y239275D01*
X203059Y239323D01*
X202916Y239373D01*
X202774Y239428D01*
X202634Y239486D01*
X202495Y239548D01*
X202358Y239613D01*
X202222Y239682D01*
X202088Y239754D01*
X201956Y239829D01*
X201826Y239908D01*
X201698Y239990D01*
X201572Y240075D01*
X201449Y240164D01*
X201327Y240255D01*
X201208Y240350D01*
X201092Y240447D01*
X200978Y240548D01*
X200866Y240651D01*
X200757Y240757D01*
X200651Y240866D01*
X200548Y240978D01*
X200447Y241092D01*
X200350Y241208D01*
X200255Y241327D01*
X200164Y241449D01*
X200075Y241572D01*
X199990Y241698D01*
X199908Y241826D01*
X199829Y241956D01*
X199754Y242088D01*
X199682Y242222D01*
X199613Y242358D01*
X199548Y242495D01*
X199486Y242634D01*
X199428Y242774D01*
X199373Y242916D01*
X199323Y243059D01*
X199275Y243204D01*
X199231Y243349D01*
X199192Y243496D01*
X199155Y243644D01*
X199123Y243792D01*
X199094Y243941D01*
X199069Y244091D01*
X199048Y244242D01*
X199031Y244393D01*
X199017Y244544D01*
X199008Y244696D01*
X199002Y244848D01*
X199000Y245000D01*
X199000Y255000D01*
X199002Y255152D01*
X199008Y255304D01*
X199017Y255456D01*
X199031Y255607D01*
X199048Y255758D01*
X199069Y255909D01*
X199094Y256059D01*
X199123Y256208D01*
X199155Y256356D01*
X199192Y256504D01*
X199231Y256651D01*
X199275Y256796D01*
X199323Y256941D01*
X199373Y257084D01*
X199428Y257226D01*
X199486Y257366D01*
X199548Y257505D01*
X199613Y257642D01*
X199682Y257778D01*
X199754Y257912D01*
X199829Y258044D01*
X199908Y258174D01*
X199990Y258302D01*
X200075Y258428D01*
X200164Y258551D01*
X200255Y258673D01*
X200350Y258792D01*
X200447Y258908D01*
X200548Y259022D01*
X200651Y259134D01*
X200757Y259243D01*
X200866Y259349D01*
X200978Y259452D01*
X201092Y259553D01*
X201208Y259650D01*
X201327Y259745D01*
X201449Y259836D01*
X201572Y259925D01*
X201698Y260010D01*
X201826Y260092D01*
X201956Y260171D01*
X202088Y260246D01*
X202222Y260318D01*
X202358Y260387D01*
X202495Y260452D01*
X202634Y260514D01*
X202774Y260572D01*
X202916Y260627D01*
X203059Y260677D01*
X203204Y260725D01*
X203349Y260769D01*
X203496Y260808D01*
X203644Y260845D01*
X203792Y260877D01*
X203941Y260906D01*
X204091Y260931D01*
X204242Y260952D01*
X204393Y260969D01*
X204544Y260983D01*
X204696Y260992D01*
X204848Y260998D01*
X205000Y261000D01*
X209000Y261000D01*
X209152Y260998D01*
X209304Y260992D01*
X209456Y260983D01*
X209607Y260969D01*
X209758Y260952D01*
X209909Y260931D01*
X210059Y260906D01*
X210208Y260877D01*
X210356Y260845D01*
X210504Y260808D01*
X210651Y260769D01*
X210796Y260725D01*
X210941Y260677D01*
X211084Y260627D01*
X211226Y260572D01*
X211366Y260514D01*
X211505Y260452D01*
X211642Y260387D01*
X211778Y260318D01*
X211912Y260246D01*
X212044Y260171D01*
X212174Y260092D01*
X212302Y260010D01*
X212428Y259925D01*
X212551Y259836D01*
X212673Y259745D01*
X212792Y259650D01*
X212908Y259553D01*
X213022Y259452D01*
X213134Y259349D01*
X213243Y259243D01*
X213349Y259134D01*
X213452Y259022D01*
X213553Y258908D01*
X213650Y258792D01*
X213745Y258673D01*
X213836Y258551D01*
X213925Y258428D01*
X214010Y258302D01*
X214092Y258174D01*
X214171Y258044D01*
X214246Y257912D01*
X214318Y257778D01*
X214387Y257642D01*
X214452Y257505D01*
X214514Y257366D01*
X214572Y257226D01*
X214627Y257084D01*
X214677Y256941D01*
X214725Y256796D01*
X214769Y256651D01*
X214808Y256504D01*
X214845Y256356D01*
X214877Y256208D01*
X214906Y256059D01*
X214931Y255909D01*
X214952Y255758D01*
X214969Y255607D01*
X214983Y255456D01*
X214992Y255304D01*
X214998Y255152D01*
X215000Y255000D01*
X215000Y245000D01*
D12*
X7000Y423000D02*
X7000Y455000D01*
X21000Y455000D01*
X21000Y423000D01*
X7000Y423000D01*
D11*
X7904Y457542D02*
X14508Y457542D01*
X7904Y457542D02*
X7904Y459376D01*
X7906Y459461D01*
X7912Y459545D01*
X7922Y459629D01*
X7935Y459713D01*
X7953Y459796D01*
X7974Y459878D01*
X7999Y459959D01*
X8028Y460039D01*
X8060Y460117D01*
X8096Y460193D01*
X8136Y460268D01*
X8179Y460341D01*
X8225Y460412D01*
X8274Y460481D01*
X8327Y460548D01*
X8383Y460612D01*
X8441Y460673D01*
X8502Y460731D01*
X8566Y460787D01*
X8633Y460840D01*
X8702Y460889D01*
X8773Y460935D01*
X8846Y460978D01*
X8921Y461018D01*
X8997Y461054D01*
X9075Y461086D01*
X9155Y461115D01*
X9236Y461140D01*
X9318Y461161D01*
X9401Y461179D01*
X9485Y461192D01*
X9569Y461202D01*
X9653Y461208D01*
X9738Y461210D01*
X9823Y461208D01*
X9907Y461202D01*
X9991Y461192D01*
X10075Y461179D01*
X10158Y461161D01*
X10240Y461140D01*
X10321Y461115D01*
X10401Y461086D01*
X10479Y461054D01*
X10555Y461018D01*
X10630Y460978D01*
X10703Y460935D01*
X10774Y460889D01*
X10843Y460840D01*
X10910Y460787D01*
X10974Y460731D01*
X11035Y460673D01*
X11093Y460612D01*
X11149Y460548D01*
X11202Y460481D01*
X11251Y460412D01*
X11297Y460341D01*
X11340Y460268D01*
X11380Y460193D01*
X11416Y460117D01*
X11448Y460039D01*
X11477Y459959D01*
X11502Y459878D01*
X11523Y459796D01*
X11541Y459713D01*
X11554Y459629D01*
X11564Y459545D01*
X11570Y459461D01*
X11572Y459376D01*
X11573Y459376D02*
X11573Y457542D01*
X11573Y459743D02*
X14508Y461211D01*
X9372Y464778D02*
X7904Y466613D01*
X14508Y466613D01*
X14508Y468447D02*
X14508Y464778D01*
X9372Y472094D02*
X7904Y473928D01*
X14508Y473928D01*
X14508Y472094D02*
X14508Y475762D01*
M02*
