G04 EAGLE Gerber RS-274X export*
G75*
%MOMM*%
%FSLAX34Y34*%
%LPD*%
%INSoldermask Top*%
%IPPOS*%
%AMOC8*
5,1,8,0,0,1.08239X$1,22.5*%
G01*
%ADD10R,1.203200X1.303200*%
%ADD11R,1.303200X1.203200*%
%ADD12R,1.603200X1.603200*%
%ADD13R,0.603200X1.553200*%
%ADD14R,1.803200X1.603200*%
%ADD15R,2.103200X2.103200*%
%ADD16C,0.703200*%
%ADD17C,1.211200*%
%ADD18C,1.879600*%
%ADD19R,1.003200X1.003200*%
%ADD20R,1.803200X1.203200*%
%ADD21R,0.762000X1.473200*%
%ADD22R,1.524000X0.762000*%
%ADD23C,0.222272*%
%ADD24R,2.203200X1.103200*%
%ADD25R,1.103200X2.203200*%
%ADD26R,1.533200X1.533200*%
%ADD27C,1.061200*%
%ADD28C,0.222334*%
%ADD29R,2.903200X2.903200*%
%ADD30C,1.011200*%
%ADD31C,0.297181*%
%ADD32R,1.203200X1.203200*%
%ADD33C,0.959600*%


D10*
X113900Y211600D03*
X113900Y194600D03*
X129700Y211800D03*
X129700Y194800D03*
X161900Y177400D03*
X161900Y160400D03*
X145900Y177200D03*
X145900Y160200D03*
X113900Y177400D03*
X113900Y160400D03*
X129900Y177000D03*
X129900Y160000D03*
D11*
X67800Y213100D03*
X50800Y213100D03*
D10*
X30900Y86600D03*
X30900Y69600D03*
D12*
X101600Y132600D03*
X64600Y132600D03*
X102100Y113600D03*
X65100Y113600D03*
D13*
X107000Y42150D03*
X113500Y42150D03*
X120000Y42150D03*
X126500Y42150D03*
X133000Y42150D03*
D14*
X88000Y39900D03*
X152000Y39900D03*
D15*
X108000Y15400D03*
X132000Y15400D03*
D16*
X87000Y15400D03*
X153000Y15400D03*
D17*
X87000Y10360D02*
X87000Y20440D01*
X153000Y20440D02*
X153000Y10360D01*
D18*
X13500Y91300D03*
X13500Y65900D03*
D19*
X26200Y13100D03*
X26200Y28100D03*
X31100Y131700D03*
X46100Y131700D03*
D10*
X12300Y387700D03*
X12300Y404700D03*
X9700Y27300D03*
X9700Y10300D03*
X12500Y353400D03*
X12500Y370400D03*
D11*
X142400Y143500D03*
X125400Y143500D03*
D10*
X144500Y96200D03*
X144500Y79200D03*
D11*
X50900Y196500D03*
X67900Y196500D03*
D10*
X148500Y220600D03*
X148500Y203600D03*
X164500Y221100D03*
X164500Y204100D03*
X89500Y72400D03*
X89500Y89400D03*
D11*
X32000Y115500D03*
X49000Y115500D03*
D20*
X35700Y172100D03*
X12700Y189600D03*
X12700Y154600D03*
D21*
X67998Y93354D03*
X58600Y93354D03*
X49202Y93354D03*
X49202Y67446D03*
X67998Y67446D03*
D22*
X117940Y130160D03*
X117940Y109840D03*
X138260Y120000D03*
X128660Y76940D03*
X128660Y97260D03*
X108340Y87100D03*
D23*
X133745Y225245D02*
X133745Y230355D01*
X136355Y230355D01*
X136355Y225245D01*
X133745Y225245D01*
X133745Y227357D02*
X136355Y227357D01*
X136355Y229469D02*
X133745Y229469D01*
X132145Y232245D02*
X137255Y232245D01*
X132145Y232245D02*
X132145Y234855D01*
X137255Y234855D01*
X137255Y232245D01*
X137255Y234357D02*
X132145Y234357D01*
X132145Y236545D02*
X137255Y236545D01*
X132145Y236545D02*
X132145Y239155D01*
X137255Y239155D01*
X137255Y236545D01*
X137255Y238657D02*
X132145Y238657D01*
X132145Y240845D02*
X137255Y240845D01*
X132145Y240845D02*
X132145Y243455D01*
X137255Y243455D01*
X137255Y240845D01*
X137255Y242957D02*
X132145Y242957D01*
X132145Y245145D02*
X137255Y245145D01*
X132145Y245145D02*
X132145Y247755D01*
X137255Y247755D01*
X137255Y245145D01*
X137255Y247257D02*
X132145Y247257D01*
X136355Y249645D02*
X136355Y254755D01*
X136355Y249645D02*
X133745Y249645D01*
X133745Y254755D01*
X136355Y254755D01*
X136355Y251757D02*
X133745Y251757D01*
X133745Y253869D02*
X136355Y253869D01*
X132055Y254755D02*
X132055Y249645D01*
X129445Y249645D01*
X129445Y254755D01*
X132055Y254755D01*
X132055Y251757D02*
X129445Y251757D01*
X129445Y253869D02*
X132055Y253869D01*
X127755Y254755D02*
X127755Y249645D01*
X125145Y249645D01*
X125145Y254755D01*
X127755Y254755D01*
X127755Y251757D02*
X125145Y251757D01*
X125145Y253869D02*
X127755Y253869D01*
X123455Y254755D02*
X123455Y249645D01*
X120845Y249645D01*
X120845Y254755D01*
X123455Y254755D01*
X123455Y251757D02*
X120845Y251757D01*
X120845Y253869D02*
X123455Y253869D01*
X119155Y254755D02*
X119155Y249645D01*
X116545Y249645D01*
X116545Y254755D01*
X119155Y254755D01*
X119155Y251757D02*
X116545Y251757D01*
X116545Y253869D02*
X119155Y253869D01*
X114855Y254755D02*
X114855Y249645D01*
X112245Y249645D01*
X112245Y254755D01*
X114855Y254755D01*
X114855Y251757D02*
X112245Y251757D01*
X112245Y253869D02*
X114855Y253869D01*
X110555Y254755D02*
X110555Y249645D01*
X107945Y249645D01*
X107945Y254755D01*
X110555Y254755D01*
X110555Y251757D02*
X107945Y251757D01*
X107945Y253869D02*
X110555Y253869D01*
X106255Y254755D02*
X106255Y249645D01*
X103645Y249645D01*
X103645Y254755D01*
X106255Y254755D01*
X106255Y251757D02*
X103645Y251757D01*
X103645Y253869D02*
X106255Y253869D01*
X107855Y247755D02*
X102745Y247755D01*
X107855Y247755D02*
X107855Y245145D01*
X102745Y245145D01*
X102745Y247755D01*
X102745Y247257D02*
X107855Y247257D01*
X107855Y243455D02*
X102745Y243455D01*
X107855Y243455D02*
X107855Y240845D01*
X102745Y240845D01*
X102745Y243455D01*
X102745Y242957D02*
X107855Y242957D01*
X107855Y239155D02*
X102745Y239155D01*
X107855Y239155D02*
X107855Y236545D01*
X102745Y236545D01*
X102745Y239155D01*
X102745Y238657D02*
X107855Y238657D01*
X107855Y234855D02*
X102745Y234855D01*
X107855Y234855D02*
X107855Y232245D01*
X102745Y232245D01*
X102745Y234855D01*
X102745Y234357D02*
X107855Y234357D01*
X103645Y230355D02*
X103645Y225245D01*
X103645Y230355D02*
X106255Y230355D01*
X106255Y225245D01*
X103645Y225245D01*
X103645Y227357D02*
X106255Y227357D01*
X106255Y229469D02*
X103645Y229469D01*
X107945Y230355D02*
X107945Y225245D01*
X107945Y230355D02*
X110555Y230355D01*
X110555Y225245D01*
X107945Y225245D01*
X107945Y227357D02*
X110555Y227357D01*
X110555Y229469D02*
X107945Y229469D01*
X112245Y230355D02*
X112245Y225245D01*
X112245Y230355D02*
X114855Y230355D01*
X114855Y225245D01*
X112245Y225245D01*
X112245Y227357D02*
X114855Y227357D01*
X114855Y229469D02*
X112245Y229469D01*
X116545Y230355D02*
X116545Y225245D01*
X116545Y230355D02*
X119155Y230355D01*
X119155Y225245D01*
X116545Y225245D01*
X116545Y227357D02*
X119155Y227357D01*
X119155Y229469D02*
X116545Y229469D01*
X120845Y230355D02*
X120845Y225245D01*
X120845Y230355D02*
X123455Y230355D01*
X123455Y225245D01*
X120845Y225245D01*
X120845Y227357D02*
X123455Y227357D01*
X123455Y229469D02*
X120845Y229469D01*
X125145Y230355D02*
X125145Y225245D01*
X125145Y230355D02*
X127755Y230355D01*
X127755Y225245D01*
X125145Y225245D01*
X125145Y227357D02*
X127755Y227357D01*
X127755Y229469D02*
X125145Y229469D01*
X129445Y230355D02*
X129445Y225245D01*
X129445Y230355D02*
X132055Y230355D01*
X132055Y225245D01*
X129445Y225245D01*
X129445Y227357D02*
X132055Y227357D01*
X132055Y229469D02*
X129445Y229469D01*
D24*
X35800Y464500D03*
X35800Y451800D03*
X35800Y439100D03*
X35800Y426400D03*
X35800Y413700D03*
X35800Y401000D03*
X35800Y388300D03*
X35800Y375600D03*
X35800Y362900D03*
X35800Y350200D03*
X35800Y337500D03*
X35800Y324800D03*
X35800Y312100D03*
X35800Y299400D03*
D25*
X63650Y289400D03*
X76350Y289400D03*
X89050Y289400D03*
X101750Y289400D03*
X114450Y289400D03*
X127150Y289400D03*
X139850Y289400D03*
X152550Y289400D03*
X165250Y289400D03*
X177950Y289400D03*
D24*
X205800Y299400D03*
X205800Y312100D03*
X205800Y324800D03*
X205800Y337500D03*
X205800Y350200D03*
X205800Y362900D03*
X205800Y375600D03*
X205800Y388300D03*
X205800Y401000D03*
X205800Y413700D03*
X205800Y426400D03*
X205800Y439100D03*
X205800Y451800D03*
X205800Y464500D03*
D26*
X92450Y407850D03*
X110800Y407850D03*
X129150Y407850D03*
X92450Y389500D03*
X110800Y389500D03*
X129150Y389500D03*
X92450Y371150D03*
X110800Y371150D03*
X129150Y371150D03*
D27*
X101625Y407850D03*
X119975Y407850D03*
X92450Y398675D03*
X110800Y398675D03*
X129150Y398675D03*
X101625Y389500D03*
X119975Y389500D03*
X92450Y380325D03*
X110800Y380325D03*
X129150Y380325D03*
X101625Y371150D03*
X119975Y371150D03*
D28*
X180105Y92955D02*
X180105Y84945D01*
X177695Y84945D01*
X177695Y92955D01*
X180105Y92955D01*
X180105Y87057D02*
X177695Y87057D01*
X177695Y89169D02*
X180105Y89169D01*
X180105Y91281D02*
X177695Y91281D01*
X175105Y92955D02*
X175105Y84945D01*
X172695Y84945D01*
X172695Y92955D01*
X175105Y92955D01*
X175105Y87057D02*
X172695Y87057D01*
X172695Y89169D02*
X175105Y89169D01*
X175105Y91281D02*
X172695Y91281D01*
X170105Y92905D02*
X170105Y84695D01*
X167695Y84695D01*
X167695Y92905D01*
X170105Y92905D01*
X170105Y86807D02*
X167695Y86807D01*
X167695Y88919D02*
X170105Y88919D01*
X170105Y91031D02*
X167695Y91031D01*
X185105Y92955D02*
X185105Y84945D01*
X182695Y84945D01*
X182695Y92955D01*
X185105Y92955D01*
X185105Y87057D02*
X182695Y87057D01*
X182695Y89169D02*
X185105Y89169D01*
X185105Y91281D02*
X182695Y91281D01*
X190105Y92955D02*
X190105Y84945D01*
X187695Y84945D01*
X187695Y92955D01*
X190105Y92955D01*
X190105Y87057D02*
X187695Y87057D01*
X187695Y89169D02*
X190105Y89169D01*
X190105Y91281D02*
X187695Y91281D01*
X195105Y92955D02*
X195105Y84945D01*
X192695Y84945D01*
X192695Y92955D01*
X195105Y92955D01*
X195105Y87057D02*
X192695Y87057D01*
X192695Y89169D02*
X195105Y89169D01*
X195105Y91281D02*
X192695Y91281D01*
X196945Y107205D02*
X204955Y107205D01*
X204955Y104795D01*
X196945Y104795D01*
X196945Y107205D01*
X196945Y106907D02*
X204955Y106907D01*
X204955Y102205D02*
X196945Y102205D01*
X204955Y102205D02*
X204955Y99795D01*
X196945Y99795D01*
X196945Y102205D01*
X196945Y101907D02*
X204955Y101907D01*
X204955Y97205D02*
X196945Y97205D01*
X204955Y97205D02*
X204955Y94795D01*
X196945Y94795D01*
X196945Y97205D01*
X196945Y96907D02*
X204955Y96907D01*
X204955Y112205D02*
X196945Y112205D01*
X204955Y112205D02*
X204955Y109795D01*
X196945Y109795D01*
X196945Y112205D01*
X196945Y111907D02*
X204955Y111907D01*
X204955Y117205D02*
X196945Y117205D01*
X204955Y117205D02*
X204955Y114795D01*
X196945Y114795D01*
X196945Y117205D01*
X196945Y116907D02*
X204955Y116907D01*
X204955Y122205D02*
X196945Y122205D01*
X204955Y122205D02*
X204955Y119795D01*
X196945Y119795D01*
X196945Y122205D01*
X196945Y121907D02*
X204955Y121907D01*
X182695Y124045D02*
X182695Y132055D01*
X185105Y132055D01*
X185105Y124045D01*
X182695Y124045D01*
X182695Y126157D02*
X185105Y126157D01*
X185105Y128269D02*
X182695Y128269D01*
X182695Y130381D02*
X185105Y130381D01*
X187695Y132055D02*
X187695Y124045D01*
X187695Y132055D02*
X190105Y132055D01*
X190105Y124045D01*
X187695Y124045D01*
X187695Y126157D02*
X190105Y126157D01*
X190105Y128269D02*
X187695Y128269D01*
X187695Y130381D02*
X190105Y130381D01*
X192695Y132055D02*
X192695Y124045D01*
X192695Y132055D02*
X195105Y132055D01*
X195105Y124045D01*
X192695Y124045D01*
X192695Y126157D02*
X195105Y126157D01*
X195105Y128269D02*
X192695Y128269D01*
X192695Y130381D02*
X195105Y130381D01*
X177695Y132055D02*
X177695Y124045D01*
X177695Y132055D02*
X180105Y132055D01*
X180105Y124045D01*
X177695Y124045D01*
X177695Y126157D02*
X180105Y126157D01*
X180105Y128269D02*
X177695Y128269D01*
X177695Y130381D02*
X180105Y130381D01*
X172695Y132055D02*
X172695Y124045D01*
X172695Y132055D02*
X175105Y132055D01*
X175105Y124045D01*
X172695Y124045D01*
X172695Y126157D02*
X175105Y126157D01*
X175105Y128269D02*
X172695Y128269D01*
X172695Y130381D02*
X175105Y130381D01*
X167695Y132055D02*
X167695Y124045D01*
X167695Y132055D02*
X170105Y132055D01*
X170105Y124045D01*
X167695Y124045D01*
X167695Y126157D02*
X170105Y126157D01*
X170105Y128269D02*
X167695Y128269D01*
X167695Y130381D02*
X170105Y130381D01*
X165855Y109795D02*
X157845Y109795D01*
X157845Y112205D01*
X165855Y112205D01*
X165855Y109795D01*
X165855Y111907D02*
X157845Y111907D01*
X157845Y114795D02*
X165855Y114795D01*
X157845Y114795D02*
X157845Y117205D01*
X165855Y117205D01*
X165855Y114795D01*
X165855Y116907D02*
X157845Y116907D01*
X157845Y119795D02*
X165855Y119795D01*
X157845Y119795D02*
X157845Y122205D01*
X165855Y122205D01*
X165855Y119795D01*
X165855Y121907D02*
X157845Y121907D01*
X157845Y104795D02*
X165855Y104795D01*
X157845Y104795D02*
X157845Y107205D01*
X165855Y107205D01*
X165855Y104795D01*
X165855Y106907D02*
X157845Y106907D01*
X157845Y99795D02*
X165855Y99795D01*
X157845Y99795D02*
X157845Y102205D01*
X165855Y102205D01*
X165855Y99795D01*
X165855Y101907D02*
X157845Y101907D01*
X157845Y94795D02*
X165855Y94795D01*
X157845Y94795D02*
X157845Y97205D01*
X165855Y97205D01*
X165855Y94795D01*
X165855Y96907D02*
X157845Y96907D01*
D29*
X181400Y108500D03*
D30*
X181400Y108500D03*
X172400Y99500D03*
X172400Y117500D03*
X190400Y117500D03*
X190400Y99500D03*
D31*
X66370Y175270D02*
X66370Y180330D01*
X78930Y180330D01*
X78930Y175270D01*
X66370Y175270D01*
X66370Y178093D02*
X78930Y178093D01*
X66370Y170830D02*
X66370Y165770D01*
X66370Y170830D02*
X78930Y170830D01*
X78930Y165770D01*
X66370Y165770D01*
X66370Y168593D02*
X78930Y168593D01*
X66370Y161330D02*
X66370Y156270D01*
X66370Y161330D02*
X78930Y161330D01*
X78930Y156270D01*
X66370Y156270D01*
X66370Y159093D02*
X78930Y159093D01*
X90070Y161330D02*
X90070Y156270D01*
X90070Y161330D02*
X102630Y161330D01*
X102630Y156270D01*
X90070Y156270D01*
X90070Y159093D02*
X102630Y159093D01*
X90070Y175270D02*
X90070Y180330D01*
X102630Y180330D01*
X102630Y175270D01*
X90070Y175270D01*
X90070Y178093D02*
X102630Y178093D01*
D18*
X226000Y13500D03*
X226000Y38900D03*
X226000Y64300D03*
X226000Y89700D03*
X226000Y115100D03*
X226000Y140500D03*
D32*
X22000Y270000D03*
X38000Y270000D03*
X38000Y230000D03*
X22000Y230000D03*
X199000Y270000D03*
X215000Y270000D03*
X215000Y230000D03*
X199000Y230000D03*
D10*
X14000Y430500D03*
X14000Y447500D03*
X73000Y245500D03*
X73000Y262500D03*
X57000Y245500D03*
X57000Y262500D03*
X89000Y245500D03*
X89000Y262500D03*
D11*
X152500Y240000D03*
X169500Y240000D03*
X152500Y256000D03*
X169500Y256000D03*
D33*
X172086Y78798D03*
X185714Y78000D03*
X102000Y31000D03*
X212000Y101000D03*
X57000Y168000D03*
X51000Y175000D03*
X44000Y82000D03*
X45000Y54000D03*
X139000Y31000D03*
X120000Y30000D03*
X178000Y163000D03*
X188000Y153000D03*
X100000Y195000D03*
X13000Y212000D03*
X12000Y331000D03*
X200000Y210000D03*
X204000Y84000D03*
X201000Y150402D03*
X146900Y188000D03*
X119815Y239998D03*
X149000Y108000D03*
X161000Y130000D03*
X221711Y292711D03*
X234694Y155000D03*
X106000Y96000D03*
X5306Y420000D03*
X19322Y39322D03*
X76000Y305000D03*
M02*
