G04 EAGLE Gerber RS-274X export*
G75*
%MOMM*%
%FSLAX34Y34*%
%LPD*%
%INSoldermask Bottom*%
%IPPOS*%
%AMOC8*
5,1,8,0,0,1.08239X$1,22.5*%
G01*
%ADD10C,0.703200*%
%ADD11C,1.211200*%
%ADD12C,1.879600*%
%ADD13C,1.061200*%
%ADD14C,1.011200*%
%ADD15C,0.959600*%


D10*
X87000Y15400D03*
X153000Y15400D03*
D11*
X87000Y10360D02*
X87000Y20440D01*
X153000Y20440D02*
X153000Y10360D01*
D12*
X13500Y91300D03*
X13500Y65900D03*
D13*
X101625Y407850D03*
X119975Y407850D03*
X92450Y398675D03*
X110800Y398675D03*
X129150Y398675D03*
X101625Y389500D03*
X119975Y389500D03*
X92450Y380325D03*
X110800Y380325D03*
X129150Y380325D03*
X101625Y371150D03*
X119975Y371150D03*
D14*
X181400Y108500D03*
X172400Y99500D03*
X172400Y117500D03*
X190400Y117500D03*
X190400Y99500D03*
D12*
X226000Y13500D03*
X226000Y38900D03*
X226000Y64300D03*
X226000Y89700D03*
X226000Y115100D03*
X226000Y140500D03*
D15*
X172086Y78798D03*
X185714Y78000D03*
X102000Y31000D03*
X212000Y101000D03*
X57000Y168000D03*
X51000Y175000D03*
X44000Y82000D03*
X45000Y54000D03*
X139000Y31000D03*
X120000Y30000D03*
X178000Y163000D03*
X188000Y153000D03*
X100000Y195000D03*
X13000Y212000D03*
X12000Y331000D03*
X200000Y210000D03*
X204000Y84000D03*
X201000Y150402D03*
X146900Y188000D03*
X119815Y239998D03*
X149000Y108000D03*
X161000Y130000D03*
X221711Y292711D03*
X234694Y155000D03*
X106000Y96000D03*
X5306Y420000D03*
X19322Y39322D03*
X76000Y305000D03*
M02*
